<svg width="2100" height="600" viewBox="0 0 2100 600" fill="none" xmlns="http://www.w3.org/2000/svg">
<path d="M0 0H2100V600H0V0Z" fill="#C4C4C4"/>
<path d="M964.148 482.09H957.492V456.027L951 458.535V453.004L963.445 447.918H964.148V482.09Z" fill="white" fill-opacity="0.2"/>
<path d="M988.43 482.09H981.773V456.027L975.281 458.535V453.004L987.727 447.918H988.43V482.09Z" fill="white" fill-opacity="0.2"/>
<path d="M1015.59 469.199H1018.5V474.707H1015.59V482.09H1008.96V474.707H997.664L997.359 470.418L1008.94 447.965H1015.59V469.199ZM1003.8 469.199H1008.96V457.785L1008.82 458.043L1003.8 469.199Z" fill="white" fill-opacity="0.2"/>
<path d="M1042.22 467.98C1042.22 472.699 1041.36 476.309 1039.64 478.809C1037.94 481.309 1035.5 482.559 1032.33 482.559C1029.19 482.559 1026.76 481.348 1025.04 478.926C1023.34 476.488 1022.45 473.004 1022.39 468.473V462.027C1022.39 457.324 1023.24 453.73 1024.95 451.246C1026.65 448.746 1029.09 447.496 1032.28 447.496C1035.47 447.496 1037.91 448.73 1039.62 451.199C1041.32 453.668 1042.19 457.191 1042.22 461.77V467.98ZM1035.56 461.066C1035.56 458.379 1035.3 456.363 1034.77 455.02C1034.23 453.676 1033.41 453.004 1032.28 453.004C1030.17 453.004 1029.08 455.465 1029 460.387V468.895C1029 471.645 1029.27 473.691 1029.8 475.035C1030.34 476.379 1031.19 477.051 1032.33 477.051C1033.41 477.051 1034.2 476.426 1034.72 475.176C1035.25 473.91 1035.53 471.98 1035.56 469.387V461.066Z" fill="white" fill-opacity="0.2"/>
<path d="M1095.82 471.59C1095.82 469.402 1096.03 467.668 1096.45 466.387C1096.89 465.09 1097.66 463.855 1098.77 462.684C1099.95 461.387 1100.73 460.324 1101.12 459.496C1101.51 458.668 1101.7 457.832 1101.7 456.988C1101.7 454.379 1100.86 453.074 1099.17 453.074C1098.42 453.074 1097.8 453.434 1097.3 454.152C1096.8 454.871 1096.53 455.84 1096.5 457.059H1089.87C1089.9 454.027 1090.74 451.676 1092.4 450.004C1094.07 448.332 1096.33 447.496 1099.17 447.496C1102.08 447.496 1104.34 448.309 1105.95 449.934C1107.55 451.543 1108.36 453.801 1108.36 456.707C1108.36 459.113 1107.37 461.473 1105.38 463.785L1103.44 465.988C1102.8 466.754 1102.34 467.551 1102.08 468.379C1101.81 469.191 1101.66 470.262 1101.63 471.59H1095.82ZM1095.21 478.762C1095.21 477.699 1095.55 476.832 1096.22 476.16C1096.91 475.488 1097.77 475.152 1098.82 475.152C1099.9 475.152 1100.77 475.496 1101.45 476.184C1102.12 476.855 1102.45 477.715 1102.45 478.762C1102.45 479.793 1102.12 480.652 1101.47 481.34C1100.81 482.027 1099.93 482.371 1098.82 482.371C1097.73 482.371 1096.85 482.027 1096.2 481.34C1095.54 480.652 1095.21 479.793 1095.21 478.762Z" fill="white" fill-opacity="0.2"/>
<path d="M1117.34 471.59C1117.34 469.402 1117.55 467.668 1117.97 466.387C1118.41 465.09 1119.18 463.855 1120.29 462.684C1121.46 461.387 1122.24 460.324 1122.63 459.496C1123.02 458.668 1123.22 457.832 1123.22 456.988C1123.22 454.379 1122.38 453.074 1120.69 453.074C1119.94 453.074 1119.31 453.434 1118.81 454.152C1118.31 454.871 1118.05 455.84 1118.02 457.059H1111.38C1111.41 454.027 1112.26 451.676 1113.91 450.004C1115.59 448.332 1117.84 447.496 1120.69 447.496C1123.59 447.496 1125.85 448.309 1127.46 449.934C1129.07 451.543 1129.88 453.801 1129.88 456.707C1129.88 459.113 1128.88 461.473 1126.9 463.785L1124.95 465.988C1124.31 466.754 1123.86 467.551 1123.59 468.379C1123.33 469.191 1123.18 470.262 1123.15 471.59H1117.34ZM1116.73 478.762C1116.73 477.699 1117.06 476.832 1117.73 476.16C1118.42 475.488 1119.29 475.152 1120.34 475.152C1121.41 475.152 1122.29 475.496 1122.96 476.184C1123.63 476.855 1123.97 477.715 1123.97 478.762C1123.97 479.793 1123.64 480.652 1122.98 481.34C1122.33 482.027 1121.45 482.371 1120.34 482.371C1119.24 482.371 1118.37 482.027 1117.71 481.34C1117.05 480.652 1116.73 479.793 1116.73 478.762Z" fill="white" fill-opacity="0.2"/>
<path d="M1138.85 471.59C1138.85 469.402 1139.06 467.668 1139.48 466.387C1139.92 465.09 1140.7 463.855 1141.8 462.684C1142.98 461.387 1143.76 460.324 1144.15 459.496C1144.54 458.668 1144.73 457.832 1144.73 456.988C1144.73 454.379 1143.89 453.074 1142.2 453.074C1141.45 453.074 1140.83 453.434 1140.33 454.152C1139.83 454.871 1139.56 455.84 1139.53 457.059H1132.9C1132.93 454.027 1133.77 451.676 1135.43 450.004C1137.1 448.332 1139.36 447.496 1142.2 447.496C1145.11 447.496 1147.37 448.309 1148.98 449.934C1150.59 451.543 1151.39 453.801 1151.39 456.707C1151.39 459.113 1150.4 461.473 1148.41 463.785L1146.47 465.988C1145.83 466.754 1145.38 467.551 1145.11 468.379C1144.84 469.191 1144.7 470.262 1144.66 471.59H1138.85ZM1138.24 478.762C1138.24 477.699 1138.58 476.832 1139.25 476.16C1139.94 475.488 1140.8 475.152 1141.85 475.152C1142.93 475.152 1143.8 475.496 1144.48 476.184C1145.15 476.855 1145.48 477.715 1145.48 478.762C1145.48 479.793 1145.16 480.652 1144.5 481.34C1143.84 482.027 1142.96 482.371 1141.85 482.371C1140.76 482.371 1139.88 482.027 1139.23 481.34C1138.57 480.652 1138.24 479.793 1138.24 478.762Z" fill="white" fill-opacity="0.2"/>
<path fill-rule="evenodd" clip-rule="evenodd" d="M1074.68 460.064C1075.19 459.551 1075.19 458.721 1074.68 458.208V458.208C1074.16 457.696 1073.33 457.696 1072.82 458.208L1069.39 461.643C1067.82 463.205 1065.29 463.205 1063.73 461.643L1060.29 458.208C1059.78 457.696 1058.95 457.696 1058.44 458.208V458.208C1057.93 458.721 1057.93 459.551 1058.44 460.064L1061.87 463.498C1063.44 465.06 1063.44 467.593 1061.87 469.155L1058.44 472.59C1057.93 473.102 1057.93 473.933 1058.44 474.445V474.445C1058.95 474.958 1059.78 474.958 1060.29 474.445L1063.73 471.011C1065.29 469.449 1067.82 469.449 1069.39 471.011L1072.82 474.445C1073.33 474.958 1074.16 474.958 1074.68 474.445V474.445C1075.19 473.933 1075.19 473.102 1074.68 472.589L1071.24 469.155C1069.68 467.593 1069.68 465.06 1071.24 463.498L1074.68 460.064Z" fill="white" fill-opacity="0.2"/>
<path d="M983.324 429.479C983.324 429.073 983.219 428.768 983.01 428.562C982.805 428.353 982.429 428.136 981.882 427.913C980.884 427.535 980.166 427.093 979.729 426.587C979.291 426.076 979.072 425.475 979.072 424.782C979.072 423.944 979.368 423.271 979.961 422.766C980.558 422.255 981.314 422 982.23 422C982.841 422 983.386 422.13 983.864 422.39C984.343 422.645 984.71 423.007 984.965 423.477C985.225 423.946 985.354 424.479 985.354 425.076H983.352C983.352 424.611 983.251 424.258 983.051 424.017C982.855 423.771 982.57 423.647 982.196 423.647C981.845 423.647 981.572 423.752 981.376 423.962C981.18 424.167 981.082 424.445 981.082 424.796C981.082 425.069 981.191 425.318 981.41 425.541C981.629 425.76 982.016 425.988 982.572 426.225C983.543 426.576 984.247 427.006 984.685 427.517C985.127 428.027 985.348 428.676 985.348 429.465C985.348 430.331 985.072 431.007 984.521 431.495C983.969 431.983 983.219 432.227 982.271 432.227C981.629 432.227 981.043 432.094 980.515 431.83C979.986 431.566 979.571 431.188 979.271 430.695C978.974 430.203 978.826 429.622 978.826 428.952H980.843C980.843 429.526 980.954 429.943 981.178 430.203C981.401 430.463 981.766 430.593 982.271 430.593C982.973 430.593 983.324 430.221 983.324 429.479Z" fill="#F7F7F7" fill-opacity="0.3"/>
<path d="M1001.3 430.053H998.56L998.027 432.09H995.901L999.012 422.137H1000.85L1003.98 432.09H1001.83L1001.3 430.053ZM998.998 428.378H1000.86L999.928 424.83L998.998 428.378Z" fill="#F7F7F7" fill-opacity="0.3"/>
<path d="M1019.92 428.029H1016.8V432.09H1014.79V422.137H1020.3V423.812H1016.8V426.361H1019.92V428.029Z" fill="#F7F7F7" fill-opacity="0.3"/>
<path d="M1036.46 427.783H1033.33V430.422H1037.03V432.09H1031.32V422.137H1037.02V423.812H1033.33V426.163H1036.46V427.783Z" fill="#F7F7F7" fill-opacity="0.3"/>
<path d="M1051.45 428.631H1048.1V427.018H1051.45V428.631Z" fill="#F7F7F7" fill-opacity="0.3"/>
<path d="M1065.1 430.422H1069.21V432.09H1062.75V430.88L1066.81 423.812H1062.71V422.137H1069.13V423.319L1065.1 430.422Z" fill="#F7F7F7" fill-opacity="0.3"/>
<path d="M1087.14 428.009C1087.14 429.344 1086.83 430.381 1086.19 431.119C1085.56 431.857 1084.69 432.227 1083.57 432.227C1082.45 432.227 1081.57 431.862 1080.93 431.133C1080.3 430.399 1079.97 429.374 1079.96 428.057V426.354C1079.96 424.987 1080.28 423.921 1080.91 423.155C1081.55 422.385 1082.43 422 1083.55 422C1084.66 422 1085.53 422.378 1086.17 423.135C1086.81 423.887 1087.13 424.944 1087.14 426.307V428.009ZM1085.13 426.341C1085.13 425.443 1085 424.775 1084.74 424.338C1084.49 423.9 1084.09 423.682 1083.55 423.682C1083.02 423.682 1082.63 423.894 1082.37 424.317C1082.12 424.737 1081.98 425.377 1081.97 426.238V428.009C1081.97 428.879 1082.1 429.522 1082.36 429.937C1082.62 430.347 1083.02 430.552 1083.57 430.552C1084.09 430.552 1084.48 430.351 1084.74 429.95C1084.99 429.545 1085.12 428.918 1085.13 428.07V426.341Z" fill="#F7F7F7" fill-opacity="0.3"/>
<path d="M1105.41 432.09H1103.4L1100.46 425.562V432.09H1098.45V422.137H1100.46L1103.41 428.672V422.137H1105.41V432.09Z" fill="#F7F7F7" fill-opacity="0.3"/>
<path d="M1122.04 427.783H1118.91V430.422H1122.61V432.09H1116.9V422.137H1122.6V423.812H1118.91V426.163H1122.04V427.783Z" fill="#F7F7F7" fill-opacity="0.3"/>
<path d="M899.344 243.188H859.125V233.812L877.594 210.328C879.938 207.078 881.656 204.234 882.75 201.797C883.875 199.328 884.438 196.969 884.438 194.719C884.438 191.688 883.906 189.312 882.844 187.594C881.812 185.875 880.312 185.016 878.344 185.016C876.188 185.016 874.469 186.016 873.188 188.016C871.938 190.016 871.312 192.828 871.312 196.453H858C858 192.266 858.859 188.438 860.578 184.969C862.328 181.5 864.766 178.812 867.891 176.906C871.047 174.969 874.609 174 878.578 174C884.672 174 889.391 175.688 892.734 179.062C896.109 182.406 897.797 187.172 897.797 193.359C897.797 197.203 896.859 201.109 894.984 205.078C893.141 209.016 889.781 213.875 884.906 219.656L876.141 232.172H899.344V243.188Z" fill="white" fill-opacity="0.2"/>
<path d="M936.891 243.188H923.578V191.062L910.594 196.078V185.016L935.484 174.844H936.891V243.188Z" fill="white" fill-opacity="0.2"/>
<path d="M995.906 214.969C995.906 224.406 994.188 231.625 990.75 236.625C987.344 241.625 982.469 244.125 976.125 244.125C969.844 244.125 964.984 241.703 961.547 236.859C958.141 231.984 956.375 225.016 956.25 215.953V203.062C956.25 193.656 957.953 186.469 961.359 181.5C964.766 176.5 969.656 174 976.031 174C982.406 174 987.297 176.469 990.703 181.406C994.109 186.344 995.844 193.391 995.906 202.547V214.969ZM982.594 201.141C982.594 195.766 982.062 191.734 981 189.047C979.938 186.359 978.281 185.016 976.031 185.016C971.812 185.016 969.625 189.938 969.469 199.781V216.797C969.469 222.297 970 226.391 971.062 229.078C972.156 231.766 973.844 233.109 976.125 233.109C978.281 233.109 979.875 231.859 980.906 229.359C981.969 226.828 982.531 222.969 982.594 217.781V201.141Z" fill="white" fill-opacity="0.2"/>
<path d="M1044.47 214.969C1044.47 224.406 1042.75 231.625 1039.31 236.625C1035.91 241.625 1031.03 244.125 1024.69 244.125C1018.41 244.125 1013.55 241.703 1010.11 236.859C1006.7 231.984 1004.94 225.016 1004.81 215.953V203.062C1004.81 193.656 1006.52 186.469 1009.92 181.5C1013.33 176.5 1018.22 174 1024.59 174C1030.97 174 1035.86 176.469 1039.27 181.406C1042.67 186.344 1044.41 193.391 1044.47 202.547V214.969ZM1031.16 201.141C1031.16 195.766 1030.62 191.734 1029.56 189.047C1028.5 186.359 1026.84 185.016 1024.59 185.016C1020.38 185.016 1018.19 189.938 1018.03 199.781V216.797C1018.03 222.297 1018.56 226.391 1019.62 229.078C1020.72 231.766 1022.41 233.109 1024.69 233.109C1026.84 233.109 1028.44 231.859 1029.47 229.359C1030.53 226.828 1031.09 222.969 1031.16 217.781V201.141Z" fill="white" fill-opacity="0.2"/>
<path d="M1129.55 222.188C1129.55 217.812 1129.97 214.344 1130.81 211.781C1131.69 209.188 1133.23 206.719 1135.45 204.375C1137.8 201.781 1139.36 199.656 1140.14 198C1140.92 196.344 1141.31 194.672 1141.31 192.984C1141.31 187.766 1139.62 185.156 1136.25 185.156C1134.75 185.156 1133.5 185.875 1132.5 187.312C1131.5 188.75 1130.97 190.688 1130.91 193.125H1117.64C1117.7 187.062 1119.39 182.359 1122.7 179.016C1126.05 175.672 1130.56 174 1136.25 174C1142.06 174 1146.58 175.625 1149.8 178.875C1153.02 182.094 1154.62 186.609 1154.62 192.422C1154.62 197.234 1152.64 201.953 1148.67 206.578L1144.78 210.984C1143.5 212.516 1142.59 214.109 1142.06 215.766C1141.53 217.391 1141.23 219.531 1141.17 222.188H1129.55ZM1128.33 236.531C1128.33 234.406 1129 232.672 1130.34 231.328C1131.72 229.984 1133.45 229.312 1135.55 229.312C1137.7 229.312 1139.45 230 1140.8 231.375C1142.14 232.719 1142.81 234.438 1142.81 236.531C1142.81 238.594 1142.16 240.312 1140.84 241.688C1139.53 243.062 1137.77 243.75 1135.55 243.75C1133.36 243.75 1131.61 243.062 1130.3 241.688C1128.98 240.312 1128.33 238.594 1128.33 236.531Z" fill="white" fill-opacity="0.2"/>
<path d="M1172.58 222.188C1172.58 217.812 1173 214.344 1173.84 211.781C1174.72 209.188 1176.27 206.719 1178.48 204.375C1180.83 201.781 1182.39 199.656 1183.17 198C1183.95 196.344 1184.34 194.672 1184.34 192.984C1184.34 187.766 1182.66 185.156 1179.28 185.156C1177.78 185.156 1176.53 185.875 1175.53 187.312C1174.53 188.75 1174 190.688 1173.94 193.125H1160.67C1160.73 187.062 1162.42 182.359 1165.73 179.016C1169.08 175.672 1173.59 174 1179.28 174C1185.09 174 1189.61 175.625 1192.83 178.875C1196.05 182.094 1197.66 186.609 1197.66 192.422C1197.66 197.234 1195.67 201.953 1191.7 206.578L1187.81 210.984C1186.53 212.516 1185.62 214.109 1185.09 215.766C1184.56 217.391 1184.27 219.531 1184.2 222.188H1172.58ZM1171.36 236.531C1171.36 234.406 1172.03 232.672 1173.38 231.328C1174.75 229.984 1176.48 229.312 1178.58 229.312C1180.73 229.312 1182.48 230 1183.83 231.375C1185.17 232.719 1185.84 234.438 1185.84 236.531C1185.84 238.594 1185.19 240.312 1183.88 241.688C1182.56 243.062 1180.8 243.75 1178.58 243.75C1176.39 243.75 1174.64 243.062 1173.33 241.688C1172.02 240.312 1171.36 238.594 1171.36 236.531Z" fill="white" fill-opacity="0.2"/>
<path d="M1215.61 222.188C1215.61 217.812 1216.03 214.344 1216.88 211.781C1217.75 209.188 1219.3 206.719 1221.52 204.375C1223.86 201.781 1225.42 199.656 1226.2 198C1226.98 196.344 1227.38 194.672 1227.38 192.984C1227.38 187.766 1225.69 185.156 1222.31 185.156C1220.81 185.156 1219.56 185.875 1218.56 187.312C1217.56 188.75 1217.03 190.688 1216.97 193.125H1203.7C1203.77 187.062 1205.45 182.359 1208.77 179.016C1212.11 175.672 1216.62 174 1222.31 174C1228.12 174 1232.64 175.625 1235.86 178.875C1239.08 182.094 1240.69 186.609 1240.69 192.422C1240.69 197.234 1238.7 201.953 1234.73 206.578L1230.84 210.984C1229.56 212.516 1228.66 214.109 1228.12 215.766C1227.59 217.391 1227.3 219.531 1227.23 222.188H1215.61ZM1214.39 236.531C1214.39 234.406 1215.06 232.672 1216.41 231.328C1217.78 229.984 1219.52 229.312 1221.61 229.312C1223.77 229.312 1225.52 230 1226.86 231.375C1228.2 232.719 1228.88 234.438 1228.88 236.531C1228.88 238.594 1228.22 240.312 1226.91 241.688C1225.59 243.062 1223.83 243.75 1221.61 243.75C1219.42 243.75 1217.67 243.062 1216.36 241.688C1215.05 240.312 1214.39 238.594 1214.39 236.531Z" fill="white" fill-opacity="0.2"/>
<path fill-rule="evenodd" clip-rule="evenodd" d="M1096.54 199.152C1097.46 198.229 1097.46 196.732 1096.54 195.809V195.809C1095.62 194.887 1094.12 194.887 1093.2 195.809L1084.74 204.261C1083.18 205.823 1080.65 205.823 1079.09 204.261L1070.64 195.809C1069.71 194.886 1068.22 194.886 1067.29 195.809V195.809C1066.37 196.732 1066.37 198.229 1067.29 199.152L1075.75 207.603C1077.31 209.165 1077.31 211.698 1075.75 213.26L1067.29 221.711C1066.37 222.634 1066.37 224.13 1067.29 225.053V225.053C1068.22 225.976 1069.71 225.976 1070.64 225.053L1079.09 216.602C1080.65 215.04 1083.18 215.04 1084.74 216.602L1093.2 225.053C1094.12 225.976 1095.62 225.976 1096.54 225.053V225.053C1097.46 224.13 1097.46 222.634 1096.54 221.711L1088.09 213.26C1086.52 211.698 1086.52 209.165 1088.09 207.603L1096.54 199.152Z" fill="white" fill-opacity="0.2"/>
<path d="M480 0H0V600H480V0Z" fill="url(#paint0_linear)"/>
<path d="M449.152 430.188L449.152 433.827L461 433.827L461 434.838L449.152 434.838L449.152 438.468L448.203 438.468L448.203 430.188L449.152 430.188Z" fill="#DADADA"/>
<path d="M461 420.099L461 421.109L454.874 421.109L454.874 427.121L461 427.121L461 428.123L448.203 428.123L448.203 427.121L453.942 427.121L453.942 421.109L448.203 421.109L448.203 420.099L461 420.099Z" fill="#DADADA"/>
<path d="M461 415.862L461 416.864L448.203 416.864L448.203 415.862L461 415.862Z" fill="#DADADA"/>
<path d="M457.854 406.643C457.139 406.643 456.576 406.848 456.166 407.258C455.756 407.662 455.363 408.421 454.988 409.534C454.613 410.647 454.194 411.465 453.731 411.986C453.128 412.672 452.331 413.015 451.341 413.015C450.362 413.015 449.565 412.678 448.95 412.004C448.335 411.33 448.027 410.46 448.027 409.394C448.027 408.304 448.385 407.413 449.1 406.722C449.814 406.03 450.734 405.685 451.859 405.685L451.859 406.695C450.998 406.695 450.304 406.938 449.776 407.425C449.243 407.905 448.977 408.562 448.977 409.394C448.977 410.202 449.196 410.841 449.636 411.31C450.069 411.772 450.632 412.004 451.323 412.004C451.968 412.004 452.495 411.784 452.905 411.345C453.315 410.905 453.682 410.205 454.004 409.244C454.32 408.283 454.651 407.557 454.997 407.064C455.337 406.572 455.738 406.209 456.201 405.975C456.664 405.74 457.209 405.623 457.836 405.623C458.838 405.623 459.646 405.963 460.262 406.643C460.871 407.316 461.176 408.21 461.176 409.323C461.176 410.073 461.023 410.759 460.719 411.38C460.408 411.995 459.966 412.479 459.392 412.83C458.812 413.176 458.129 413.349 457.344 413.349L457.344 412.347C458.246 412.347 458.955 412.074 459.471 411.529C459.986 410.984 460.244 410.249 460.244 409.323C460.244 408.515 460.027 407.867 459.594 407.381C459.16 406.889 458.58 406.643 457.854 406.643Z" fill="#DADADA"/>
<path d="M457.423 393.477L457.423 398.275L461 399.365L461 400.411L448.203 396.333L448.203 395.401L461 391.323L461 392.369L457.423 393.477ZM456.482 397.985L456.482 393.767L449.618 395.876L456.482 397.985Z" fill="#DADADA"/>
<path d="M455.674 385.435L455.674 388.423L461 388.423L461 389.434L448.203 389.434L448.203 385.927C448.203 384.761 448.537 383.858 449.205 383.22C449.867 382.575 450.79 382.253 451.974 382.253C452.8 382.253 453.526 382.452 454.153 382.851C454.774 383.249 455.205 383.785 455.445 384.459L460.886 381.796L461 381.796L461 382.868L455.674 385.435ZM454.742 388.423L454.742 385.751C454.742 384.995 454.484 384.392 453.969 383.94C453.447 383.489 452.782 383.264 451.974 383.264C451.077 383.264 450.383 383.498 449.891 383.967C449.398 384.436 449.152 385.092 449.152 385.936L449.152 388.423L454.742 388.423Z" fill="#DADADA"/>
<path d="M454.874 373.552L454.874 378.518L460.068 378.518L460.068 372.805L461 372.805L461 379.52L448.203 379.52L448.203 372.849L449.152 372.849L449.152 378.518L453.942 378.518L453.942 373.552L454.874 373.552Z" fill="#DADADA"/>
<path d="M457.423 364.754L457.423 369.553L461 370.643L461 371.688L448.203 367.61L448.203 366.679L461 362.601L461 363.646L457.423 364.754ZM456.482 369.263L456.482 365.044L449.618 367.153L456.482 369.263Z" fill="#DADADA"/>
<path d="M448.203 355.323L459.462 351.447L448.203 347.554L448.203 346.227L461 346.227L461 347.229L455.454 347.229L449.873 347.141L461 351.061L461 351.834L449.926 355.736L455.419 355.648L461 355.648L461 356.65L448.203 356.65L448.203 355.323Z" fill="#DADADA"/>
<path d="M457.423 337.209L457.423 342.008L461 343.098L461 344.144L448.203 340.065L448.203 339.134L461 335.056L461 336.102L457.423 337.209ZM456.482 341.718L456.482 337.499L449.618 339.608L456.482 341.718Z" fill="#DADADA"/>
<path d="M455.164 330.793L448.203 327.603L448.203 326.451L456.184 330.301L461 330.301L461 331.303L456.184 331.303L448.203 335.144L448.203 333.966L455.164 330.793Z" fill="#DADADA"/>
<path d="M461 324.57L448.203 324.57L448.203 321.327C448.203 320.173 448.487 319.3 449.056 318.708C449.618 318.11 450.45 317.812 451.552 317.812C452.208 317.812 452.779 317.964 453.266 318.269C453.752 318.573 454.104 318.995 454.32 319.534C454.479 318.913 454.842 318.412 455.41 318.031C455.973 317.645 456.635 317.451 457.396 317.451C458.51 317.451 459.389 317.756 460.033 318.365C460.678 318.975 461 319.839 461 320.958L461 324.57ZM454.856 323.568L460.068 323.568L460.068 320.914C460.068 320.152 459.834 319.552 459.365 319.112C458.896 318.673 458.246 318.453 457.414 318.453C456.641 318.453 456.025 318.658 455.568 319.068C455.111 319.473 454.874 320.038 454.856 320.765L454.856 323.568ZM453.934 323.568L453.934 321.239C453.934 320.478 453.731 319.886 453.327 319.464C452.923 319.042 452.322 318.831 451.525 318.831C450.711 318.831 450.113 319.039 449.732 319.455C449.346 319.865 449.152 320.489 449.152 321.327L449.152 323.568L453.934 323.568Z" fill="#DADADA"/>
<path d="M454.874 308.952L454.874 313.918L460.068 313.918L460.068 308.205L461 308.205L461 314.92L448.203 314.92L448.203 308.249L449.152 308.249L449.152 313.918L453.942 313.918L453.942 308.952L454.874 308.952Z" fill="#DADADA"/>
<path d="M455.99 293.993C457.643 293.993 458.92 294.356 459.822 295.083C460.725 295.804 461.176 296.817 461.176 298.124C461.176 299.419 460.725 300.436 459.822 301.174C458.92 301.906 457.651 302.275 456.017 302.281L453.23 302.281C451.584 302.281 450.307 301.915 449.398 301.183C448.484 300.45 448.027 299.437 448.027 298.142C448.027 296.829 448.484 295.81 449.398 295.083C450.312 294.356 451.599 293.993 453.257 293.993L455.99 293.993ZM453.213 295.004C451.812 295.004 450.761 295.273 450.058 295.812C449.354 296.352 449.003 297.128 449.003 298.142C449.003 299.12 449.349 299.885 450.04 300.436C450.726 300.986 451.754 301.268 453.125 301.279L455.99 301.279C457.396 301.279 458.454 301.001 459.163 300.444C459.866 299.888 460.218 299.114 460.218 298.124C460.218 297.104 459.866 296.331 459.163 295.804C458.46 295.271 457.402 295.004 455.99 295.004L453.213 295.004Z" fill="#DADADA"/>
<path d="M448.203 283.877L457.282 283.877C458.519 283.883 459.477 284.217 460.156 284.879C460.836 285.535 461.176 286.47 461.176 287.683C461.176 288.913 460.842 289.856 460.174 290.513C459.5 291.163 458.524 291.488 457.247 291.488L448.203 291.488L448.203 290.486L457.212 290.486C459.233 290.486 460.244 289.552 460.244 287.683C460.244 285.843 459.263 284.911 457.3 284.888L448.203 284.888L448.203 283.877Z" fill="#DADADA"/>
<path d="M449.152 273.726L449.152 277.364L461 277.364L461 278.375L449.152 278.375L449.152 282.005L448.203 282.005L448.203 273.726L449.152 273.726Z" fill="#DADADA"/>
<path d="M457.854 265.789C457.139 265.789 456.576 265.994 456.166 266.404C455.756 266.809 455.363 267.567 454.988 268.681C454.613 269.794 454.194 270.611 453.731 271.133C453.128 271.818 452.331 272.161 451.341 272.161C450.362 272.161 449.565 271.824 448.95 271.15C448.335 270.477 448.027 269.606 448.027 268.54C448.027 267.45 448.385 266.56 449.1 265.868C449.814 265.177 450.734 264.831 451.859 264.831L451.859 265.842C450.998 265.842 450.304 266.085 449.776 266.571C449.243 267.052 448.977 267.708 448.977 268.54C448.977 269.349 449.196 269.987 449.636 270.456C450.069 270.919 450.632 271.15 451.323 271.15C451.968 271.15 452.495 270.931 452.905 270.491C453.315 270.052 453.682 269.352 454.004 268.391C454.32 267.43 454.651 266.703 454.997 266.211C455.337 265.719 455.738 265.355 456.201 265.121C456.664 264.887 457.209 264.77 457.836 264.77C458.838 264.77 459.646 265.109 460.262 265.789C460.871 266.463 461.176 267.356 461.176 268.47C461.176 269.22 461.023 269.905 460.719 270.526C460.408 271.142 459.966 271.625 459.392 271.977C458.812 272.322 458.129 272.495 457.344 272.495L457.344 271.493C458.246 271.493 458.955 271.221 459.471 270.676C459.986 270.131 460.244 269.396 460.244 268.47C460.244 267.661 460.027 267.014 459.594 266.527C459.16 266.035 458.58 265.789 457.854 265.789Z" fill="#DADADA"/>
<path d="M461 261.298L461 262.3L448.203 262.3L448.203 261.298L461 261.298Z" fill="#DADADA"/>
<path d="M461 258.09L448.203 258.09L448.203 255.075C448.203 253.687 448.648 252.588 449.539 251.779C450.424 250.971 451.646 250.555 453.204 250.531L455.885 250.531C457.49 250.531 458.744 250.941 459.646 251.762C460.549 252.576 461 253.722 461 255.198L461 258.09ZM449.152 257.088L460.068 257.088L460.068 255.146C460.068 254.003 459.717 253.118 459.014 252.491C458.305 251.864 457.294 251.542 455.981 251.524L453.301 251.524C451.988 251.524 450.969 251.832 450.242 252.447C449.516 253.057 449.152 253.941 449.152 255.102L449.152 257.088Z" fill="#DADADA"/>
<path d="M454.874 241.856L454.874 246.822L460.068 246.822L460.068 241.109L461 241.109L461 247.824L448.203 247.824L448.203 241.153L449.152 241.153L449.152 246.822L453.942 246.822L453.942 241.856L454.874 241.856Z" fill="#DADADA"/>
<path d="M459.4 231.512L459.541 231.485L459.4 231.45L448.203 228.11L448.203 227.003L461 231.002L461 231.951L448.203 235.95L448.203 234.852L459.4 231.512Z" fill="#DADADA"/>
<path d="M461 223.909L461 224.911L448.203 224.911L448.203 223.909L461 223.909Z" fill="#DADADA"/>
<path d="M454.874 214.733L454.874 219.699L460.068 219.699L460.068 213.986L461 213.986L461 220.701L448.203 220.701L448.203 214.03L449.152 214.03L449.152 219.699L453.942 219.699L453.942 214.733L454.874 214.733Z" fill="#DADADA"/>
<path d="M457.52 209.706L459.418 209.398L457.607 209.012L448.203 206.718L448.203 205.821L457.607 203.562L459.436 203.185L457.52 202.851L448.203 200.961L448.203 199.941L461 202.666L461 203.615L451.024 206.015L449.838 206.27L451.024 206.516L461 208.968L461 209.926L448.203 212.642L448.203 211.613L457.52 209.706Z" fill="#DADADA"/>
<path d="M455.797 196.865L461 196.865L461 197.867L448.203 197.867L448.203 194.149C448.203 193.019 448.543 192.128 449.223 191.478C449.902 190.827 450.837 190.502 452.026 190.502C453.239 190.502 454.171 190.818 454.821 191.451C455.472 192.078 455.797 192.983 455.797 194.167L455.797 196.865ZM454.856 196.865L454.856 194.149C454.856 193.306 454.613 192.655 454.127 192.198C453.635 191.735 452.94 191.504 452.044 191.504C451.147 191.504 450.441 191.738 449.926 192.207C449.41 192.67 449.152 193.314 449.152 194.141L449.152 196.865L454.856 196.865Z" fill="#DADADA"/>
<path d="M455.99 180.228C457.643 180.228 458.92 180.591 459.822 181.317C460.725 182.038 461.176 183.052 461.176 184.358C461.176 185.653 460.725 186.67 459.822 187.408C458.92 188.141 457.651 188.51 456.017 188.516L453.23 188.516C451.584 188.516 450.307 188.149 449.398 187.417C448.484 186.685 448.027 185.671 448.027 184.376C448.027 183.063 448.484 182.044 449.398 181.317C450.312 180.591 451.599 180.228 453.257 180.228L455.99 180.228ZM453.213 181.238C451.812 181.238 450.761 181.508 450.058 182.047C449.354 182.586 449.003 183.362 449.003 184.376C449.003 185.354 449.349 186.119 450.04 186.67C450.726 187.221 451.754 187.502 453.125 187.514L455.99 187.514C457.396 187.514 458.454 187.235 459.163 186.679C459.866 186.122 460.218 185.349 460.218 184.358C460.218 183.339 459.866 182.565 459.163 182.038C458.46 181.505 457.402 181.238 455.99 181.238L453.213 181.238Z" fill="#DADADA"/>
<path d="M455.674 173.565L455.674 176.554L461 176.554L461 177.564L448.203 177.564L448.203 174.058C448.203 172.892 448.537 171.989 449.205 171.351C449.867 170.706 450.79 170.384 451.974 170.384C452.8 170.384 453.526 170.583 454.153 170.981C454.774 171.38 455.205 171.916 455.445 172.59L460.886 169.927L461 169.927L461 170.999L455.674 173.565ZM454.742 176.554L454.742 173.882C454.742 173.126 454.484 172.522 453.969 172.071C453.447 171.62 452.782 171.395 451.974 171.395C451.077 171.395 450.383 171.629 449.891 172.098C449.398 172.566 449.152 173.223 449.152 174.066L449.152 176.554L454.742 176.554Z" fill="#DADADA"/>
<path d="M449.152 161.032L449.152 164.671L461 164.671L461 165.682L449.152 165.682L449.152 169.312L448.203 169.312L448.203 161.032L449.152 161.032Z" fill="#DADADA"/>
<path d="M1620 0H2100V600H1620V0Z" fill="url(#paint1_linear)"/>
<path d="M1650.85 169.312L1650.85 165.673L1639 165.673L1639 164.662L1650.85 164.662L1650.85 161.032L1651.8 161.032L1651.8 169.312L1650.85 169.312Z" fill="#DADADA"/>
<path d="M1639 179.401L1639 178.391L1645.13 178.391L1645.13 172.379L1639 172.379L1639 171.377L1651.8 171.377L1651.8 172.379L1646.06 172.379L1646.06 178.391L1651.8 178.391L1651.8 179.401L1639 179.401Z" fill="#DADADA"/>
<path d="M1639 183.638L1639 182.636L1651.8 182.636L1651.8 183.638L1639 183.638Z" fill="#DADADA"/>
<path d="M1642.15 192.857C1642.86 192.857 1643.42 192.652 1643.83 192.242C1644.24 191.838 1644.64 191.079 1645.01 189.966C1645.39 188.853 1645.81 188.035 1646.27 187.514C1646.87 186.828 1647.67 186.485 1648.66 186.485C1649.64 186.485 1650.43 186.822 1651.05 187.496C1651.67 188.17 1651.97 189.04 1651.97 190.106C1651.97 191.196 1651.62 192.087 1650.9 192.778C1650.19 193.47 1649.27 193.815 1648.14 193.815L1648.14 192.805C1649 192.805 1649.7 192.562 1650.22 192.075C1650.76 191.595 1651.02 190.938 1651.02 190.106C1651.02 189.298 1650.8 188.659 1650.36 188.19C1649.93 187.728 1649.37 187.496 1648.68 187.496C1648.03 187.496 1647.5 187.716 1647.09 188.155C1646.68 188.595 1646.32 189.295 1646 190.256C1645.68 191.217 1645.35 191.943 1645 192.436C1644.66 192.928 1644.26 193.291 1643.8 193.525C1643.34 193.76 1642.79 193.877 1642.16 193.877C1641.16 193.877 1640.35 193.537 1639.74 192.857C1639.13 192.184 1638.82 191.29 1638.82 190.177C1638.82 189.427 1638.98 188.741 1639.28 188.12C1639.59 187.505 1640.03 187.021 1640.61 186.67C1641.19 186.324 1641.87 186.151 1642.66 186.151L1642.66 187.153C1641.75 187.153 1641.04 187.426 1640.53 187.971C1640.01 188.516 1639.76 189.251 1639.76 190.177C1639.76 190.985 1639.97 191.633 1640.41 192.119C1640.84 192.611 1641.42 192.857 1642.15 192.857Z" fill="#DADADA"/>
<path d="M1642.58 206.023L1642.58 201.225L1639 200.135L1639 199.089L1651.8 203.167L1651.8 204.099L1639 208.177L1639 207.131L1642.58 206.023ZM1643.52 201.515L1643.52 205.733L1650.38 203.624L1643.52 201.515Z" fill="#DADADA"/>
<path d="M1644.33 214.065L1644.33 211.077L1639 211.077L1639 210.066L1651.8 210.066L1651.8 213.573C1651.8 214.739 1651.46 215.642 1650.79 216.28C1650.13 216.925 1649.21 217.247 1648.03 217.247C1647.2 217.247 1646.47 217.048 1645.85 216.649C1645.23 216.251 1644.79 215.715 1644.55 215.041L1639.11 217.704L1639 217.704L1639 216.632L1644.33 214.065ZM1645.26 211.077L1645.26 213.749C1645.26 214.505 1645.52 215.108 1646.03 215.56C1646.55 216.011 1647.22 216.236 1648.03 216.236C1648.92 216.236 1649.62 216.002 1650.11 215.533C1650.6 215.064 1650.85 214.408 1650.85 213.564L1650.85 211.077L1645.26 211.077Z" fill="#DADADA"/>
<path d="M1645.13 225.948L1645.13 220.982L1639.93 220.982L1639.93 226.695L1639 226.695L1639 219.98L1651.8 219.98L1651.8 226.651L1650.85 226.651L1650.85 220.982L1646.06 220.982L1646.06 225.948L1645.13 225.948Z" fill="#DADADA"/>
<path d="M1642.58 234.746L1642.58 229.947L1639 228.857L1639 227.812L1651.8 231.89L1651.8 232.821L1639 236.899L1639 235.854L1642.58 234.746ZM1643.52 230.237L1643.52 234.456L1650.38 232.347L1643.52 230.237Z" fill="#DADADA"/>
<path d="M1651.8 244.177L1640.54 248.053L1651.8 251.946L1651.8 253.273L1639 253.273L1639 252.271L1644.55 252.271L1650.13 252.359L1639 248.439L1639 247.666L1650.07 243.764L1644.58 243.852L1639 243.852L1639 242.85L1651.8 242.85L1651.8 244.177Z" fill="#DADADA"/>
<path d="M1642.58 262.291L1642.58 257.492L1639 256.402L1639 255.356L1651.8 259.435L1651.8 260.366L1639 264.444L1639 263.398L1642.58 262.291ZM1643.52 257.782L1643.52 262.001L1650.38 259.892L1643.52 257.782Z" fill="#DADADA"/>
<path d="M1644.84 268.707L1651.8 271.897L1651.8 273.049L1643.82 269.199L1639 269.199L1639 268.197L1643.82 268.197L1651.8 264.356L1651.8 265.534L1644.84 268.707Z" fill="#DADADA"/>
<path d="M1639 274.93L1651.8 274.93L1651.8 278.173C1651.8 279.327 1651.51 280.2 1650.94 280.792C1650.38 281.39 1649.55 281.688 1648.45 281.688C1647.79 281.688 1647.22 281.536 1646.73 281.231C1646.25 280.927 1645.9 280.505 1645.68 279.966C1645.52 280.587 1645.16 281.088 1644.59 281.469C1644.03 281.855 1643.37 282.049 1642.6 282.049C1641.49 282.049 1640.61 281.744 1639.97 281.135C1639.32 280.525 1639 279.661 1639 278.542L1639 274.93ZM1645.14 275.932L1639.93 275.932L1639.93 278.586C1639.93 279.348 1640.17 279.948 1640.63 280.388C1641.1 280.827 1641.75 281.047 1642.59 281.047C1643.36 281.047 1643.97 280.842 1644.43 280.432C1644.89 280.027 1645.13 279.462 1645.14 278.735L1645.14 275.932ZM1646.07 275.932L1646.07 278.261C1646.07 279.022 1646.27 279.614 1646.67 280.036C1647.08 280.458 1647.68 280.669 1648.47 280.669C1649.29 280.669 1649.89 280.461 1650.27 280.045C1650.65 279.635 1650.85 279.011 1650.85 278.173L1650.85 275.932L1646.07 275.932Z" fill="#DADADA"/>
<path d="M1645.13 290.548L1645.13 285.582L1639.93 285.582L1639.93 291.295L1639 291.295L1639 284.58L1651.8 284.58L1651.8 291.251L1650.85 291.251L1650.85 285.582L1646.06 285.582L1646.06 290.548L1645.13 290.548Z" fill="#DADADA"/>
<path d="M1644.01 305.507C1642.36 305.507 1641.08 305.144 1640.18 304.417C1639.28 303.696 1638.82 302.683 1638.82 301.376C1638.82 300.081 1639.28 299.064 1640.18 298.326C1641.08 297.594 1642.35 297.225 1643.98 297.219L1646.77 297.219C1648.42 297.219 1649.69 297.585 1650.6 298.317C1651.52 299.05 1651.97 300.063 1651.97 301.358C1651.97 302.671 1651.52 303.69 1650.6 304.417C1649.69 305.144 1648.4 305.507 1646.74 305.507L1644.01 305.507ZM1646.79 304.496C1648.19 304.496 1649.24 304.227 1649.94 303.688C1650.65 303.148 1651 302.372 1651 301.358C1651 300.38 1650.65 299.615 1649.96 299.064C1649.27 298.514 1648.25 298.232 1646.88 298.221L1644.01 298.221C1642.6 298.221 1641.55 298.499 1640.84 299.056C1640.13 299.612 1639.78 300.386 1639.78 301.376C1639.78 302.396 1640.13 303.169 1640.84 303.696C1641.54 304.229 1642.6 304.496 1644.01 304.496L1646.79 304.496Z" fill="#DADADA"/>
<path d="M1651.8 315.623L1642.72 315.623C1641.48 315.617 1640.52 315.283 1639.84 314.621C1639.16 313.965 1638.82 313.03 1638.82 311.817C1638.82 310.587 1639.16 309.644 1639.83 308.987C1640.5 308.337 1641.48 308.012 1642.75 308.012L1651.8 308.012L1651.8 309.014L1642.79 309.014C1640.77 309.014 1639.76 309.948 1639.76 311.817C1639.76 313.657 1640.74 314.589 1642.7 314.612L1651.8 314.612L1651.8 315.623Z" fill="#DADADA"/>
<path d="M1650.85 325.774L1650.85 322.136L1639 322.136L1639 321.125L1650.85 321.125L1650.85 317.495L1651.8 317.495L1651.8 325.774L1650.85 325.774Z" fill="#DADADA"/>
<path d="M1642.15 333.711C1642.86 333.711 1643.42 333.506 1643.83 333.096C1644.24 332.691 1644.64 331.933 1645.01 330.819C1645.39 329.706 1645.81 328.889 1646.27 328.367C1646.87 327.682 1647.67 327.339 1648.66 327.339C1649.64 327.339 1650.43 327.676 1651.05 328.35C1651.67 329.023 1651.97 329.894 1651.97 330.96C1651.97 332.05 1651.62 332.94 1650.9 333.632C1650.19 334.323 1649.27 334.669 1648.14 334.669L1648.14 333.658C1649 333.658 1649.7 333.415 1650.22 332.929C1650.76 332.448 1651.02 331.792 1651.02 330.96C1651.02 330.151 1650.8 329.513 1650.36 329.044C1649.93 328.581 1649.37 328.35 1648.68 328.35C1648.03 328.35 1647.5 328.569 1647.09 329.009C1646.68 329.448 1646.32 330.148 1646 331.109C1645.68 332.07 1645.35 332.797 1645 333.289C1644.66 333.781 1644.26 334.145 1643.8 334.379C1643.34 334.613 1642.79 334.73 1642.16 334.73C1641.16 334.73 1640.35 334.391 1639.74 333.711C1639.13 333.037 1638.82 332.144 1638.82 331.03C1638.82 330.28 1638.98 329.595 1639.28 328.974C1639.59 328.358 1640.03 327.875 1640.61 327.523C1641.19 327.178 1641.87 327.005 1642.66 327.005L1642.66 328.007C1641.75 328.007 1641.04 328.279 1640.53 328.824C1640.01 329.369 1639.76 330.104 1639.76 331.03C1639.76 331.839 1639.97 332.486 1640.41 332.973C1640.84 333.465 1641.42 333.711 1642.15 333.711Z" fill="#DADADA"/>
<path d="M1639 338.202L1639 337.2L1651.8 337.2L1651.8 338.202L1639 338.202Z" fill="#DADADA"/>
<path d="M1639 341.41L1651.8 341.41L1651.8 344.425C1651.8 345.813 1651.35 346.912 1650.46 347.721C1649.58 348.529 1648.35 348.945 1646.8 348.969L1644.12 348.969C1642.51 348.969 1641.26 348.559 1640.35 347.738C1639.45 346.924 1639 345.778 1639 344.302L1639 341.41ZM1650.85 342.412L1639.93 342.412L1639.93 344.354C1639.93 345.497 1640.28 346.382 1640.99 347.009C1641.7 347.636 1642.71 347.958 1644.02 347.976L1646.7 347.976C1648.01 347.976 1649.03 347.668 1649.76 347.053C1650.48 346.443 1650.85 345.559 1650.85 344.398L1650.85 342.412Z" fill="#DADADA"/>
<path d="M1645.13 357.644L1645.13 352.678L1639.93 352.678L1639.93 358.391L1639 358.391L1639 351.676L1651.8 351.676L1651.8 358.347L1650.85 358.347L1650.85 352.678L1646.06 352.678L1646.06 357.644L1645.13 357.644Z" fill="#DADADA"/>
<path d="M1640.6 367.988L1640.46 368.015L1640.6 368.05L1651.8 371.39L1651.8 372.497L1639 368.498L1639 367.549L1651.8 363.55L1651.8 364.648L1640.6 367.988Z" fill="#DADADA"/>
<path d="M1639 375.591L1639 374.589L1651.8 374.589L1651.8 375.591L1639 375.591Z" fill="#DADADA"/>
<path d="M1645.13 384.767L1645.13 379.801L1639.93 379.801L1639.93 385.514L1639 385.514L1639 378.799L1651.8 378.799L1651.8 385.47L1650.85 385.47L1650.85 379.801L1646.06 379.801L1646.06 384.767L1645.13 384.767Z" fill="#DADADA"/>
<path d="M1642.48 389.794L1640.58 390.102L1642.39 390.488L1651.8 392.782L1651.8 393.679L1642.39 395.938L1640.56 396.315L1642.48 396.649L1651.8 398.539L1651.8 399.559L1639 396.834L1639 395.885L1648.98 393.485L1650.16 393.23L1648.98 392.984L1639 390.532L1639 389.574L1651.8 386.858L1651.8 387.887L1642.48 389.794Z" fill="#DADADA"/>
<path d="M1644.2 402.635L1639 402.635L1639 401.633L1651.8 401.633L1651.8 405.351C1651.8 406.481 1651.46 407.372 1650.78 408.022C1650.1 408.673 1649.16 408.998 1647.97 408.998C1646.76 408.998 1645.83 408.682 1645.18 408.049C1644.53 407.422 1644.2 406.517 1644.2 405.333L1644.2 402.635ZM1645.14 402.635L1645.14 405.351C1645.14 406.194 1645.39 406.845 1645.87 407.302C1646.37 407.765 1647.06 407.996 1647.96 407.996C1648.85 407.996 1649.56 407.762 1650.07 407.293C1650.59 406.83 1650.85 406.186 1650.85 405.359L1650.85 402.635L1645.14 402.635Z" fill="#DADADA"/>
<path d="M1644.01 419.272C1642.36 419.272 1641.08 418.909 1640.18 418.183C1639.28 417.462 1638.82 416.448 1638.82 415.142C1638.82 413.847 1639.28 412.83 1640.18 412.092C1641.08 411.359 1642.35 410.99 1643.98 410.984L1646.77 410.984C1648.42 410.984 1649.69 411.351 1650.6 412.083C1651.52 412.815 1651.97 413.829 1651.97 415.124C1651.97 416.437 1651.52 417.456 1650.6 418.183C1649.69 418.909 1648.4 419.272 1646.74 419.272L1644.01 419.272ZM1646.79 418.262C1648.19 418.262 1649.24 417.992 1649.94 417.453C1650.65 416.914 1651 416.138 1651 415.124C1651 414.146 1650.65 413.381 1649.96 412.83C1649.27 412.279 1648.25 411.998 1646.88 411.986L1644.01 411.986C1642.6 411.986 1641.55 412.265 1640.84 412.821C1640.13 413.378 1639.78 414.151 1639.78 415.142C1639.78 416.161 1640.13 416.935 1640.84 417.462C1641.54 417.995 1642.6 418.262 1644.01 418.262L1646.79 418.262Z" fill="#DADADA"/>
<path d="M1644.33 425.935L1644.33 422.946L1639 422.946L1639 421.936L1651.8 421.936L1651.8 425.442C1651.8 426.608 1651.46 427.511 1650.79 428.149C1650.13 428.794 1649.21 429.116 1648.03 429.116C1647.2 429.116 1646.47 428.917 1645.85 428.519C1645.23 428.12 1644.79 427.584 1644.55 426.91L1639.11 429.573L1639 429.573L1639 428.501L1644.33 425.935ZM1645.26 422.946L1645.26 425.618C1645.26 426.374 1645.52 426.978 1646.03 427.429C1646.55 427.88 1647.22 428.105 1648.03 428.105C1648.92 428.105 1649.62 427.871 1650.11 427.402C1650.6 426.934 1650.85 426.277 1650.85 425.434L1650.85 422.946L1645.26 422.946Z" fill="#DADADA"/>
<path d="M1650.85 438.468L1650.85 434.829L1639 434.829L1639 433.818L1650.85 433.818L1650.85 430.188L1651.8 430.188L1651.8 438.468L1650.85 438.468Z" fill="#DADADA"/>
<defs>
<linearGradient id="paint0_linear" x1="480" y1="300" x2="-3.57628e-06" y2="300" gradientUnits="userSpaceOnUse">
<stop stop-color="#6F6F6F"/>
<stop offset="1" stop-color="#DADADA" stop-opacity="0"/>
</linearGradient>
<linearGradient id="paint1_linear" x1="1620" y1="300" x2="2100" y2="300" gradientUnits="userSpaceOnUse">
<stop stop-color="#6F6F6F"/>
<stop offset="1" stop-color="#DADADA" stop-opacity="0"/>
</linearGradient>
</defs>
</svg>
