<svg width="600" height="315" viewBox="0 0 600 315" fill="none" xmlns="http://www.w3.org/2000/svg">
<path d="M0 0H600V315H0V0Z" fill="#C4C4C4"/>
<path d="M157.094 121.047V132.297H156.344C151.375 132.328 147.422 133.828 144.484 136.797C141.578 139.734 139.812 143.859 139.188 149.172C142.031 145.922 145.594 144.297 149.875 144.297C154.812 144.297 158.75 146.406 161.688 150.625C164.656 154.844 166.141 160.469 166.141 167.5C166.141 171.969 165.297 176 163.609 179.594C161.922 183.188 159.547 185.984 156.484 187.984C153.453 189.953 150.016 190.938 146.172 190.938C139.984 190.938 135.016 188.453 131.266 183.484C127.547 178.516 125.688 171.828 125.688 163.422V158.5C125.688 150.969 126.859 144.375 129.203 138.719C131.578 133.062 134.984 128.719 139.422 125.688C143.891 122.625 149.094 121.078 155.031 121.047H157.094ZM145.703 155.266C144.016 155.266 142.594 155.797 141.438 156.859C140.312 157.922 139.469 159.234 138.906 160.797V165.578C138.906 170.391 139.547 173.984 140.828 176.359C142.109 178.734 143.797 179.922 145.891 179.922C148.016 179.922 149.719 178.781 151 176.5C152.281 174.188 152.922 171.234 152.922 167.641C152.922 163.984 152.25 161.016 150.906 158.734C149.594 156.422 147.859 155.266 145.703 155.266Z" fill="white"/>
<path d="M213.672 161.781C213.672 171.219 211.953 178.438 208.516 183.438C205.109 188.438 200.234 190.938 193.891 190.938C187.609 190.938 182.75 188.516 179.312 183.672C175.906 178.797 174.141 171.828 174.016 162.766V149.875C174.016 140.469 175.719 133.281 179.125 128.312C182.531 123.312 187.422 120.812 193.797 120.812C200.172 120.812 205.062 123.281 208.469 128.219C211.875 133.156 213.609 140.203 213.672 149.359V161.781ZM200.359 147.953C200.359 142.578 199.828 138.547 198.766 135.859C197.703 133.172 196.047 131.828 193.797 131.828C189.578 131.828 187.391 136.75 187.234 146.594V163.609C187.234 169.109 187.766 173.203 188.828 175.891C189.922 178.578 191.609 179.922 193.891 179.922C196.047 179.922 197.641 178.672 198.672 176.172C199.734 173.641 200.297 169.781 200.359 164.594V147.953Z" fill="white"/>
<path d="M262.234 161.781C262.234 171.219 260.516 178.438 257.078 183.438C253.672 188.438 248.797 190.938 242.453 190.938C236.172 190.938 231.312 188.516 227.875 183.672C224.469 178.797 222.703 171.828 222.578 162.766V149.875C222.578 140.469 224.281 133.281 227.688 128.312C231.094 123.312 235.984 120.812 242.359 120.812C248.734 120.812 253.625 123.281 257.031 128.219C260.438 133.156 262.172 140.203 262.234 149.359V161.781ZM248.922 147.953C248.922 142.578 248.391 138.547 247.328 135.859C246.266 133.172 244.609 131.828 242.359 131.828C238.141 131.828 235.953 136.75 235.797 146.594V163.609C235.797 169.109 236.328 173.203 237.391 175.891C238.484 178.578 240.172 179.922 242.453 179.922C244.609 179.922 246.203 178.672 247.234 176.172C248.297 173.641 248.859 169.781 248.922 164.594V147.953Z" fill="white"/>
<path d="M349.328 149.828H355.75C358.188 149.828 359.969 148.984 361.094 147.297C362.25 145.578 362.828 143.297 362.828 140.453C362.828 137.734 362.234 135.625 361.047 134.125C359.891 132.594 358.328 131.828 356.359 131.828C354.516 131.828 353 132.547 351.812 133.984C350.656 135.422 350.078 137.234 350.078 139.422H336.812C336.812 135.859 337.625 132.672 339.25 129.859C340.906 127.016 343.203 124.797 346.141 123.203C349.109 121.609 352.391 120.812 355.984 120.812C362.266 120.812 367.188 122.547 370.75 126.016C374.312 129.484 376.094 134.234 376.094 140.266C376.094 143.359 375.281 146.234 373.656 148.891C372.062 151.516 369.953 153.531 367.328 154.938C370.547 156.312 372.938 158.375 374.5 161.125C376.094 163.875 376.891 167.125 376.891 170.875C376.891 176.938 374.953 181.797 371.078 185.453C367.234 189.109 362.172 190.938 355.891 190.938C350.047 190.938 345.297 189.141 341.641 185.547C338.016 181.922 336.203 177.172 336.203 171.297H349.469C349.469 173.734 350.109 175.781 351.391 177.438C352.672 179.094 354.297 179.922 356.266 179.922C358.547 179.922 360.344 179.078 361.656 177.391C363 175.703 363.672 173.453 363.672 170.641C363.672 163.922 361.062 160.547 355.844 160.516H349.328V149.828Z" fill="white"/>
<path d="M415.281 190H401.969V137.875L388.984 142.891V131.828L413.875 121.656H415.281V190Z" fill="white"/>
<path d="M436 156.438L439.375 121.75H472.422V133.094H450.25L449.031 147.719C451.594 146 454.234 145.141 456.953 145.141C462.578 145.141 466.906 147.141 469.938 151.141C473 155.141 474.531 160.797 474.531 168.109C474.531 174.953 472.719 180.469 469.094 184.656C465.469 188.844 460.625 190.938 454.562 190.938C450.969 190.938 447.641 190.094 444.578 188.406C441.516 186.688 439.094 184.312 437.312 181.281C435.562 178.25 434.672 174.812 434.641 170.969H447.766C447.984 173.812 448.688 176.016 449.875 177.578C451.062 179.141 452.594 179.922 454.469 179.922C456.656 179.922 458.344 178.875 459.531 176.781C460.719 174.656 461.312 171.5 461.312 167.312C461.312 163.375 460.594 160.406 459.156 158.406C457.75 156.406 455.766 155.406 453.203 155.406C450.703 155.406 448.766 156.266 447.391 157.984L446.547 159.156L436 156.438Z" fill="white"/>
<path fill-rule="evenodd" clip-rule="evenodd" d="M314.866 145.964C315.789 145.041 315.789 143.545 314.866 142.622V142.622C313.943 141.699 312.447 141.699 311.524 142.622L303.072 151.073C301.51 152.635 298.978 152.635 297.416 151.073L288.964 142.622C288.041 141.699 286.545 141.699 285.622 142.622V142.622C284.699 143.545 284.699 145.041 285.622 145.964L294.073 154.415C295.636 155.977 295.636 158.51 294.073 160.072L285.622 168.524C284.699 169.447 284.699 170.943 285.622 171.866V171.866C286.545 172.789 288.041 172.789 288.964 171.866L297.416 163.414C298.978 161.852 301.51 161.852 303.072 163.414L311.524 171.866C312.447 172.789 313.943 172.789 314.866 171.866V171.866C315.789 170.943 315.789 169.446 314.866 168.524L306.415 160.072C304.852 158.51 304.852 155.977 306.415 154.415L314.866 145.964Z" fill="white"/>
<path d="M227.809 260.648H225.242V270H220.074V244.406H228.318C230.908 244.406 232.906 245.08 234.312 246.428C235.73 247.764 236.439 249.668 236.439 252.141C236.439 255.539 235.203 257.918 232.73 259.277L237.213 269.754V270H231.658L227.809 260.648ZM225.242 256.342H228.178C229.209 256.342 229.982 256.002 230.498 255.322C231.014 254.631 231.271 253.711 231.271 252.562C231.271 249.996 230.27 248.713 228.266 248.713H225.242V256.342Z" fill="white"/>
<path d="M252.207 264.762H245.158L243.787 270H238.32L246.318 244.406H251.047L259.098 270H253.578L252.207 264.762ZM246.283 260.455H251.064L248.674 251.332L246.283 260.455Z" fill="white"/>
<path d="M275.973 248.713H269.645V270H264.459V248.713H258.236V244.406H275.973V248.713Z" fill="white"/>
<path d="M284.34 270H279.172V244.406H284.34V270Z" fill="white"/>
<path d="M306.699 259.506C306.699 262.939 305.885 265.605 304.256 267.504C302.639 269.402 300.389 270.352 297.506 270.352C294.635 270.352 292.379 269.414 290.738 267.539C289.098 265.652 288.266 263.016 288.242 259.629V255.252C288.242 251.736 289.057 248.994 290.686 247.025C292.314 245.045 294.576 244.055 297.471 244.055C300.318 244.055 302.562 245.027 304.203 246.973C305.844 248.906 306.676 251.625 306.699 255.129V259.506ZM301.514 255.217C301.514 252.908 301.186 251.191 300.529 250.066C299.873 248.941 298.854 248.379 297.471 248.379C296.1 248.379 295.086 248.924 294.43 250.014C293.773 251.092 293.434 252.738 293.41 254.953V259.506C293.41 261.744 293.744 263.396 294.412 264.463C295.08 265.518 296.111 266.045 297.506 266.045C298.854 266.045 299.855 265.529 300.512 264.498C301.168 263.455 301.502 261.844 301.514 259.664V255.217Z" fill="white"/>
<path d="M329.27 270H324.277V250.453L319.408 252.334V248.186L328.742 244.371H329.27V270Z" fill="white"/>
<path d="M348.395 244.143V248.361H348.113C346.25 248.373 344.768 248.936 343.666 250.049C342.576 251.15 341.914 252.697 341.68 254.689C342.746 253.471 344.082 252.861 345.688 252.861C347.539 252.861 349.016 253.652 350.117 255.234C351.23 256.816 351.787 258.926 351.787 261.562C351.787 263.238 351.471 264.75 350.838 266.098C350.205 267.445 349.314 268.494 348.166 269.244C347.029 269.982 345.74 270.352 344.299 270.352C341.979 270.352 340.115 269.42 338.709 267.557C337.314 265.693 336.617 263.186 336.617 260.033V258.188C336.617 255.363 337.057 252.891 337.936 250.77C338.826 248.648 340.104 247.02 341.768 245.883C343.443 244.734 345.395 244.154 347.621 244.143H348.395ZM344.123 256.975C343.49 256.975 342.957 257.174 342.523 257.572C342.102 257.971 341.785 258.463 341.574 259.049V260.842C341.574 262.646 341.814 263.994 342.295 264.885C342.775 265.775 343.408 266.221 344.193 266.221C344.99 266.221 345.629 265.793 346.109 264.938C346.59 264.07 346.83 262.963 346.83 261.615C346.83 260.244 346.578 259.131 346.074 258.275C345.582 257.408 344.932 256.975 344.123 256.975Z" fill="white"/>
<path d="M355.32 267.469C355.32 266.672 355.584 266.016 356.111 265.5C356.65 264.984 357.348 264.727 358.203 264.727C359.035 264.727 359.727 264.984 360.277 265.5C360.828 266.004 361.104 266.66 361.104 267.469C361.104 268.289 360.822 268.951 360.26 269.455C359.709 269.947 359.023 270.193 358.203 270.193C357.371 270.193 356.68 269.941 356.129 269.438C355.59 268.934 355.32 268.277 355.32 267.469ZM355.32 253.09C355.32 252.293 355.584 251.637 356.111 251.121C356.65 250.605 357.348 250.348 358.203 250.348C359.035 250.348 359.727 250.605 360.277 251.121C360.828 251.625 361.104 252.281 361.104 253.09C361.104 253.91 360.822 254.572 360.26 255.076C359.709 255.568 359.023 255.814 358.203 255.814C357.371 255.814 356.68 255.562 356.129 255.059C355.59 254.555 355.32 253.898 355.32 253.09Z" fill="white"/>
<path d="M374.27 260.104C373.215 261.182 372.061 261.721 370.807 261.721C368.861 261.721 367.326 260.941 366.201 259.383C365.088 257.812 364.531 255.721 364.531 253.107C364.531 251.42 364.848 249.879 365.48 248.484C366.113 247.078 366.992 245.988 368.117 245.215C369.254 244.441 370.52 244.055 371.914 244.055C373.355 244.055 374.639 244.482 375.764 245.338C376.889 246.193 377.762 247.424 378.383 249.029C379.004 250.623 379.314 252.439 379.314 254.479V256.289C379.314 260.648 378.354 264.059 376.432 266.52C374.521 268.969 371.809 270.217 368.293 270.264H367.783V265.975H368.117C370.062 265.963 371.521 265.459 372.494 264.463C373.479 263.467 374.07 262.014 374.27 260.104ZM372.072 257.818C373.033 257.818 373.789 257.162 374.34 255.85V253.564C374.34 251.889 374.111 250.576 373.654 249.627C373.197 248.666 372.605 248.186 371.879 248.186C371.164 248.186 370.584 248.66 370.139 249.609C369.705 250.547 369.488 251.695 369.488 253.055C369.488 254.531 369.717 255.697 370.174 256.553C370.631 257.396 371.264 257.818 372.072 257.818Z" fill="white"/>
<path d="M294.271 222.919C294.271 224.254 293.954 225.291 293.321 226.029C292.692 226.768 291.817 227.137 290.696 227.137C289.579 227.137 288.702 226.772 288.064 226.043C287.426 225.309 287.102 224.284 287.093 222.967V221.265C287.093 219.897 287.41 218.831 288.043 218.065C288.677 217.295 289.556 216.91 290.682 216.91C291.79 216.91 292.662 217.288 293.3 218.045C293.938 218.797 294.262 219.854 294.271 221.217V222.919ZM292.254 221.251C292.254 220.353 292.127 219.686 291.872 219.248C291.616 218.811 291.22 218.592 290.682 218.592C290.149 218.592 289.755 218.804 289.5 219.228C289.244 219.647 289.112 220.287 289.103 221.148V222.919C289.103 223.789 289.233 224.432 289.493 224.847C289.752 225.257 290.153 225.462 290.696 225.462C291.22 225.462 291.61 225.261 291.865 224.86C292.12 224.455 292.25 223.828 292.254 222.98V221.251Z" fill="white"/>
<path d="M308.598 223.363H307.6V227H305.59V217.047H308.796C309.803 217.047 310.58 217.309 311.127 217.833C311.679 218.353 311.954 219.093 311.954 220.055C311.954 221.376 311.474 222.301 310.512 222.83L312.255 226.904V227H310.095L308.598 223.363ZM307.6 221.688H308.742C309.143 221.688 309.443 221.556 309.644 221.292C309.844 221.023 309.945 220.665 309.945 220.219C309.945 219.221 309.555 218.722 308.776 218.722H307.6V221.688Z" fill="white"/>
</svg>
