<svg width="600" height="520" viewBox="0 0 600 520" fill="none" xmlns="http://www.w3.org/2000/svg">
<path d="M0 0H600V520H0V0Z" fill="#C4C4C4"/>
<path fill-rule="evenodd" clip-rule="evenodd" d="M314.866 248.964C315.789 248.041 315.789 246.545 314.866 245.622V245.622C313.943 244.699 312.447 244.699 311.524 245.622L303.072 254.073C301.51 255.635 298.978 255.635 297.416 254.073L288.964 245.622C288.041 244.699 286.545 244.699 285.622 245.622V245.622C284.699 246.545 284.699 248.041 285.622 248.964L294.073 257.415C295.636 258.977 295.636 261.51 294.073 263.072L285.622 271.524C284.699 272.447 284.699 273.943 285.622 274.866V274.866C286.545 275.789 288.041 275.789 288.964 274.866L297.416 266.414C298.978 264.852 301.51 264.852 303.072 266.414L311.524 274.866C312.447 275.789 313.943 275.789 314.866 274.866V274.866C315.789 273.943 315.789 272.446 314.866 271.524L306.415 263.072C304.852 261.51 304.852 258.977 306.415 257.415L314.866 248.964Z" fill="white"/>
<path d="M151.25 272C151.25 267.625 151.672 264.156 152.516 261.594C153.391 259 154.938 256.531 157.156 254.188C159.5 251.594 161.062 249.469 161.844 247.812C162.625 246.156 163.016 244.484 163.016 242.797C163.016 237.578 161.328 234.969 157.953 234.969C156.453 234.969 155.203 235.688 154.203 237.125C153.203 238.562 152.672 240.5 152.609 242.938H139.344C139.406 236.875 141.094 232.172 144.406 228.828C147.75 225.484 152.266 223.812 157.953 223.812C163.766 223.812 168.281 225.438 171.5 228.688C174.719 231.906 176.328 236.422 176.328 242.234C176.328 247.047 174.344 251.766 170.375 256.391L166.484 260.797C165.203 262.328 164.297 263.922 163.766 265.578C163.234 267.203 162.938 269.344 162.875 272H151.25ZM150.031 286.344C150.031 284.219 150.703 282.484 152.047 281.141C153.422 279.797 155.156 279.125 157.25 279.125C159.406 279.125 161.156 279.812 162.5 281.188C163.844 282.531 164.516 284.25 164.516 286.344C164.516 288.406 163.859 290.125 162.547 291.5C161.234 292.875 159.469 293.562 157.25 293.562C155.062 293.562 153.312 292.875 152 291.5C150.688 290.125 150.031 288.406 150.031 286.344Z" fill="white"/>
<path d="M194.281 272C194.281 267.625 194.703 264.156 195.547 261.594C196.422 259 197.969 256.531 200.188 254.188C202.531 251.594 204.094 249.469 204.875 247.812C205.656 246.156 206.047 244.484 206.047 242.797C206.047 237.578 204.359 234.969 200.984 234.969C199.484 234.969 198.234 235.688 197.234 237.125C196.234 238.562 195.703 240.5 195.641 242.938H182.375C182.438 236.875 184.125 232.172 187.438 228.828C190.781 225.484 195.297 223.812 200.984 223.812C206.797 223.812 211.312 225.438 214.531 228.688C217.75 231.906 219.359 236.422 219.359 242.234C219.359 247.047 217.375 251.766 213.406 256.391L209.516 260.797C208.234 262.328 207.328 263.922 206.797 265.578C206.266 267.203 205.969 269.344 205.906 272H194.281ZM193.062 286.344C193.062 284.219 193.734 282.484 195.078 281.141C196.453 279.797 198.188 279.125 200.281 279.125C202.438 279.125 204.188 279.812 205.531 281.188C206.875 282.531 207.547 284.25 207.547 286.344C207.547 288.406 206.891 290.125 205.578 291.5C204.266 292.875 202.5 293.562 200.281 293.562C198.094 293.562 196.344 292.875 195.031 291.5C193.719 290.125 193.062 288.406 193.062 286.344Z" fill="white"/>
<path d="M237.312 272C237.312 267.625 237.734 264.156 238.578 261.594C239.453 259 241 256.531 243.219 254.188C245.562 251.594 247.125 249.469 247.906 247.812C248.688 246.156 249.078 244.484 249.078 242.797C249.078 237.578 247.391 234.969 244.016 234.969C242.516 234.969 241.266 235.688 240.266 237.125C239.266 238.562 238.734 240.5 238.672 242.938H225.406C225.469 236.875 227.156 232.172 230.469 228.828C233.812 225.484 238.328 223.812 244.016 223.812C249.828 223.812 254.344 225.438 257.562 228.688C260.781 231.906 262.391 236.422 262.391 242.234C262.391 247.047 260.406 251.766 256.438 256.391L252.547 260.797C251.266 262.328 250.359 263.922 249.828 265.578C249.297 267.203 249 269.344 248.938 272H237.312ZM236.094 286.344C236.094 284.219 236.766 282.484 238.109 281.141C239.484 279.797 241.219 279.125 243.312 279.125C245.469 279.125 247.219 279.812 248.562 281.188C249.906 282.531 250.578 284.25 250.578 286.344C250.578 288.406 249.922 290.125 248.609 291.5C247.297 292.875 245.531 293.562 243.312 293.562C241.125 293.562 239.375 292.875 238.062 291.5C236.75 290.125 236.094 288.406 236.094 286.344Z" fill="white"/>
<path d="M346.719 272C346.719 267.625 347.141 264.156 347.984 261.594C348.859 259 350.406 256.531 352.625 254.188C354.969 251.594 356.531 249.469 357.312 247.812C358.094 246.156 358.484 244.484 358.484 242.797C358.484 237.578 356.797 234.969 353.422 234.969C351.922 234.969 350.672 235.688 349.672 237.125C348.672 238.562 348.141 240.5 348.078 242.938H334.812C334.875 236.875 336.562 232.172 339.875 228.828C343.219 225.484 347.734 223.812 353.422 223.812C359.234 223.812 363.75 225.438 366.969 228.688C370.188 231.906 371.797 236.422 371.797 242.234C371.797 247.047 369.812 251.766 365.844 256.391L361.953 260.797C360.672 262.328 359.766 263.922 359.234 265.578C358.703 267.203 358.406 269.344 358.344 272H346.719ZM345.5 286.344C345.5 284.219 346.172 282.484 347.516 281.141C348.891 279.797 350.625 279.125 352.719 279.125C354.875 279.125 356.625 279.812 357.969 281.188C359.312 282.531 359.984 284.25 359.984 286.344C359.984 288.406 359.328 290.125 358.016 291.5C356.703 292.875 354.938 293.562 352.719 293.562C350.531 293.562 348.781 292.875 347.469 291.5C346.156 290.125 345.5 288.406 345.5 286.344Z" fill="white"/>
<path d="M389.75 272C389.75 267.625 390.172 264.156 391.016 261.594C391.891 259 393.438 256.531 395.656 254.188C398 251.594 399.562 249.469 400.344 247.812C401.125 246.156 401.516 244.484 401.516 242.797C401.516 237.578 399.828 234.969 396.453 234.969C394.953 234.969 393.703 235.688 392.703 237.125C391.703 238.562 391.172 240.5 391.109 242.938H377.844C377.906 236.875 379.594 232.172 382.906 228.828C386.25 225.484 390.766 223.812 396.453 223.812C402.266 223.812 406.781 225.438 410 228.688C413.219 231.906 414.828 236.422 414.828 242.234C414.828 247.047 412.844 251.766 408.875 256.391L404.984 260.797C403.703 262.328 402.797 263.922 402.266 265.578C401.734 267.203 401.438 269.344 401.375 272H389.75ZM388.531 286.344C388.531 284.219 389.203 282.484 390.547 281.141C391.922 279.797 393.656 279.125 395.75 279.125C397.906 279.125 399.656 279.812 401 281.188C402.344 282.531 403.016 284.25 403.016 286.344C403.016 288.406 402.359 290.125 401.047 291.5C399.734 292.875 397.969 293.562 395.75 293.562C393.562 293.562 391.812 292.875 390.5 291.5C389.188 290.125 388.531 288.406 388.531 286.344Z" fill="white"/>
<path d="M432.781 272C432.781 267.625 433.203 264.156 434.047 261.594C434.922 259 436.469 256.531 438.688 254.188C441.031 251.594 442.594 249.469 443.375 247.812C444.156 246.156 444.547 244.484 444.547 242.797C444.547 237.578 442.859 234.969 439.484 234.969C437.984 234.969 436.734 235.688 435.734 237.125C434.734 238.562 434.203 240.5 434.141 242.938H420.875C420.938 236.875 422.625 232.172 425.938 228.828C429.281 225.484 433.797 223.812 439.484 223.812C445.297 223.812 449.812 225.438 453.031 228.688C456.25 231.906 457.859 236.422 457.859 242.234C457.859 247.047 455.875 251.766 451.906 256.391L448.016 260.797C446.734 262.328 445.828 263.922 445.297 265.578C444.766 267.203 444.469 269.344 444.406 272H432.781ZM431.562 286.344C431.562 284.219 432.234 282.484 433.578 281.141C434.953 279.797 436.688 279.125 438.781 279.125C440.938 279.125 442.688 279.812 444.031 281.188C445.375 282.531 446.047 284.25 446.047 286.344C446.047 288.406 445.391 290.125 444.078 291.5C442.766 292.875 441 293.562 438.781 293.562C436.594 293.562 434.844 292.875 433.531 291.5C432.219 290.125 431.562 288.406 431.562 286.344Z" fill="white"/>
</svg>
