<svg width="55" height="108" viewBox="0 0 55 108" fill="none" xmlns="http://www.w3.org/2000/svg">
<path d="M0 0H55V108H0V0Z" fill="#6F6F6F"/>
<path d="M21.8086 81.5781L21.8086 85.7969L36 85.7969L36 89.2539L21.8086 89.2539L21.8086 93.4023L18.9375 93.4023L18.9375 81.5781L21.8086 81.5781Z" fill="white"/>
<path d="M29.0039 67.9141C31.293 67.9141 33.0703 68.457 34.3359 69.543C35.6016 70.6211 36.2344 72.1211 36.2344 74.043C36.2344 75.957 35.6094 77.4609 34.3594 78.5547C33.1016 79.6484 31.3437 80.2031 29.0859 80.2187L26.168 80.2187C23.8242 80.2187 21.9961 79.6758 20.6836 78.5898C19.3633 77.5039 18.7031 75.9961 18.7031 74.0664C18.7031 72.168 19.3516 70.6719 20.6484 69.5781C21.9375 68.4844 23.75 67.9297 26.0859 67.9141L29.0039 67.9141ZM26.1445 71.3711C24.6055 71.3711 23.4609 71.5898 22.7109 72.0273C21.9609 72.4648 21.5859 73.1445 21.5859 74.0664C21.5859 74.9805 21.9492 75.6562 22.6758 76.0937C23.3945 76.5312 24.4922 76.7578 25.9687 76.7734L29.0039 76.7734C30.4961 76.7734 31.5977 76.5508 32.3086 76.1055C33.0117 75.6602 33.3633 74.9727 33.3633 74.043C33.3633 73.1445 33.0195 72.4766 32.332 72.0391C31.6367 71.6016 30.5625 71.3789 29.1094 71.3711L26.1445 71.3711Z" fill="white"/>
<path d="M34.0664 53.8398C34.7852 54.5039 35.3281 55.3203 35.6953 56.2891C36.0547 57.25 36.2344 58.3047 36.2344 59.4531C36.2344 61.4141 35.6289 62.9375 34.418 64.0234C33.1992 65.1094 31.4297 65.668 29.1094 65.6992L26.0391 65.6992C23.6875 65.6992 21.8789 65.1875 20.6133 64.1641C19.3398 63.1328 18.7031 61.6328 18.7031 59.6641C18.7031 57.8125 19.1602 56.418 20.0742 55.4805C20.9883 54.5352 22.4219 53.9883 24.375 53.8398L24.375 57.1914C23.2891 57.2852 22.5508 57.5117 22.1602 57.8711C21.7617 58.2305 21.5625 58.793 21.5625 59.5586C21.5625 60.4883 21.9023 61.1641 22.582 61.5859C23.2617 62.0078 24.3437 62.2266 25.8281 62.2422L28.9219 62.2422C30.4766 62.2422 31.6094 62.0117 32.3203 61.5508C33.0234 61.082 33.375 60.3164 33.375 59.2539C33.375 58.5742 33.2383 58.0234 32.9648 57.6016L32.7539 57.2969L29.625 57.2969L29.625 59.7109L27.0234 59.7109L27.0234 53.8398L34.0664 53.8398Z" fill="white"/>
<path d="M34.0664 39.8008C34.7852 40.4648 35.3281 41.2812 35.6953 42.25C36.0547 43.2109 36.2344 44.2656 36.2344 45.4141C36.2344 47.375 35.6289 48.8984 34.418 49.9844C33.1992 51.0703 31.4297 51.6289 29.1094 51.6602L26.0391 51.6602C23.6875 51.6602 21.8789 51.1484 20.6133 50.125C19.3398 49.0937 18.7031 47.5938 18.7031 45.625C18.7031 43.7734 19.1602 42.3789 20.0742 41.4414C20.9883 40.4961 22.4219 39.9492 24.375 39.8008L24.375 43.1523C23.2891 43.2461 22.5508 43.4727 22.1602 43.832C21.7617 44.1914 21.5625 44.7539 21.5625 45.5195C21.5625 46.4492 21.9023 47.125 22.582 47.5469C23.2617 47.9687 24.3437 48.1875 25.8281 48.2031L28.9219 48.2031C30.4766 48.2031 31.6094 47.9727 32.3203 47.5117C33.0234 47.043 33.375 46.2773 33.375 45.2148C33.375 44.5352 33.2383 43.9844 32.9648 43.5625L32.7539 43.2578L29.625 43.2578L29.625 45.6719L27.0234 45.6719L27.0234 39.8008L34.0664 39.8008Z" fill="white"/>
<path d="M33.1406 33.918L33.1406 27.8711L36 27.8711L36 37.3633L18.9375 37.3633L18.9375 33.918L33.1406 33.918Z" fill="white"/>
<path d="M28.6172 17.0664L28.6172 22.4336L33.1406 22.4336L33.1406 16.082L36 16.082L36 25.8789L18.9375 25.8789L18.9375 16.1055L21.8086 16.1055L21.8086 22.4336L25.8398 22.4336L25.8398 17.0664L28.6172 17.0664Z" fill="white"/>
</svg>
