<svg width="350" height="254" viewBox="0 0 350 254" fill="none" xmlns="http://www.w3.org/2000/svg">
<path d="M0 0H350V254H0V0Z" fill="#C4C4C4"/>
<path d="M115.34 138V112.406H123.25C125.922 112.406 127.949 113.004 129.332 114.199C130.727 115.383 131.424 117.123 131.424 119.42C131.424 120.721 131.137 121.84 130.562 122.777C129.988 123.715 129.203 124.4 128.207 124.834C129.355 125.162 130.24 125.824 130.861 126.82C131.482 127.805 131.793 129.023 131.793 130.477C131.793 132.961 131.107 134.836 129.736 136.102C128.377 137.367 126.402 138 123.812 138H115.34ZM120.508 126.873V133.711H123.812C124.738 133.711 125.441 133.424 125.922 132.85C126.402 132.275 126.643 131.461 126.643 130.406C126.643 128.109 125.811 126.932 124.146 126.873H120.508ZM120.508 123.111H123.197C125.225 123.111 126.238 122.062 126.238 119.965C126.238 118.805 126.004 117.973 125.535 117.469C125.066 116.965 124.305 116.713 123.25 116.713H120.508V123.111Z" fill="white"/>
<path d="M152.201 112.406V130.125C152.178 132.785 151.445 134.824 150.004 136.242C148.562 137.648 146.494 138.352 143.799 138.352C141.057 138.352 138.959 137.637 137.506 136.207C136.064 134.777 135.344 132.709 135.344 130.002V112.406H140.547V130.02C140.547 131.473 140.781 132.51 141.25 133.131C141.719 133.752 142.568 134.062 143.799 134.062C145.029 134.062 145.873 133.758 146.33 133.148C146.787 132.527 147.021 131.514 147.033 130.107V112.406H152.201Z" fill="white"/>
<path d="M172.697 116.713H166.369V138H161.184V116.713H154.961V112.406H172.697V116.713Z" fill="white"/>
<path d="M192.525 116.713H186.197V138H181.012V116.713H174.789V112.406H192.525V116.713Z" fill="white"/>
<path d="M213.021 127.506C213.021 130.939 212.207 133.605 210.578 135.504C208.961 137.402 206.711 138.352 203.828 138.352C200.957 138.352 198.701 137.414 197.061 135.539C195.42 133.652 194.588 131.016 194.564 127.629V123.252C194.564 119.736 195.379 116.994 197.008 115.025C198.637 113.045 200.898 112.055 203.793 112.055C206.641 112.055 208.885 113.027 210.525 114.973C212.166 116.906 212.998 119.625 213.021 123.129V127.506ZM207.836 123.217C207.836 120.908 207.508 119.191 206.852 118.066C206.195 116.941 205.176 116.379 203.793 116.379C202.422 116.379 201.408 116.924 200.752 118.014C200.096 119.092 199.756 120.738 199.732 122.953V127.506C199.732 129.744 200.066 131.396 200.734 132.463C201.402 133.518 202.434 134.045 203.828 134.045C205.176 134.045 206.178 133.529 206.834 132.498C207.49 131.455 207.824 129.844 207.836 127.664V123.217Z" fill="white"/>
<path d="M234.625 138H229.457L221.898 121.213V138H216.73V112.406H221.898L229.475 129.211V112.406H234.625V138Z" fill="white"/>
</svg>
