<svg width="350" height="108" viewBox="0 0 350 108" fill="none" xmlns="http://www.w3.org/2000/svg">
<rect width="350" height="108" fill="#C4C4C4"/>
<path d="M129.057 66V40.4062H136.967C139.639 40.4062 141.666 41.0039 143.049 42.1992C144.443 43.3828 145.141 45.123 145.141 47.4199C145.141 48.7207 144.854 49.8398 144.279 50.7773C143.705 51.7148 142.92 52.4004 141.924 52.834C143.072 53.1621 143.957 53.8242 144.578 54.8203C145.199 55.8047 145.51 57.0234 145.51 58.4766C145.51 60.9609 144.824 62.8359 143.453 64.1016C142.094 65.3672 140.119 66 137.529 66H129.057ZM134.225 54.873V61.7109H137.529C138.455 61.7109 139.158 61.4238 139.639 60.8496C140.119 60.2754 140.359 59.4609 140.359 58.4062C140.359 56.1094 139.527 54.9316 137.863 54.873H134.225ZM134.225 51.1113H136.914C138.941 51.1113 139.955 50.0625 139.955 47.9648C139.955 46.8047 139.721 45.9727 139.252 45.4688C138.783 44.9648 138.021 44.7129 136.967 44.7129H134.225V51.1113Z" fill="white"/>
<path d="M158.377 64.2598C157.346 65.6543 155.963 66.3516 154.229 66.3516C152.482 66.3516 151.158 65.7539 150.256 64.5586C149.354 63.3516 148.902 61.5996 148.902 59.3027V46.9805H153.877V59.4258C153.9 61.2773 154.516 62.2031 155.723 62.2031C156.859 62.2031 157.68 61.7109 158.184 60.7266V46.9805H163.193V66H158.518L158.377 64.2598Z" fill="white"/>
<path d="M172.527 42.3047V46.9805H175.076V50.7246H172.527V60.1641C172.527 60.9141 172.627 61.4297 172.826 61.7109C173.037 61.9922 173.436 62.1328 174.021 62.1328C174.502 62.1328 174.895 62.0918 175.199 62.0098L175.164 65.877C174.32 66.1934 173.406 66.3516 172.422 66.3516C169.211 66.3516 167.588 64.5117 167.553 60.832V50.7246H165.355V46.9805H167.553V42.3047H172.527Z" fill="white"/>
<path d="M183.602 42.3047V46.9805H186.15V50.7246H183.602V60.1641C183.602 60.9141 183.701 61.4297 183.9 61.7109C184.111 61.9922 184.51 62.1328 185.096 62.1328C185.576 62.1328 185.969 62.0918 186.273 62.0098L186.238 65.877C185.395 66.1934 184.48 66.3516 183.496 66.3516C180.285 66.3516 178.662 64.5117 178.627 60.832V50.7246H176.43V46.9805H178.627V42.3047H183.602Z" fill="white"/>
<path d="M187.785 55.875C187.785 52.9922 188.465 50.7305 189.824 49.0898C191.184 47.4492 193.064 46.6289 195.467 46.6289C197.893 46.6289 199.785 47.4492 201.145 49.0898C202.504 50.7305 203.184 53.0039 203.184 55.9102V57.123C203.184 60.0176 202.51 62.2793 201.162 63.9082C199.814 65.5371 197.928 66.3516 195.502 66.3516C193.064 66.3516 191.166 65.5371 189.807 63.9082C188.459 62.2676 187.785 59.9941 187.785 57.0879V55.875ZM192.777 57.123C192.777 60.5215 193.686 62.2207 195.502 62.2207C197.178 62.2207 198.08 60.8027 198.209 57.9668L198.227 55.875C198.227 54.1406 197.986 52.8574 197.506 52.0254C197.025 51.1816 196.346 50.7598 195.467 50.7598C194.623 50.7598 193.961 51.1816 193.48 52.0254C193.012 52.8574 192.777 54.1406 192.777 55.875V57.123Z" fill="white"/>
<path d="M210.848 46.9805L210.988 48.8613C212.113 47.373 213.584 46.6289 215.4 46.6289C218.67 46.6289 220.352 48.9199 220.445 53.502V66H215.453V53.8711C215.453 52.793 215.289 52.0137 214.961 51.5332C214.645 51.041 214.082 50.7949 213.273 50.7949C212.371 50.7949 211.668 51.2578 211.164 52.1836V66H206.172V46.9805H210.848Z" fill="white"/>
</svg>
