<svg width="2100" height="400" viewBox="0 0 2100 400" fill="none" xmlns="http://www.w3.org/2000/svg">
<path d="M0 0H2100V400H0V0Z" fill="#C4C4C4"/>
<path d="M480 0H0V400H480V0Z" fill="url(#paint0_linear)"/>
<path d="M1620 0H2100V400H1620V0Z" fill="url(#paint1_linear)"/>
<path d="M963.828 323H957.172V296.938L950.68 299.445V293.914L963.125 288.828H963.828V323Z" fill="white" fill-opacity="0.2"/>
<path d="M988.109 323H981.453V296.938L974.961 299.445V293.914L987.406 288.828H988.109V323Z" fill="white" fill-opacity="0.2"/>
<path d="M1015.27 310.109H1018.18V315.617H1015.27V323H1008.64V315.617H997.344L997.039 311.328L1008.62 288.875H1015.27V310.109ZM1003.48 310.109H1008.64V298.695L1008.5 298.953L1003.48 310.109Z" fill="white" fill-opacity="0.2"/>
<path d="M1041.9 308.891C1041.9 313.609 1041.04 317.219 1039.32 319.719C1037.62 322.219 1035.18 323.469 1032.01 323.469C1028.87 323.469 1026.44 322.258 1024.72 319.836C1023.02 317.398 1022.13 313.914 1022.07 309.383V302.938C1022.07 298.234 1022.92 294.641 1024.62 292.156C1026.33 289.656 1028.77 288.406 1031.96 288.406C1035.15 288.406 1037.59 289.641 1039.3 292.109C1041 294.578 1041.87 298.102 1041.9 302.68V308.891ZM1035.24 301.977C1035.24 299.289 1034.98 297.273 1034.45 295.93C1033.91 294.586 1033.09 293.914 1031.96 293.914C1029.85 293.914 1028.76 296.375 1028.68 301.297V309.805C1028.68 312.555 1028.95 314.602 1029.48 315.945C1030.02 317.289 1030.87 317.961 1032.01 317.961C1033.09 317.961 1033.88 317.336 1034.4 316.086C1034.93 314.82 1035.21 312.891 1035.24 310.297V301.977Z" fill="white" fill-opacity="0.2"/>
<path d="M1095.5 312.5C1095.5 310.312 1095.71 308.578 1096.13 307.297C1096.57 306 1097.34 304.766 1098.45 303.594C1099.62 302.297 1100.41 301.234 1100.8 300.406C1101.19 299.578 1101.38 298.742 1101.38 297.898C1101.38 295.289 1100.54 293.984 1098.85 293.984C1098.1 293.984 1097.48 294.344 1096.98 295.062C1096.48 295.781 1096.21 296.75 1096.18 297.969H1089.55C1089.58 294.938 1090.42 292.586 1092.08 290.914C1093.75 289.242 1096.01 288.406 1098.85 288.406C1101.76 288.406 1104.02 289.219 1105.62 290.844C1107.23 292.453 1108.04 294.711 1108.04 297.617C1108.04 300.023 1107.05 302.383 1105.06 304.695L1103.12 306.898C1102.48 307.664 1102.02 308.461 1101.76 309.289C1101.49 310.102 1101.34 311.172 1101.31 312.5H1095.5ZM1094.89 319.672C1094.89 318.609 1095.23 317.742 1095.9 317.07C1096.59 316.398 1097.45 316.062 1098.5 316.062C1099.58 316.062 1100.45 316.406 1101.12 317.094C1101.8 317.766 1102.13 318.625 1102.13 319.672C1102.13 320.703 1101.8 321.562 1101.15 322.25C1100.49 322.938 1099.61 323.281 1098.5 323.281C1097.41 323.281 1096.53 322.938 1095.88 322.25C1095.22 321.562 1094.89 320.703 1094.89 319.672Z" fill="white" fill-opacity="0.2"/>
<path d="M1117.02 312.5C1117.02 310.312 1117.23 308.578 1117.65 307.297C1118.09 306 1118.86 304.766 1119.97 303.594C1121.14 302.297 1121.92 301.234 1122.31 300.406C1122.7 299.578 1122.9 298.742 1122.9 297.898C1122.9 295.289 1122.05 293.984 1120.37 293.984C1119.62 293.984 1118.99 294.344 1118.49 295.062C1117.99 295.781 1117.73 296.75 1117.7 297.969H1111.06C1111.09 294.938 1111.94 292.586 1113.59 290.914C1115.27 289.242 1117.52 288.406 1120.37 288.406C1123.27 288.406 1125.53 289.219 1127.14 290.844C1128.75 292.453 1129.55 294.711 1129.55 297.617C1129.55 300.023 1128.56 302.383 1126.58 304.695L1124.63 306.898C1123.99 307.664 1123.54 308.461 1123.27 309.289C1123.01 310.102 1122.86 311.172 1122.83 312.5H1117.02ZM1116.41 319.672C1116.41 318.609 1116.74 317.742 1117.41 317.07C1118.1 316.398 1118.97 316.062 1120.02 316.062C1121.09 316.062 1121.97 316.406 1122.64 317.094C1123.31 317.766 1123.65 318.625 1123.65 319.672C1123.65 320.703 1123.32 321.562 1122.66 322.25C1122.01 322.938 1121.12 323.281 1120.02 323.281C1118.92 323.281 1118.05 322.938 1117.39 322.25C1116.73 321.562 1116.41 320.703 1116.41 319.672Z" fill="white" fill-opacity="0.2"/>
<path d="M1138.53 312.5C1138.53 310.312 1138.74 308.578 1139.16 307.297C1139.6 306 1140.38 304.766 1141.48 303.594C1142.66 302.297 1143.44 301.234 1143.83 300.406C1144.22 299.578 1144.41 298.742 1144.41 297.898C1144.41 295.289 1143.57 293.984 1141.88 293.984C1141.13 293.984 1140.51 294.344 1140.01 295.062C1139.51 295.781 1139.24 296.75 1139.21 297.969H1132.58C1132.61 294.938 1133.45 292.586 1135.11 290.914C1136.78 289.242 1139.04 288.406 1141.88 288.406C1144.79 288.406 1147.05 289.219 1148.66 290.844C1150.27 292.453 1151.07 294.711 1151.07 297.617C1151.07 300.023 1150.08 302.383 1148.09 304.695L1146.15 306.898C1145.51 307.664 1145.05 308.461 1144.79 309.289C1144.52 310.102 1144.38 311.172 1144.34 312.5H1138.53ZM1137.92 319.672C1137.92 318.609 1138.26 317.742 1138.93 317.07C1139.62 316.398 1140.48 316.062 1141.53 316.062C1142.61 316.062 1143.48 316.406 1144.16 317.094C1144.83 317.766 1145.16 318.625 1145.16 319.672C1145.16 320.703 1144.84 321.562 1144.18 322.25C1143.52 322.938 1142.64 323.281 1141.53 323.281C1140.44 323.281 1139.56 322.938 1138.91 322.25C1138.25 321.562 1137.92 320.703 1137.92 319.672Z" fill="white" fill-opacity="0.2"/>
<path fill-rule="evenodd" clip-rule="evenodd" d="M1074.36 300.974C1074.87 300.462 1074.87 299.631 1074.36 299.118V299.118C1073.84 298.606 1073.01 298.606 1072.5 299.118L1069.07 302.553C1067.5 304.115 1064.97 304.115 1063.41 302.553L1059.97 299.118C1059.46 298.606 1058.63 298.606 1058.12 299.118V299.118C1057.61 299.631 1057.61 300.462 1058.12 300.974L1061.55 304.408C1063.11 305.97 1063.11 308.503 1061.55 310.065L1058.12 313.5C1057.61 314.012 1057.61 314.843 1058.12 315.355V315.355C1058.63 315.868 1059.46 315.868 1059.97 315.355L1063.41 311.921C1064.97 310.359 1067.5 310.359 1069.07 311.921L1072.5 315.355C1073.01 315.868 1073.84 315.868 1074.36 315.355V315.355C1074.87 314.843 1074.87 314.012 1074.36 313.5L1070.92 310.065C1069.36 308.503 1069.36 305.97 1070.92 304.408L1074.36 300.974Z" fill="white" fill-opacity="0.2"/>
<path d="M983.004 270.389C983.004 269.983 982.899 269.678 982.689 269.473C982.484 269.263 982.108 269.047 981.562 268.823C980.563 268.445 979.846 268.003 979.408 267.497C978.971 266.987 978.752 266.385 978.752 265.692C978.752 264.854 979.048 264.182 979.641 263.676C980.238 263.165 980.994 262.91 981.91 262.91C982.521 262.91 983.065 263.04 983.544 263.3C984.022 263.555 984.389 263.917 984.645 264.387C984.904 264.856 985.034 265.389 985.034 265.986H983.031C983.031 265.521 982.931 265.168 982.73 264.927C982.535 264.681 982.25 264.558 981.876 264.558C981.525 264.558 981.252 264.662 981.056 264.872C980.86 265.077 980.762 265.355 980.762 265.706C980.762 265.979 980.871 266.228 981.09 266.451C981.309 266.67 981.696 266.898 982.252 267.135C983.223 267.486 983.927 267.916 984.364 268.427C984.806 268.937 985.027 269.587 985.027 270.375C985.027 271.241 984.752 271.918 984.2 272.405C983.649 272.893 982.899 273.137 981.951 273.137C981.309 273.137 980.723 273.005 980.194 272.74C979.666 272.476 979.251 272.098 978.95 271.605C978.654 271.113 978.506 270.532 978.506 269.862H980.522C980.522 270.437 980.634 270.854 980.857 271.113C981.081 271.373 981.445 271.503 981.951 271.503C982.653 271.503 983.004 271.132 983.004 270.389Z" fill="#F7F7F7" fill-opacity="0.3"/>
<path d="M1000.98 270.963H998.24L997.707 273H995.581L998.691 263.047H1000.53L1003.66 273H1001.51L1000.98 270.963ZM998.678 269.288H1000.54L999.607 265.74L998.678 269.288Z" fill="#F7F7F7" fill-opacity="0.3"/>
<path d="M1019.6 268.939H1016.48V273H1014.47V263.047H1019.98V264.722H1016.48V267.271H1019.6V268.939Z" fill="#F7F7F7" fill-opacity="0.3"/>
<path d="M1036.14 268.693H1033.01V271.332H1036.71V273H1031V263.047H1036.7V264.722H1033.01V267.073H1036.14V268.693Z" fill="#F7F7F7" fill-opacity="0.3"/>
<path d="M1051.13 269.541H1047.78V267.928H1051.13V269.541Z" fill="#F7F7F7" fill-opacity="0.3"/>
<path d="M1064.78 271.332H1068.89V273H1062.43V271.79L1066.49 264.722H1062.39V263.047H1068.81V264.229L1064.78 271.332Z" fill="#F7F7F7" fill-opacity="0.3"/>
<path d="M1086.82 268.919C1086.82 270.254 1086.5 271.291 1085.87 272.029C1085.24 272.768 1084.37 273.137 1083.25 273.137C1082.13 273.137 1081.25 272.772 1080.61 272.043C1079.98 271.309 1079.65 270.284 1079.64 268.967V267.265C1079.64 265.897 1079.96 264.831 1080.59 264.065C1081.23 263.295 1082.11 262.91 1083.23 262.91C1084.34 262.91 1085.21 263.288 1085.85 264.045C1086.49 264.797 1086.81 265.854 1086.82 267.217V268.919ZM1084.8 267.251C1084.8 266.353 1084.68 265.686 1084.42 265.248C1084.17 264.811 1083.77 264.592 1083.23 264.592C1082.7 264.592 1082.31 264.804 1082.05 265.228C1081.79 265.647 1081.66 266.287 1081.65 267.148V268.919C1081.65 269.789 1081.78 270.432 1082.04 270.847C1082.3 271.257 1082.7 271.462 1083.25 271.462C1083.77 271.462 1084.16 271.261 1084.42 270.86C1084.67 270.455 1084.8 269.828 1084.8 268.98V267.251Z" fill="#F7F7F7" fill-opacity="0.3"/>
<path d="M1105.09 273H1103.08L1100.14 266.472V273H1098.13V263.047H1100.14L1103.09 269.582V263.047H1105.09V273Z" fill="#F7F7F7" fill-opacity="0.3"/>
<path d="M1121.72 268.693H1118.59V271.332H1122.29V273H1116.58V263.047H1122.28V264.722H1118.59V267.073H1121.72V268.693Z" fill="#F7F7F7" fill-opacity="0.3"/>
<path d="M899.672 154H859.453V144.625L877.922 121.141C880.266 117.891 881.984 115.047 883.078 112.609C884.203 110.141 884.766 107.781 884.766 105.531C884.766 102.5 884.234 100.125 883.172 98.4062C882.141 96.6875 880.641 95.8281 878.672 95.8281C876.516 95.8281 874.797 96.8281 873.516 98.8281C872.266 100.828 871.641 103.641 871.641 107.266H858.328C858.328 103.078 859.188 99.25 860.906 95.7812C862.656 92.3125 865.094 89.625 868.219 87.7188C871.375 85.7812 874.938 84.8125 878.906 84.8125C885 84.8125 889.719 86.5 893.062 89.875C896.438 93.2188 898.125 97.9844 898.125 104.172C898.125 108.016 897.188 111.922 895.312 115.891C893.469 119.828 890.109 124.688 885.234 130.469L876.469 142.984H899.672V154Z" fill="white" fill-opacity="0.2"/>
<path d="M937.219 154H923.906V101.875L910.922 106.891V95.8281L935.812 85.6562H937.219V154Z" fill="white" fill-opacity="0.2"/>
<path d="M996.234 125.781C996.234 135.219 994.516 142.438 991.078 147.438C987.672 152.438 982.797 154.938 976.453 154.938C970.172 154.938 965.312 152.516 961.875 147.672C958.469 142.797 956.703 135.828 956.578 126.766V113.875C956.578 104.469 958.281 97.2812 961.688 92.3125C965.094 87.3125 969.984 84.8125 976.359 84.8125C982.734 84.8125 987.625 87.2812 991.031 92.2188C994.438 97.1562 996.172 104.203 996.234 113.359V125.781ZM982.922 111.953C982.922 106.578 982.391 102.547 981.328 99.8594C980.266 97.1719 978.609 95.8281 976.359 95.8281C972.141 95.8281 969.953 100.75 969.797 110.594V127.609C969.797 133.109 970.328 137.203 971.391 139.891C972.484 142.578 974.172 143.922 976.453 143.922C978.609 143.922 980.203 142.672 981.234 140.172C982.297 137.641 982.859 133.781 982.922 128.594V111.953Z" fill="white" fill-opacity="0.2"/>
<path d="M1044.8 125.781C1044.8 135.219 1043.08 142.438 1039.64 147.438C1036.23 152.438 1031.36 154.938 1025.02 154.938C1018.73 154.938 1013.88 152.516 1010.44 147.672C1007.03 142.797 1005.27 135.828 1005.14 126.766V113.875C1005.14 104.469 1006.84 97.2812 1010.25 92.3125C1013.66 87.3125 1018.55 84.8125 1024.92 84.8125C1031.3 84.8125 1036.19 87.2812 1039.59 92.2188C1043 97.1562 1044.73 104.203 1044.8 113.359V125.781ZM1031.48 111.953C1031.48 106.578 1030.95 102.547 1029.89 99.8594C1028.83 97.1719 1027.17 95.8281 1024.92 95.8281C1020.7 95.8281 1018.52 100.75 1018.36 110.594V127.609C1018.36 133.109 1018.89 137.203 1019.95 139.891C1021.05 142.578 1022.73 143.922 1025.02 143.922C1027.17 143.922 1028.77 142.672 1029.8 140.172C1030.86 137.641 1031.42 133.781 1031.48 128.594V111.953Z" fill="white" fill-opacity="0.2"/>
<path d="M1129.88 133C1129.88 128.625 1130.3 125.156 1131.14 122.594C1132.02 120 1133.56 117.531 1135.78 115.188C1138.12 112.594 1139.69 110.469 1140.47 108.812C1141.25 107.156 1141.64 105.484 1141.64 103.797C1141.64 98.5781 1139.95 95.9688 1136.58 95.9688C1135.08 95.9688 1133.83 96.6875 1132.83 98.125C1131.83 99.5625 1131.3 101.5 1131.23 103.938H1117.97C1118.03 97.875 1119.72 93.1719 1123.03 89.8281C1126.38 86.4844 1130.89 84.8125 1136.58 84.8125C1142.39 84.8125 1146.91 86.4375 1150.12 89.6875C1153.34 92.9062 1154.95 97.4219 1154.95 103.234C1154.95 108.047 1152.97 112.766 1149 117.391L1145.11 121.797C1143.83 123.328 1142.92 124.922 1142.39 126.578C1141.86 128.203 1141.56 130.344 1141.5 133H1129.88ZM1128.66 147.344C1128.66 145.219 1129.33 143.484 1130.67 142.141C1132.05 140.797 1133.78 140.125 1135.88 140.125C1138.03 140.125 1139.78 140.812 1141.12 142.188C1142.47 143.531 1143.14 145.25 1143.14 147.344C1143.14 149.406 1142.48 151.125 1141.17 152.5C1139.86 153.875 1138.09 154.562 1135.88 154.562C1133.69 154.562 1131.94 153.875 1130.62 152.5C1129.31 151.125 1128.66 149.406 1128.66 147.344Z" fill="white" fill-opacity="0.2"/>
<path d="M1172.91 133C1172.91 128.625 1173.33 125.156 1174.17 122.594C1175.05 120 1176.59 117.531 1178.81 115.188C1181.16 112.594 1182.72 110.469 1183.5 108.812C1184.28 107.156 1184.67 105.484 1184.67 103.797C1184.67 98.5781 1182.98 95.9688 1179.61 95.9688C1178.11 95.9688 1176.86 96.6875 1175.86 98.125C1174.86 99.5625 1174.33 101.5 1174.27 103.938H1161C1161.06 97.875 1162.75 93.1719 1166.06 89.8281C1169.41 86.4844 1173.92 84.8125 1179.61 84.8125C1185.42 84.8125 1189.94 86.4375 1193.16 89.6875C1196.38 92.9062 1197.98 97.4219 1197.98 103.234C1197.98 108.047 1196 112.766 1192.03 117.391L1188.14 121.797C1186.86 123.328 1185.95 124.922 1185.42 126.578C1184.89 128.203 1184.59 130.344 1184.53 133H1172.91ZM1171.69 147.344C1171.69 145.219 1172.36 143.484 1173.7 142.141C1175.08 140.797 1176.81 140.125 1178.91 140.125C1181.06 140.125 1182.81 140.812 1184.16 142.188C1185.5 143.531 1186.17 145.25 1186.17 147.344C1186.17 149.406 1185.52 151.125 1184.2 152.5C1182.89 153.875 1181.12 154.562 1178.91 154.562C1176.72 154.562 1174.97 153.875 1173.66 152.5C1172.34 151.125 1171.69 149.406 1171.69 147.344Z" fill="white" fill-opacity="0.2"/>
<path d="M1215.94 133C1215.94 128.625 1216.36 125.156 1217.2 122.594C1218.08 120 1219.62 117.531 1221.84 115.188C1224.19 112.594 1225.75 110.469 1226.53 108.812C1227.31 107.156 1227.7 105.484 1227.7 103.797C1227.7 98.5781 1226.02 95.9688 1222.64 95.9688C1221.14 95.9688 1219.89 96.6875 1218.89 98.125C1217.89 99.5625 1217.36 101.5 1217.3 103.938H1204.03C1204.09 97.875 1205.78 93.1719 1209.09 89.8281C1212.44 86.4844 1216.95 84.8125 1222.64 84.8125C1228.45 84.8125 1232.97 86.4375 1236.19 89.6875C1239.41 92.9062 1241.02 97.4219 1241.02 103.234C1241.02 108.047 1239.03 112.766 1235.06 117.391L1231.17 121.797C1229.89 123.328 1228.98 124.922 1228.45 126.578C1227.92 128.203 1227.62 130.344 1227.56 133H1215.94ZM1214.72 147.344C1214.72 145.219 1215.39 143.484 1216.73 142.141C1218.11 140.797 1219.84 140.125 1221.94 140.125C1224.09 140.125 1225.84 140.812 1227.19 142.188C1228.53 143.531 1229.2 145.25 1229.2 147.344C1229.2 149.406 1228.55 151.125 1227.23 152.5C1225.92 153.875 1224.16 154.562 1221.94 154.562C1219.75 154.562 1218 153.875 1216.69 152.5C1215.38 151.125 1214.72 149.406 1214.72 147.344Z" fill="white" fill-opacity="0.2"/>
<path fill-rule="evenodd" clip-rule="evenodd" d="M1096.87 109.964C1097.79 109.041 1097.79 107.545 1096.87 106.622V106.622C1095.94 105.699 1094.45 105.699 1093.52 106.622L1085.07 115.073C1083.51 116.635 1080.98 116.635 1079.42 115.073L1070.96 106.622C1070.04 105.699 1068.55 105.699 1067.62 106.622V106.622C1066.7 107.545 1066.7 109.041 1067.62 109.964L1076.07 118.415C1077.64 119.977 1077.64 122.51 1076.07 124.072L1067.62 132.524C1066.7 133.447 1066.7 134.943 1067.62 135.866V135.866C1068.55 136.789 1070.04 136.789 1070.96 135.866L1079.42 127.414C1080.98 125.852 1083.51 125.852 1085.07 127.414L1093.52 135.866C1094.45 136.789 1095.94 136.789 1096.87 135.866V135.866C1097.79 134.943 1097.79 133.446 1096.87 132.524L1088.41 124.072C1086.85 122.51 1086.85 119.977 1088.41 118.415L1096.87 109.964Z" fill="white" fill-opacity="0.2"/>
<path d="M449.152 331.167L449.152 334.806L461 334.806L461 335.816L449.152 335.816L449.152 339.446L448.203 339.446L448.203 331.167L449.152 331.167Z" fill="#DADADA"/>
<path d="M461 321.077L461 322.088L454.874 322.088L454.874 328.1L461 328.1L461 329.102L448.203 329.102L448.203 328.1L453.942 328.1L453.942 322.088L448.203 322.088L448.203 321.077L461 321.077Z" fill="#DADADA"/>
<path d="M461 316.841L461 317.843L448.203 317.843L448.203 316.841L461 316.841Z" fill="#DADADA"/>
<path d="M457.854 307.621C457.139 307.621 456.576 307.826 456.166 308.236C455.756 308.641 455.363 309.399 454.988 310.513C454.613 311.626 454.194 312.443 453.731 312.965C453.128 313.65 452.331 313.993 451.341 313.993C450.362 313.993 449.565 313.656 448.95 312.982C448.335 312.309 448.027 311.438 448.027 310.372C448.027 309.282 448.385 308.392 449.1 307.7C449.814 307.009 450.734 306.663 451.859 306.663L451.859 307.674C450.998 307.674 450.304 307.917 449.776 308.403C449.243 308.884 448.977 309.54 448.977 310.372C448.977 311.181 449.196 311.819 449.636 312.288C450.069 312.751 450.632 312.982 451.323 312.982C451.968 312.982 452.495 312.763 452.905 312.323C453.315 311.884 453.682 311.184 454.004 310.223C454.32 309.262 454.651 308.535 454.997 308.043C455.337 307.551 455.738 307.187 456.201 306.953C456.664 306.719 457.209 306.602 457.836 306.602C458.838 306.602 459.646 306.941 460.262 307.621C460.871 308.295 461.176 309.188 461.176 310.302C461.176 311.052 461.023 311.737 460.719 312.358C460.408 312.974 459.966 313.457 459.392 313.809C458.812 314.154 458.129 314.327 457.344 314.327L457.344 313.325C458.246 313.325 458.955 313.053 459.471 312.508C459.986 311.963 460.244 311.228 460.244 310.302C460.244 309.493 460.027 308.846 459.594 308.359C459.16 307.867 458.58 307.621 457.854 307.621Z" fill="#DADADA"/>
<path d="M457.423 294.455L457.423 299.254L461 300.344L461 301.39L448.203 297.312L448.203 296.38L461 292.302L461 293.348L457.423 294.455ZM456.482 298.964L456.482 294.745L449.618 296.854L456.482 298.964Z" fill="#DADADA"/>
<path d="M455.674 286.413L455.674 289.401L461 289.401L461 290.412L448.203 290.412L448.203 286.905C448.203 285.739 448.537 284.837 449.205 284.198C449.867 283.554 450.79 283.231 451.974 283.231C452.8 283.231 453.526 283.431 454.153 283.829C454.774 284.228 455.205 284.764 455.445 285.437L460.886 282.774L461 282.774L461 283.847L455.674 286.413ZM454.742 289.401L454.742 286.729C454.742 285.974 454.484 285.37 453.969 284.919C453.447 284.468 452.782 284.242 451.974 284.242C451.077 284.242 450.383 284.477 449.891 284.945C449.398 285.414 449.152 286.07 449.152 286.914L449.152 289.401L454.742 289.401Z" fill="#DADADA"/>
<path d="M454.874 274.53L454.874 279.496L460.068 279.496L460.068 273.783L461 273.783L461 280.498L448.203 280.498L448.203 273.827L449.152 273.827L449.152 279.496L453.942 279.496L453.942 274.53L454.874 274.53Z" fill="#DADADA"/>
<path d="M457.423 265.732L457.423 270.531L461 271.621L461 272.667L448.203 268.589L448.203 267.657L461 263.579L461 264.625L457.423 265.732ZM456.482 270.241L456.482 266.022L449.618 268.132L456.482 270.241Z" fill="#DADADA"/>
<path d="M448.203 256.302L459.462 252.426L448.203 248.532L448.203 247.205L461 247.205L461 248.207L455.454 248.207L449.873 248.119L461 252.039L461 252.812L449.926 256.715L455.419 256.627L461 256.627L461 257.629L448.203 257.629L448.203 256.302Z" fill="#DADADA"/>
<path d="M457.423 238.187L457.423 242.986L461 244.076L461 245.122L448.203 241.044L448.203 240.112L461 236.034L461 237.08L457.423 238.187ZM456.482 242.696L456.482 238.478L449.618 240.587L456.482 242.696Z" fill="#DADADA"/>
<path d="M455.164 231.771L448.203 228.581L448.203 227.43L456.184 231.279L461 231.279L461 232.281L456.184 232.281L448.203 236.122L448.203 234.944L455.164 231.771Z" fill="#DADADA"/>
<path d="M461 225.549L448.203 225.549L448.203 222.306C448.203 221.151 448.487 220.278 449.056 219.687C449.618 219.089 450.45 218.79 451.552 218.79C452.208 218.79 452.779 218.942 453.266 219.247C453.752 219.552 454.104 219.974 454.32 220.513C454.479 219.892 454.842 219.391 455.41 219.01C455.973 218.623 456.635 218.43 457.396 218.43C458.51 218.43 459.389 218.734 460.033 219.344C460.678 219.953 461 220.817 461 221.937L461 225.549ZM454.856 224.547L460.068 224.547L460.068 221.893C460.068 221.131 459.834 220.53 459.365 220.091C458.896 219.651 458.246 219.432 457.414 219.432C456.641 219.432 456.025 219.637 455.568 220.047C455.111 220.451 454.874 221.017 454.856 221.743L454.856 224.547ZM453.934 224.547L453.934 222.218C453.934 221.456 453.731 220.864 453.327 220.442C452.923 220.021 452.322 219.81 451.525 219.81C450.711 219.81 450.113 220.018 449.732 220.434C449.346 220.844 449.152 221.468 449.152 222.306L449.152 224.547L453.934 224.547Z" fill="#DADADA"/>
<path d="M454.874 209.931L454.874 214.896L460.068 214.896L460.068 209.184L461 209.184L461 215.898L448.203 215.898L448.203 209.228L449.152 209.228L449.152 214.896L453.942 214.896L453.942 209.931L454.874 209.931Z" fill="#DADADA"/>
<path d="M455.99 194.972C457.643 194.972 458.92 195.335 459.822 196.062C460.725 196.782 461.176 197.796 461.176 199.103C461.176 200.397 460.725 201.414 459.822 202.152C458.92 202.885 457.651 203.254 456.017 203.26L453.23 203.26C451.584 203.26 450.307 202.894 449.398 202.161C448.484 201.429 448.027 200.415 448.027 199.12C448.027 197.808 448.484 196.788 449.398 196.062C450.312 195.335 451.599 194.972 453.257 194.972L455.99 194.972ZM453.213 195.982C451.812 195.982 450.761 196.252 450.058 196.791C449.354 197.33 449.003 198.106 449.003 199.12C449.003 200.099 449.349 200.863 450.04 201.414C450.726 201.965 451.754 202.246 453.125 202.258L455.99 202.258C457.396 202.258 458.454 201.979 459.163 201.423C459.866 200.866 460.218 200.093 460.218 199.103C460.218 198.083 459.866 197.31 459.163 196.782C458.46 196.249 457.402 195.982 455.99 195.982L453.213 195.982Z" fill="#DADADA"/>
<path d="M448.203 184.855L457.282 184.855C458.519 184.861 459.477 185.195 460.156 185.857C460.836 186.514 461.176 187.448 461.176 188.661C461.176 189.892 460.842 190.835 460.174 191.491C459.5 192.142 458.524 192.467 457.247 192.467L448.203 192.467L448.203 191.465L457.212 191.465C459.233 191.465 460.244 190.53 460.244 188.661C460.244 186.821 459.263 185.89 457.3 185.866L448.203 185.866L448.203 184.855Z" fill="#DADADA"/>
<path d="M449.152 174.704L449.152 178.343L461 178.343L461 179.354L449.152 179.354L449.152 182.983L448.203 182.983L448.203 174.704L449.152 174.704Z" fill="#DADADA"/>
<path d="M457.854 166.768C457.139 166.768 456.576 166.973 456.166 167.383C455.756 167.787 455.363 168.546 454.988 169.659C454.613 170.772 454.194 171.59 453.731 172.111C453.128 172.797 452.331 173.14 451.341 173.14C450.362 173.14 449.565 172.803 448.95 172.129C448.335 171.455 448.027 170.585 448.027 169.519C448.027 168.429 448.385 167.538 449.1 166.847C449.814 166.155 450.734 165.81 451.859 165.81L451.859 166.82C450.998 166.82 450.304 167.063 449.776 167.55C449.243 168.03 448.977 168.687 448.977 169.519C448.977 170.327 449.196 170.966 449.636 171.435C450.069 171.897 450.632 172.129 451.323 172.129C451.968 172.129 452.495 171.909 452.905 171.47C453.315 171.03 453.682 170.33 454.004 169.369C454.32 168.408 454.651 167.682 454.997 167.189C455.337 166.697 455.738 166.334 456.201 166.1C456.664 165.865 457.209 165.748 457.836 165.748C458.838 165.748 459.646 166.088 460.262 166.768C460.871 167.441 461.176 168.335 461.176 169.448C461.176 170.198 461.023 170.884 460.719 171.505C460.408 172.12 459.966 172.604 459.392 172.955C458.812 173.301 458.129 173.474 457.344 173.474L457.344 172.472C458.246 172.472 458.955 172.199 459.471 171.654C459.986 171.109 460.244 170.374 460.244 169.448C460.244 168.64 460.027 167.992 459.594 167.506C459.16 167.014 458.58 166.768 457.854 166.768Z" fill="#DADADA"/>
<path d="M461 162.276L461 163.278L448.203 163.278L448.203 162.276L461 162.276Z" fill="#DADADA"/>
<path d="M461 159.068L448.203 159.068L448.203 156.054C448.203 154.665 448.648 153.566 449.539 152.758C450.424 151.949 451.645 151.533 453.204 151.51L455.885 151.51C457.49 151.51 458.744 151.92 459.646 152.74C460.549 153.555 461 154.7 461 156.177L461 159.068ZM449.152 158.066L460.068 158.066L460.068 156.124C460.068 154.981 459.717 154.097 459.014 153.47C458.305 152.843 457.294 152.521 455.981 152.503L453.301 152.503C451.988 152.503 450.969 152.811 450.242 153.426C449.516 154.035 449.152 154.92 449.152 156.08L449.152 158.066Z" fill="#DADADA"/>
<path d="M454.874 142.835L454.874 147.801L460.068 147.801L460.068 142.088L461 142.088L461 148.803L448.203 148.803L448.203 142.132L449.152 142.132L449.152 147.801L453.942 147.801L453.942 142.835L454.874 142.835Z" fill="#DADADA"/>
<path d="M459.4 132.49L459.541 132.464L459.4 132.429L448.203 129.089L448.203 127.981L461 131.98L461 132.93L448.203 136.929L448.203 135.83L459.4 132.49Z" fill="#DADADA"/>
<path d="M461 124.888L461 125.89L448.203 125.89L448.203 124.888L461 124.888Z" fill="#DADADA"/>
<path d="M454.874 115.712L454.874 120.678L460.068 120.678L460.068 114.965L461 114.965L461 121.68L448.203 121.68L448.203 115.009L449.152 115.009L449.152 120.678L453.942 120.678L453.942 115.712L454.874 115.712Z" fill="#DADADA"/>
<path d="M457.52 110.685L459.418 110.377L457.607 109.99L448.203 107.696L448.203 106.8L457.607 104.541L459.436 104.163L457.52 103.829L448.203 101.939L448.203 100.92L461 103.645L461 104.594L451.024 106.993L449.838 107.248L451.024 107.494L461 109.946L461 110.904L448.203 113.62L448.203 112.592L457.52 110.685Z" fill="#DADADA"/>
<path d="M455.797 97.8437L461 97.8437L461 98.8457L448.203 98.8457L448.203 95.1279C448.203 93.9971 448.543 93.1064 449.223 92.4561C449.902 91.8057 450.837 91.4805 452.026 91.4805C453.239 91.4805 454.171 91.7969 454.821 92.4297C455.472 93.0566 455.797 93.9619 455.797 95.1455L455.797 97.8437ZM454.856 97.8437L454.856 95.1279C454.856 94.2842 454.613 93.6338 454.127 93.1768C453.635 92.7139 452.94 92.4824 452.044 92.4824C451.147 92.4824 450.441 92.7168 449.926 93.1855C449.41 93.6484 449.152 94.293 449.152 95.1191L449.152 97.8437L454.856 97.8437Z" fill="#DADADA"/>
<path d="M455.99 81.2061C457.643 81.2061 458.92 81.5693 459.822 82.2959C460.725 83.0166 461.176 84.0303 461.176 85.3369C461.176 86.6318 460.725 87.6484 459.822 88.3867C458.92 89.1191 457.651 89.4883 456.017 89.4941L453.23 89.4941C451.584 89.4941 450.307 89.1279 449.398 88.3955C448.484 87.6631 448.027 86.6494 448.027 85.3545C448.027 84.042 448.484 83.0225 449.398 82.2959C450.312 81.5693 451.599 81.2061 453.257 81.2061L455.99 81.2061ZM453.213 82.2168C451.812 82.2168 450.761 82.4863 450.058 83.0254C449.354 83.5645 449.003 84.3408 449.003 85.3545C449.003 86.333 449.349 87.0977 450.04 87.6484C450.726 88.1992 451.754 88.4805 453.125 88.4922L455.99 88.4922C457.396 88.4922 458.454 88.2139 459.163 87.6572C459.866 87.1006 460.218 86.3271 460.218 85.3369C460.218 84.3174 459.866 83.5439 459.163 83.0166C458.46 82.4834 457.402 82.2168 455.99 82.2168L453.213 82.2168Z" fill="#DADADA"/>
<path d="M455.674 74.5439L455.674 77.5322L461 77.5322L461 78.543L448.203 78.543L448.203 75.0361C448.203 73.8701 448.537 72.9678 449.205 72.3291C449.867 71.6846 450.79 71.3623 451.974 71.3623C452.8 71.3623 453.526 71.5615 454.153 71.96C454.774 72.3584 455.205 72.8945 455.445 73.5684L460.886 70.9053L461 70.9053L461 71.9775L455.674 74.5439ZM454.742 77.5322L454.742 74.8604C454.742 74.1045 454.484 73.501 453.969 73.0498C453.447 72.5986 452.782 72.373 451.974 72.373C451.077 72.373 450.383 72.6074 449.891 73.0762C449.398 73.5449 449.152 74.2012 449.152 75.0449L449.152 77.5322L454.742 77.5322Z" fill="#DADADA"/>
<path d="M449.152 62.0107L449.152 65.6494L461 65.6494L461 66.6602L449.152 66.6602L449.152 70.29L448.203 70.29L448.203 62.0107L449.152 62.0107Z" fill="#DADADA"/>
<path d="M1650.85 69.833L1650.85 66.1943L1639 66.1943L1639 65.1836L1650.85 65.1836L1650.85 61.5537L1651.8 61.5537L1651.8 69.833L1650.85 69.833Z" fill="#DADADA"/>
<path d="M1639 79.9229L1639 78.9121L1645.13 78.9121L1645.13 72.9004L1639 72.9004L1639 71.8984L1651.8 71.8984L1651.8 72.9004L1646.06 72.9004L1646.06 78.9121L1651.8 78.9121L1651.8 79.9229L1639 79.9229Z" fill="#DADADA"/>
<path d="M1639 84.1592L1639 83.1572L1651.8 83.1572L1651.8 84.1592L1639 84.1592Z" fill="#DADADA"/>
<path d="M1642.15 93.3789C1642.86 93.3789 1643.42 93.1738 1643.83 92.7637C1644.24 92.3594 1644.64 91.6006 1645.01 90.4873C1645.39 89.374 1645.81 88.5566 1646.27 88.0352C1646.87 87.3496 1647.67 87.0068 1648.66 87.0068C1649.64 87.0068 1650.43 87.3438 1651.05 88.0176C1651.67 88.6914 1651.97 89.5615 1651.97 90.6279C1651.97 91.7178 1651.62 92.6084 1650.9 93.2998C1650.19 93.9912 1649.27 94.3369 1648.14 94.3369L1648.14 93.3262C1649 93.3262 1649.7 93.083 1650.22 92.5967C1650.76 92.1162 1651.02 91.46 1651.02 90.6279C1651.02 89.8193 1650.8 89.1807 1650.36 88.7119C1649.93 88.249 1649.37 88.0176 1648.68 88.0176C1648.03 88.0176 1647.5 88.2373 1647.09 88.6768C1646.68 89.1162 1646.32 89.8164 1646 90.7773C1645.68 91.7383 1645.35 92.4648 1645 92.957C1644.66 93.4492 1644.26 93.8125 1643.8 94.0469C1643.34 94.2813 1642.79 94.3984 1642.16 94.3984C1641.16 94.3984 1640.35 94.0586 1639.74 93.3789C1639.13 92.7051 1638.82 91.8115 1638.82 90.6982C1638.82 89.9482 1638.98 89.2627 1639.28 88.6416C1639.59 88.0264 1640.03 87.543 1640.61 87.1914C1641.19 86.8457 1641.87 86.6729 1642.66 86.6729L1642.66 87.6748C1641.75 87.6748 1641.04 87.9473 1640.53 88.4922C1640.01 89.0371 1639.76 89.7725 1639.76 90.6982C1639.76 91.5068 1639.97 92.1543 1640.41 92.6406C1640.84 93.1328 1641.42 93.3789 1642.15 93.3789Z" fill="#DADADA"/>
<path d="M1642.58 106.545L1642.58 101.746L1639 100.656L1639 99.6104L1651.8 103.688L1651.8 104.62L1639 108.698L1639 107.652L1642.58 106.545ZM1643.52 102.036L1643.52 106.255L1650.38 104.146L1643.52 102.036Z" fill="#DADADA"/>
<path d="M1644.33 114.587L1644.33 111.599L1639 111.599L1639 110.588L1651.8 110.588L1651.8 114.095C1651.8 115.261 1651.46 116.163 1650.79 116.802C1650.13 117.446 1649.21 117.769 1648.03 117.769C1647.2 117.769 1646.47 117.569 1645.85 117.171C1645.23 116.772 1644.79 116.236 1644.55 115.563L1639.11 118.226L1639 118.226L1639 117.153L1644.33 114.587ZM1645.26 111.599L1645.26 114.271C1645.26 115.026 1645.52 115.63 1646.03 116.081C1646.55 116.532 1647.22 116.758 1648.03 116.758C1648.92 116.758 1649.62 116.523 1650.11 116.055C1650.6 115.586 1650.85 114.93 1650.85 114.086L1650.85 111.599L1645.26 111.599Z" fill="#DADADA"/>
<path d="M1645.13 126.47L1645.13 121.504L1639.93 121.504L1639.93 127.217L1639 127.217L1639 120.502L1651.8 120.502L1651.8 127.173L1650.85 127.173L1650.85 121.504L1646.06 121.504L1646.06 126.47L1645.13 126.47Z" fill="#DADADA"/>
<path d="M1642.58 135.268L1642.58 130.469L1639 129.379L1639 128.333L1651.8 132.411L1651.8 133.343L1639 137.421L1639 136.375L1642.58 135.268ZM1643.52 130.759L1643.52 134.978L1650.38 132.868L1643.52 130.759Z" fill="#DADADA"/>
<path d="M1651.8 144.698L1640.54 148.574L1651.8 152.468L1651.8 153.795L1639 153.795L1639 152.793L1644.55 152.793L1650.13 152.881L1639 148.961L1639 148.188L1650.07 144.285L1644.58 144.373L1639 144.373L1639 143.371L1651.8 143.371L1651.8 144.698Z" fill="#DADADA"/>
<path d="M1642.58 162.813L1642.58 158.014L1639 156.924L1639 155.878L1651.8 159.956L1651.8 160.888L1639 164.966L1639 163.92L1642.58 162.813ZM1643.52 158.304L1643.52 162.522L1650.38 160.413L1643.52 158.304Z" fill="#DADADA"/>
<path d="M1644.84 169.229L1651.8 172.419L1651.8 173.57L1643.82 169.721L1639 169.721L1639 168.719L1643.82 168.719L1651.8 164.878L1651.8 166.056L1644.84 169.229Z" fill="#DADADA"/>
<path d="M1639 175.451L1651.8 175.451L1651.8 178.694C1651.8 179.849 1651.51 180.722 1650.94 181.313C1650.38 181.911 1649.55 182.21 1648.45 182.21C1647.79 182.21 1647.22 182.058 1646.73 181.753C1646.25 181.448 1645.9 181.026 1645.68 180.487C1645.52 181.108 1645.16 181.609 1644.59 181.99C1644.03 182.377 1643.37 182.57 1642.6 182.57C1641.49 182.57 1640.61 182.266 1639.97 181.656C1639.32 181.047 1639 180.183 1639 179.063L1639 175.451ZM1645.14 176.453L1639.93 176.453L1639.93 179.107C1639.93 179.869 1640.17 180.47 1640.63 180.909C1641.1 181.349 1641.75 181.568 1642.59 181.568C1643.36 181.568 1643.97 181.363 1644.43 180.953C1644.89 180.549 1645.13 179.983 1645.14 179.257L1645.14 176.453ZM1646.07 176.453L1646.07 178.782C1646.07 179.544 1646.27 180.136 1646.67 180.558C1647.08 180.979 1647.68 181.19 1648.47 181.19C1649.29 181.19 1649.89 180.982 1650.27 180.566C1650.65 180.156 1650.85 179.532 1650.85 178.694L1650.85 176.453L1646.07 176.453Z" fill="#DADADA"/>
<path d="M1645.13 191.069L1645.13 186.104L1639.93 186.104L1639.93 191.816L1639 191.816L1639 185.102L1651.8 185.102L1651.8 191.772L1650.85 191.772L1650.85 186.104L1646.06 186.104L1646.06 191.069L1645.13 191.069Z" fill="#DADADA"/>
<path d="M1644.01 206.028C1642.36 206.028 1641.08 205.665 1640.18 204.938C1639.28 204.218 1638.82 203.204 1638.82 201.897C1638.82 200.603 1639.28 199.586 1640.18 198.848C1641.08 198.115 1642.35 197.746 1643.98 197.74L1646.77 197.74C1648.42 197.74 1649.69 198.106 1650.6 198.839C1651.52 199.571 1651.97 200.585 1651.97 201.88C1651.97 203.192 1651.52 204.212 1650.6 204.938C1649.69 205.665 1648.4 206.028 1646.74 206.028L1644.01 206.028ZM1646.79 205.018C1648.19 205.018 1649.24 204.748 1649.94 204.209C1650.65 203.67 1651 202.894 1651 201.88C1651 200.901 1650.65 200.137 1649.96 199.586C1649.27 199.035 1648.25 198.754 1646.88 198.742L1644.01 198.742C1642.6 198.742 1641.55 199.021 1640.84 199.577C1640.13 200.134 1639.78 200.907 1639.78 201.897C1639.78 202.917 1640.13 203.69 1640.84 204.218C1641.54 204.751 1642.6 205.018 1644.01 205.018L1646.79 205.018Z" fill="#DADADA"/>
<path d="M1651.8 216.145L1642.72 216.145C1641.48 216.139 1640.52 215.805 1639.84 215.143C1639.16 214.486 1638.82 213.552 1638.82 212.339C1638.82 211.108 1639.16 210.165 1639.83 209.509C1640.5 208.858 1641.48 208.533 1642.75 208.533L1651.8 208.533L1651.8 209.535L1642.79 209.535C1640.77 209.535 1639.76 210.47 1639.76 212.339C1639.76 214.179 1640.74 215.11 1642.7 215.134L1651.8 215.134L1651.8 216.145Z" fill="#DADADA"/>
<path d="M1650.85 226.296L1650.85 222.657L1639 222.657L1639 221.646L1650.85 221.646L1650.85 218.017L1651.8 218.017L1651.8 226.296L1650.85 226.296Z" fill="#DADADA"/>
<path d="M1642.15 234.232C1642.86 234.232 1643.42 234.027 1643.83 233.617C1644.24 233.213 1644.64 232.454 1645.01 231.341C1645.39 230.228 1645.81 229.41 1646.27 228.889C1646.87 228.203 1647.67 227.86 1648.66 227.86C1649.64 227.86 1650.43 228.197 1651.05 228.871C1651.67 229.545 1651.97 230.415 1651.97 231.481C1651.97 232.571 1651.62 233.462 1650.9 234.153C1650.19 234.845 1649.27 235.19 1648.14 235.19L1648.14 234.18C1649 234.18 1649.7 233.937 1650.22 233.45C1650.76 232.97 1651.02 232.313 1651.02 231.481C1651.02 230.673 1650.8 230.034 1650.36 229.565C1649.93 229.103 1649.37 228.871 1648.68 228.871C1648.03 228.871 1647.5 229.091 1647.09 229.53C1646.68 229.97 1646.32 230.67 1646 231.631C1645.68 232.592 1645.35 233.318 1645 233.811C1644.66 234.303 1644.26 234.666 1643.8 234.9C1643.34 235.135 1642.79 235.252 1642.16 235.252C1641.16 235.252 1640.35 234.912 1639.74 234.232C1639.13 233.559 1638.82 232.665 1638.82 231.552C1638.82 230.802 1638.98 230.116 1639.28 229.495C1639.59 228.88 1640.03 228.396 1640.61 228.045C1641.19 227.699 1641.87 227.526 1642.66 227.526L1642.66 228.528C1641.75 228.528 1641.04 228.801 1640.53 229.346C1640.01 229.891 1639.76 230.626 1639.76 231.552C1639.76 232.36 1639.97 233.008 1640.41 233.494C1640.84 233.986 1641.42 234.232 1642.15 234.232Z" fill="#DADADA"/>
<path d="M1639 238.724L1639 237.722L1651.8 237.722L1651.8 238.724L1639 238.724Z" fill="#DADADA"/>
<path d="M1639 241.932L1651.8 241.932L1651.8 244.946C1651.8 246.335 1651.35 247.434 1650.46 248.242C1649.58 249.051 1648.35 249.467 1646.8 249.49L1644.12 249.49C1642.51 249.49 1641.26 249.08 1640.35 248.26C1639.45 247.445 1639 246.3 1639 244.823L1639 241.932ZM1650.85 242.934L1639.93 242.934L1639.93 244.876C1639.93 246.019 1640.28 246.903 1640.99 247.53C1641.7 248.157 1642.71 248.479 1644.02 248.497L1646.7 248.497C1648.01 248.497 1649.03 248.189 1649.76 247.574C1650.48 246.965 1650.85 246.08 1650.85 244.92L1650.85 242.934Z" fill="#DADADA"/>
<path d="M1645.13 258.165L1645.13 253.199L1639.93 253.199L1639.93 258.912L1639 258.912L1639 252.197L1651.8 252.197L1651.8 258.868L1650.85 258.868L1650.85 253.199L1646.06 253.199L1646.06 258.165L1645.13 258.165Z" fill="#DADADA"/>
<path d="M1640.6 268.51L1640.46 268.536L1640.6 268.571L1651.8 271.911L1651.8 273.019L1639 269.02L1639 268.07L1651.8 264.071L1651.8 265.17L1640.6 268.51Z" fill="#DADADA"/>
<path d="M1639 276.112L1639 275.11L1651.8 275.11L1651.8 276.112L1639 276.112Z" fill="#DADADA"/>
<path d="M1645.13 285.288L1645.13 280.322L1639.93 280.322L1639.93 286.035L1639 286.035L1639 279.32L1651.8 279.32L1651.8 285.991L1650.85 285.991L1650.85 280.322L1646.06 280.322L1646.06 285.288L1645.13 285.288Z" fill="#DADADA"/>
<path d="M1642.48 290.315L1640.58 290.623L1642.39 291.01L1651.8 293.304L1651.8 294.2L1642.39 296.459L1640.56 296.837L1642.48 297.171L1651.8 299.061L1651.8 300.08L1639 297.355L1639 296.406L1648.98 294.007L1650.16 293.752L1648.98 293.506L1639 291.054L1639 290.096L1651.8 287.38L1651.8 288.408L1642.48 290.315Z" fill="#DADADA"/>
<path d="M1644.2 303.156L1639 303.156L1639 302.154L1651.8 302.154L1651.8 305.872C1651.8 307.003 1651.46 307.894 1650.78 308.544C1650.1 309.194 1649.16 309.52 1647.97 309.52C1646.76 309.52 1645.83 309.203 1645.18 308.57C1644.53 307.943 1644.2 307.038 1644.2 305.854L1644.2 303.156ZM1645.14 303.156L1645.14 305.872C1645.14 306.716 1645.39 307.366 1645.87 307.823C1646.37 308.286 1647.06 308.518 1647.96 308.518C1648.85 308.518 1649.56 308.283 1650.07 307.814C1650.59 307.352 1650.85 306.707 1650.85 305.881L1650.85 303.156L1645.14 303.156Z" fill="#DADADA"/>
<path d="M1644.01 319.794C1642.36 319.794 1641.08 319.431 1640.18 318.704C1639.28 317.983 1638.82 316.97 1638.82 315.663C1638.82 314.368 1639.28 313.352 1640.18 312.613C1641.08 311.881 1642.35 311.512 1643.98 311.506L1646.77 311.506C1648.42 311.506 1649.69 311.872 1650.6 312.604C1651.52 313.337 1651.97 314.351 1651.97 315.646C1651.97 316.958 1651.52 317.978 1650.6 318.704C1649.69 319.431 1648.4 319.794 1646.74 319.794L1644.01 319.794ZM1646.79 318.783C1648.19 318.783 1649.24 318.514 1649.94 317.975C1650.65 317.436 1651 316.659 1651 315.646C1651 314.667 1650.65 313.902 1649.96 313.352C1649.27 312.801 1648.25 312.52 1646.88 312.508L1644.01 312.508C1642.6 312.508 1641.55 312.786 1640.84 313.343C1640.13 313.899 1639.78 314.673 1639.78 315.663C1639.78 316.683 1640.13 317.456 1640.84 317.983C1641.54 318.517 1642.6 318.783 1644.01 318.783L1646.79 318.783Z" fill="#DADADA"/>
<path d="M1644.33 326.456L1644.33 323.468L1639 323.468L1639 322.457L1651.8 322.457L1651.8 325.964C1651.8 327.13 1651.46 328.032 1650.79 328.671C1650.13 329.315 1649.21 329.638 1648.03 329.638C1647.2 329.638 1646.47 329.438 1645.85 329.04C1645.23 328.642 1644.79 328.105 1644.55 327.432L1639.11 330.095L1639 330.095L1639 329.022L1644.33 326.456ZM1645.26 323.468L1645.26 326.14C1645.26 326.896 1645.52 327.499 1646.03 327.95C1646.55 328.401 1647.22 328.627 1648.03 328.627C1648.92 328.627 1649.62 328.393 1650.11 327.924C1650.6 327.455 1650.85 326.799 1650.85 325.955L1650.85 323.468L1645.26 323.468Z" fill="#DADADA"/>
<path d="M1650.85 338.989L1650.85 335.351L1639 335.351L1639 334.34L1650.85 334.34L1650.85 330.71L1651.8 330.71L1651.8 338.989L1650.85 338.989Z" fill="#DADADA"/>
<defs>
<linearGradient id="paint0_linear" x1="480" y1="200" x2="-3.57628e-06" y2="200" gradientUnits="userSpaceOnUse">
<stop stop-color="#6F6F6F"/>
<stop offset="1" stop-color="#DADADA" stop-opacity="0"/>
</linearGradient>
<linearGradient id="paint1_linear" x1="1620" y1="200" x2="2100" y2="200" gradientUnits="userSpaceOnUse">
<stop stop-color="#6F6F6F"/>
<stop offset="1" stop-color="#DADADA" stop-opacity="0"/>
</linearGradient>
</defs>
</svg>
