<svg width="2100" height="220" viewBox="0 0 2100 220" fill="none" xmlns="http://www.w3.org/2000/svg">
<path d="M0 0H2100V220H0V0Z" fill="#C4C4C4"/>
<path d="M480 0H0V220H480V0Z" fill="url(#paint0_linear)"/>
<path d="M1620 0H2100V220H1620V0Z" fill="url(#paint1_linear)"/>
<path d="M996.148 196.09H989.492V170.027L983 172.535V167.004L995.445 161.918H996.148V196.09Z" fill="white" fill-opacity="0.2"/>
<path d="M1020.43 196.09H1013.77V170.027L1007.28 172.535V167.004L1019.73 161.918H1020.43V196.09Z" fill="white" fill-opacity="0.2"/>
<path d="M1047.59 183.199H1050.5V188.707H1047.59V196.09H1040.96V188.707H1029.66L1029.36 184.418L1040.94 161.965H1047.59V183.199ZM1035.8 183.199H1040.96V171.785L1040.82 172.043L1035.8 183.199Z" fill="white" fill-opacity="0.2"/>
<path d="M1074.22 181.98C1074.22 186.699 1073.36 190.309 1071.64 192.809C1069.94 195.309 1067.5 196.559 1064.33 196.559C1061.19 196.559 1058.76 195.348 1057.04 192.926C1055.34 190.488 1054.45 187.004 1054.39 182.473V176.027C1054.39 171.324 1055.24 167.73 1056.95 165.246C1058.65 162.746 1061.09 161.496 1064.28 161.496C1067.47 161.496 1069.91 162.73 1071.62 165.199C1073.32 167.668 1074.19 171.191 1074.22 175.77V181.98ZM1067.56 175.066C1067.56 172.379 1067.3 170.363 1066.77 169.02C1066.23 167.676 1065.41 167.004 1064.28 167.004C1062.17 167.004 1061.08 169.465 1061 174.387V182.895C1061 185.645 1061.27 187.691 1061.8 189.035C1062.34 190.379 1063.19 191.051 1064.33 191.051C1065.41 191.051 1066.2 190.426 1066.72 189.176C1067.25 187.91 1067.53 185.98 1067.56 183.387V175.066Z" fill="white" fill-opacity="0.2"/>
<path d="M1127.82 185.59C1127.82 183.402 1128.03 181.668 1128.45 180.387C1128.89 179.09 1129.66 177.855 1130.77 176.684C1131.95 175.387 1132.73 174.324 1133.12 173.496C1133.51 172.668 1133.7 171.832 1133.7 170.988C1133.7 168.379 1132.86 167.074 1131.17 167.074C1130.42 167.074 1129.8 167.434 1129.3 168.152C1128.8 168.871 1128.53 169.84 1128.5 171.059H1121.87C1121.9 168.027 1122.74 165.676 1124.4 164.004C1126.07 162.332 1128.33 161.496 1131.17 161.496C1134.08 161.496 1136.34 162.309 1137.95 163.934C1139.55 165.543 1140.36 167.801 1140.36 170.707C1140.36 173.113 1139.37 175.473 1137.38 177.785L1135.44 179.988C1134.8 180.754 1134.34 181.551 1134.08 182.379C1133.81 183.191 1133.66 184.262 1133.63 185.59H1127.82ZM1127.21 192.762C1127.21 191.699 1127.55 190.832 1128.22 190.16C1128.91 189.488 1129.77 189.152 1130.82 189.152C1131.9 189.152 1132.77 189.496 1133.45 190.184C1134.12 190.855 1134.45 191.715 1134.45 192.762C1134.45 193.793 1134.12 194.652 1133.47 195.34C1132.81 196.027 1131.93 196.371 1130.82 196.371C1129.73 196.371 1128.85 196.027 1128.2 195.34C1127.54 194.652 1127.21 193.793 1127.21 192.762Z" fill="white" fill-opacity="0.2"/>
<path d="M1149.34 185.59C1149.34 183.402 1149.55 181.668 1149.97 180.387C1150.41 179.09 1151.18 177.855 1152.29 176.684C1153.46 175.387 1154.24 174.324 1154.63 173.496C1155.02 172.668 1155.22 171.832 1155.22 170.988C1155.22 168.379 1154.38 167.074 1152.69 167.074C1151.94 167.074 1151.31 167.434 1150.81 168.152C1150.31 168.871 1150.05 169.84 1150.02 171.059H1143.38C1143.41 168.027 1144.26 165.676 1145.91 164.004C1147.59 162.332 1149.84 161.496 1152.69 161.496C1155.59 161.496 1157.85 162.309 1159.46 163.934C1161.07 165.543 1161.88 167.801 1161.88 170.707C1161.88 173.113 1160.88 175.473 1158.9 177.785L1156.95 179.988C1156.31 180.754 1155.86 181.551 1155.59 182.379C1155.33 183.191 1155.18 184.262 1155.15 185.59H1149.34ZM1148.73 192.762C1148.73 191.699 1149.06 190.832 1149.73 190.16C1150.42 189.488 1151.29 189.152 1152.34 189.152C1153.41 189.152 1154.29 189.496 1154.96 190.184C1155.63 190.855 1155.97 191.715 1155.97 192.762C1155.97 193.793 1155.64 194.652 1154.98 195.34C1154.33 196.027 1153.45 196.371 1152.34 196.371C1151.24 196.371 1150.37 196.027 1149.71 195.34C1149.05 194.652 1148.73 193.793 1148.73 192.762Z" fill="white" fill-opacity="0.2"/>
<path d="M1170.85 185.59C1170.85 183.402 1171.06 181.668 1171.48 180.387C1171.92 179.09 1172.7 177.855 1173.8 176.684C1174.98 175.387 1175.76 174.324 1176.15 173.496C1176.54 172.668 1176.73 171.832 1176.73 170.988C1176.73 168.379 1175.89 167.074 1174.2 167.074C1173.45 167.074 1172.83 167.434 1172.33 168.152C1171.83 168.871 1171.56 169.84 1171.53 171.059H1164.9C1164.93 168.027 1165.77 165.676 1167.43 164.004C1169.1 162.332 1171.36 161.496 1174.2 161.496C1177.11 161.496 1179.37 162.309 1180.98 163.934C1182.59 165.543 1183.39 167.801 1183.39 170.707C1183.39 173.113 1182.4 175.473 1180.41 177.785L1178.47 179.988C1177.83 180.754 1177.38 181.551 1177.11 182.379C1176.84 183.191 1176.7 184.262 1176.66 185.59H1170.85ZM1170.24 192.762C1170.24 191.699 1170.58 190.832 1171.25 190.16C1171.94 189.488 1172.8 189.152 1173.85 189.152C1174.93 189.152 1175.8 189.496 1176.48 190.184C1177.15 190.855 1177.48 191.715 1177.48 192.762C1177.48 193.793 1177.16 194.652 1176.5 195.34C1175.84 196.027 1174.96 196.371 1173.85 196.371C1172.76 196.371 1171.88 196.027 1171.23 195.34C1170.57 194.652 1170.24 193.793 1170.24 192.762Z" fill="white" fill-opacity="0.2"/>
<path fill-rule="evenodd" clip-rule="evenodd" d="M1106.68 174.064C1107.19 173.551 1107.19 172.721 1106.68 172.208V172.208C1106.16 171.696 1105.33 171.696 1104.82 172.208L1101.39 175.643C1099.82 177.205 1097.29 177.205 1095.73 175.643L1092.29 172.208C1091.78 171.696 1090.95 171.696 1090.44 172.208V172.208C1089.93 172.721 1089.93 173.551 1090.44 174.064L1093.87 177.498C1095.44 179.06 1095.44 181.593 1093.87 183.155L1090.44 186.59C1089.93 187.102 1089.93 187.933 1090.44 188.445V188.445C1090.95 188.958 1091.78 188.958 1092.29 188.445L1095.73 185.011C1097.29 183.449 1099.82 183.449 1101.39 185.011L1104.82 188.445C1105.33 188.958 1106.16 188.958 1106.68 188.445V188.445C1107.19 187.933 1107.19 187.102 1106.68 186.589L1103.24 183.155C1101.68 181.593 1101.68 179.06 1103.24 177.498L1106.68 174.064Z" fill="white" fill-opacity="0.2"/>
<path d="M1015.32 143.479C1015.32 143.073 1015.22 142.768 1015.01 142.562C1014.8 142.353 1014.43 142.136 1013.88 141.913C1012.88 141.535 1012.17 141.093 1011.73 140.587C1011.29 140.076 1011.07 139.475 1011.07 138.782C1011.07 137.944 1011.37 137.271 1011.96 136.766C1012.56 136.255 1013.31 136 1014.23 136C1014.84 136 1015.39 136.13 1015.86 136.39C1016.34 136.645 1016.71 137.007 1016.96 137.477C1017.22 137.946 1017.35 138.479 1017.35 139.076H1015.35C1015.35 138.611 1015.25 138.258 1015.05 138.017C1014.85 137.771 1014.57 137.647 1014.2 137.647C1013.85 137.647 1013.57 137.752 1013.38 137.962C1013.18 138.167 1013.08 138.445 1013.08 138.796C1013.08 139.069 1013.19 139.318 1013.41 139.541C1013.63 139.76 1014.02 139.988 1014.57 140.225C1015.54 140.576 1016.25 141.006 1016.68 141.517C1017.13 142.027 1017.35 142.676 1017.35 143.465C1017.35 144.331 1017.07 145.007 1016.52 145.495C1015.97 145.983 1015.22 146.227 1014.27 146.227C1013.63 146.227 1013.04 146.094 1012.51 145.83C1011.99 145.566 1011.57 145.188 1011.27 144.695C1010.97 144.203 1010.83 143.622 1010.83 142.952H1012.84C1012.84 143.526 1012.95 143.943 1013.18 144.203C1013.4 144.463 1013.77 144.593 1014.27 144.593C1014.97 144.593 1015.32 144.221 1015.32 143.479Z" fill="#F7F7F7" fill-opacity="0.3"/>
<path d="M1033.3 144.053H1030.56L1030.03 146.09H1027.9L1031.01 136.137H1032.85L1035.98 146.09H1033.83L1033.3 144.053ZM1031 142.378H1032.86L1031.93 138.83L1031 142.378Z" fill="#F7F7F7" fill-opacity="0.3"/>
<path d="M1051.92 142.029H1048.8V146.09H1046.79V136.137H1052.3V137.812H1048.8V140.361H1051.92V142.029Z" fill="#F7F7F7" fill-opacity="0.3"/>
<path d="M1068.46 141.783H1065.33V144.422H1069.03V146.09H1063.32V136.137H1069.02V137.812H1065.33V140.163H1068.46V141.783Z" fill="#F7F7F7" fill-opacity="0.3"/>
<path d="M1083.45 142.631H1080.1V141.018H1083.45V142.631Z" fill="#F7F7F7" fill-opacity="0.3"/>
<path d="M1097.1 144.422H1101.21V146.09H1094.75V144.88L1098.81 137.812H1094.71V136.137H1101.13V137.319L1097.1 144.422Z" fill="#F7F7F7" fill-opacity="0.3"/>
<path d="M1119.14 142.009C1119.14 143.344 1118.83 144.381 1118.19 145.119C1117.56 145.857 1116.69 146.227 1115.57 146.227C1114.45 146.227 1113.57 145.862 1112.93 145.133C1112.3 144.399 1111.97 143.374 1111.96 142.057V140.354C1111.96 138.987 1112.28 137.921 1112.91 137.155C1113.55 136.385 1114.43 136 1115.55 136C1116.66 136 1117.53 136.378 1118.17 137.135C1118.81 137.887 1119.13 138.944 1119.14 140.307V142.009ZM1117.13 140.341C1117.13 139.443 1117 138.775 1116.74 138.338C1116.49 137.9 1116.09 137.682 1115.55 137.682C1115.02 137.682 1114.63 137.894 1114.37 138.317C1114.12 138.737 1113.98 139.377 1113.97 140.238V142.009C1113.97 142.879 1114.1 143.522 1114.36 143.937C1114.62 144.347 1115.02 144.552 1115.57 144.552C1116.09 144.552 1116.48 144.351 1116.74 143.95C1116.99 143.545 1117.12 142.918 1117.13 142.07V140.341Z" fill="#F7F7F7" fill-opacity="0.3"/>
<path d="M1137.41 146.09H1135.4L1132.46 139.562V146.09H1130.45V136.137H1132.46L1135.41 142.672V136.137H1137.41V146.09Z" fill="#F7F7F7" fill-opacity="0.3"/>
<path d="M1154.04 141.783H1150.91V144.422H1154.61V146.09H1148.9V136.137H1154.6V137.812H1150.91V140.163H1154.04V141.783Z" fill="#F7F7F7" fill-opacity="0.3"/>
<path d="M900.344 109.188H860.125V99.8125L878.594 76.3281C880.938 73.0781 882.656 70.2344 883.75 67.7969C884.875 65.3281 885.438 62.9688 885.438 60.7188C885.438 57.6875 884.906 55.3125 883.844 53.5938C882.812 51.875 881.312 51.0156 879.344 51.0156C877.188 51.0156 875.469 52.0156 874.188 54.0156C872.938 56.0156 872.312 58.8281 872.312 62.4531H859C859 58.2656 859.859 54.4375 861.578 50.9688C863.328 47.5 865.766 44.8125 868.891 42.9062C872.047 40.9688 875.609 40 879.578 40C885.672 40 890.391 41.6875 893.734 45.0625C897.109 48.4062 898.797 53.1719 898.797 59.3594C898.797 63.2031 897.859 67.1094 895.984 71.0781C894.141 75.0156 890.781 79.875 885.906 85.6562L877.141 98.1719H900.344V109.188Z" fill="white" fill-opacity="0.2"/>
<path d="M937.891 109.188H924.578V57.0625L911.594 62.0781V51.0156L936.484 40.8438H937.891V109.188Z" fill="white" fill-opacity="0.2"/>
<path d="M996.906 80.9688C996.906 90.4062 995.188 97.625 991.75 102.625C988.344 107.625 983.469 110.125 977.125 110.125C970.844 110.125 965.984 107.703 962.547 102.859C959.141 97.9844 957.375 91.0156 957.25 81.9531V69.0625C957.25 59.6562 958.953 52.4688 962.359 47.5C965.766 42.5 970.656 40 977.031 40C983.406 40 988.297 42.4688 991.703 47.4062C995.109 52.3438 996.844 59.3906 996.906 68.5469V80.9688ZM983.594 67.1406C983.594 61.7656 983.062 57.7344 982 55.0469C980.938 52.3594 979.281 51.0156 977.031 51.0156C972.812 51.0156 970.625 55.9375 970.469 65.7812V82.7969C970.469 88.2969 971 92.3906 972.062 95.0781C973.156 97.7656 974.844 99.1094 977.125 99.1094C979.281 99.1094 980.875 97.8594 981.906 95.3594C982.969 92.8281 983.531 88.9688 983.594 83.7812V67.1406Z" fill="white" fill-opacity="0.2"/>
<path d="M1045.47 80.9688C1045.47 90.4062 1043.75 97.625 1040.31 102.625C1036.91 107.625 1032.03 110.125 1025.69 110.125C1019.41 110.125 1014.55 107.703 1011.11 102.859C1007.7 97.9844 1005.94 91.0156 1005.81 81.9531V69.0625C1005.81 59.6562 1007.52 52.4688 1010.92 47.5C1014.33 42.5 1019.22 40 1025.59 40C1031.97 40 1036.86 42.4688 1040.27 47.4062C1043.67 52.3438 1045.41 59.3906 1045.47 68.5469V80.9688ZM1032.16 67.1406C1032.16 61.7656 1031.62 57.7344 1030.56 55.0469C1029.5 52.3594 1027.84 51.0156 1025.59 51.0156C1021.38 51.0156 1019.19 55.9375 1019.03 65.7812V82.7969C1019.03 88.2969 1019.56 92.3906 1020.62 95.0781C1021.72 97.7656 1023.41 99.1094 1025.69 99.1094C1027.84 99.1094 1029.44 97.8594 1030.47 95.3594C1031.53 92.8281 1032.09 88.9688 1032.16 83.7812V67.1406Z" fill="white" fill-opacity="0.2"/>
<path d="M1130.55 88.1875C1130.55 83.8125 1130.97 80.3438 1131.81 77.7812C1132.69 75.1875 1134.23 72.7188 1136.45 70.375C1138.8 67.7812 1140.36 65.6562 1141.14 64C1141.92 62.3438 1142.31 60.6719 1142.31 58.9844C1142.31 53.7656 1140.62 51.1562 1137.25 51.1562C1135.75 51.1562 1134.5 51.875 1133.5 53.3125C1132.5 54.75 1131.97 56.6875 1131.91 59.125H1118.64C1118.7 53.0625 1120.39 48.3594 1123.7 45.0156C1127.05 41.6719 1131.56 40 1137.25 40C1143.06 40 1147.58 41.625 1150.8 44.875C1154.02 48.0938 1155.62 52.6094 1155.62 58.4219C1155.62 63.2344 1153.64 67.9531 1149.67 72.5781L1145.78 76.9844C1144.5 78.5156 1143.59 80.1094 1143.06 81.7656C1142.53 83.3906 1142.23 85.5312 1142.17 88.1875H1130.55ZM1129.33 102.531C1129.33 100.406 1130 98.6719 1131.34 97.3281C1132.72 95.9844 1134.45 95.3125 1136.55 95.3125C1138.7 95.3125 1140.45 96 1141.8 97.375C1143.14 98.7188 1143.81 100.438 1143.81 102.531C1143.81 104.594 1143.16 106.312 1141.84 107.688C1140.53 109.062 1138.77 109.75 1136.55 109.75C1134.36 109.75 1132.61 109.062 1131.3 107.688C1129.98 106.312 1129.33 104.594 1129.33 102.531Z" fill="white" fill-opacity="0.2"/>
<path d="M1173.58 88.1875C1173.58 83.8125 1174 80.3438 1174.84 77.7812C1175.72 75.1875 1177.27 72.7188 1179.48 70.375C1181.83 67.7812 1183.39 65.6562 1184.17 64C1184.95 62.3438 1185.34 60.6719 1185.34 58.9844C1185.34 53.7656 1183.66 51.1562 1180.28 51.1562C1178.78 51.1562 1177.53 51.875 1176.53 53.3125C1175.53 54.75 1175 56.6875 1174.94 59.125H1161.67C1161.73 53.0625 1163.42 48.3594 1166.73 45.0156C1170.08 41.6719 1174.59 40 1180.28 40C1186.09 40 1190.61 41.625 1193.83 44.875C1197.05 48.0938 1198.66 52.6094 1198.66 58.4219C1198.66 63.2344 1196.67 67.9531 1192.7 72.5781L1188.81 76.9844C1187.53 78.5156 1186.62 80.1094 1186.09 81.7656C1185.56 83.3906 1185.27 85.5312 1185.2 88.1875H1173.58ZM1172.36 102.531C1172.36 100.406 1173.03 98.6719 1174.38 97.3281C1175.75 95.9844 1177.48 95.3125 1179.58 95.3125C1181.73 95.3125 1183.48 96 1184.83 97.375C1186.17 98.7188 1186.84 100.438 1186.84 102.531C1186.84 104.594 1186.19 106.312 1184.88 107.688C1183.56 109.062 1181.8 109.75 1179.58 109.75C1177.39 109.75 1175.64 109.062 1174.33 107.688C1173.02 106.312 1172.36 104.594 1172.36 102.531Z" fill="white" fill-opacity="0.2"/>
<path d="M1216.61 88.1875C1216.61 83.8125 1217.03 80.3438 1217.88 77.7812C1218.75 75.1875 1220.3 72.7188 1222.52 70.375C1224.86 67.7812 1226.42 65.6562 1227.2 64C1227.98 62.3438 1228.38 60.6719 1228.38 58.9844C1228.38 53.7656 1226.69 51.1562 1223.31 51.1562C1221.81 51.1562 1220.56 51.875 1219.56 53.3125C1218.56 54.75 1218.03 56.6875 1217.97 59.125H1204.7C1204.77 53.0625 1206.45 48.3594 1209.77 45.0156C1213.11 41.6719 1217.62 40 1223.31 40C1229.12 40 1233.64 41.625 1236.86 44.875C1240.08 48.0938 1241.69 52.6094 1241.69 58.4219C1241.69 63.2344 1239.7 67.9531 1235.73 72.5781L1231.84 76.9844C1230.56 78.5156 1229.66 80.1094 1229.12 81.7656C1228.59 83.3906 1228.3 85.5312 1228.23 88.1875H1216.61ZM1215.39 102.531C1215.39 100.406 1216.06 98.6719 1217.41 97.3281C1218.78 95.9844 1220.52 95.3125 1222.61 95.3125C1224.77 95.3125 1226.52 96 1227.86 97.375C1229.2 98.7188 1229.88 100.438 1229.88 102.531C1229.88 104.594 1229.22 106.312 1227.91 107.688C1226.59 109.062 1224.83 109.75 1222.61 109.75C1220.42 109.75 1218.67 109.062 1217.36 107.688C1216.05 106.312 1215.39 104.594 1215.39 102.531Z" fill="white" fill-opacity="0.2"/>
<path fill-rule="evenodd" clip-rule="evenodd" d="M1097.54 65.1516C1098.46 64.2287 1098.46 62.7324 1097.54 61.8095V61.8095C1096.62 60.8865 1095.12 60.8865 1094.2 61.8095L1085.74 70.2607C1084.18 71.8228 1081.65 71.8228 1080.09 70.2607L1071.64 61.8094C1070.71 60.8865 1069.22 60.8865 1068.29 61.8094V61.8094C1067.37 62.7323 1067.37 64.2286 1068.29 65.1515L1076.75 73.6029C1078.31 75.165 1078.31 77.6977 1076.75 79.2597L1068.29 87.7112C1067.37 88.6341 1067.37 90.1304 1068.29 91.0533V91.0533C1069.22 91.9762 1070.71 91.9762 1071.64 91.0533L1080.09 82.6019C1081.65 81.0398 1084.18 81.0398 1085.74 82.6019L1094.2 91.0532C1095.12 91.9761 1096.62 91.9761 1097.54 91.0532V91.0532C1098.46 90.1303 1098.46 88.634 1097.54 87.7111L1089.09 79.2597C1087.52 77.6977 1087.52 75.165 1089.09 73.6029L1097.54 65.1516Z" fill="white" fill-opacity="0.2"/>
<path d="M457.77 205.002L457.77 207.638L465.88 207.638L465.88 208.37L457.77 208.37L457.77 211L457.12 211L457.12 205.002L457.77 205.002Z" fill="#DADADA"/>
<path d="M465.88 197.692L465.88 198.424L461.687 198.424L461.687 202.779L465.88 202.779L465.88 203.505L457.12 203.505L457.12 202.779L461.049 202.779L461.049 198.424L457.12 198.424L457.12 197.692L465.88 197.692Z" fill="#DADADA"/>
<path d="M465.88 194.623L465.88 195.348L457.12 195.348L457.12 194.623L465.88 194.623Z" fill="#DADADA"/>
<path d="M463.726 187.943C463.237 187.943 462.852 188.091 462.571 188.389C462.29 188.682 462.021 189.231 461.765 190.038C461.508 190.844 461.221 191.437 460.904 191.814C460.491 192.311 459.946 192.559 459.268 192.559C458.598 192.559 458.053 192.315 457.632 191.827C457.211 191.339 457 190.709 457 189.936C457 189.146 457.245 188.501 457.734 188C458.223 187.499 458.853 187.249 459.623 187.249L459.623 187.981C459.033 187.981 458.558 188.157 458.197 188.51C457.832 188.858 457.65 189.333 457.65 189.936C457.65 190.522 457.8 190.984 458.101 191.324C458.398 191.659 458.783 191.827 459.256 191.827C459.697 191.827 460.058 191.668 460.339 191.35C460.62 191.031 460.87 190.524 461.091 189.828C461.307 189.132 461.534 188.605 461.771 188.249C462.003 187.892 462.278 187.629 462.595 187.459C462.912 187.289 463.285 187.204 463.714 187.204C464.4 187.204 464.953 187.45 465.374 187.943C465.791 188.431 466 189.078 466 189.885C466 190.428 465.896 190.925 465.687 191.375C465.475 191.821 465.172 192.171 464.779 192.426C464.382 192.676 463.914 192.801 463.377 192.801L463.377 192.075C463.995 192.075 464.48 191.878 464.833 191.483C465.186 191.088 465.362 190.556 465.362 189.885C465.362 189.299 465.214 188.83 464.917 188.478C464.62 188.121 464.223 187.943 463.726 187.943Z" fill="#DADADA"/>
<path d="M463.431 178.404L463.431 181.881L465.88 182.67L465.88 183.428L457.12 180.474L457.12 179.799L465.88 176.844L465.88 177.602L463.431 178.404ZM462.787 181.671L462.787 178.614L458.089 180.143L462.787 181.671Z" fill="#DADADA"/>
<path d="M462.234 172.578L462.234 174.743L465.88 174.743L465.88 175.475L457.12 175.475L457.12 172.934C457.12 172.09 457.349 171.436 457.806 170.973C458.259 170.506 458.891 170.273 459.701 170.273C460.267 170.273 460.764 170.417 461.193 170.706C461.618 170.994 461.913 171.383 462.078 171.871L465.801 169.942L465.88 169.942L465.88 170.718L462.234 172.578ZM461.596 174.743L461.596 172.807C461.596 172.259 461.42 171.822 461.067 171.495C460.71 171.168 460.255 171.005 459.701 171.005C459.088 171.005 458.612 171.175 458.275 171.514C457.939 171.854 457.77 172.329 457.77 172.941L457.77 174.743L461.596 174.743Z" fill="#DADADA"/>
<path d="M461.686 163.969L461.687 167.567L465.242 167.567L465.242 163.428L465.88 163.428L465.88 168.292L457.12 168.292L457.12 163.459L457.77 163.459L457.77 167.567L461.049 167.567L461.049 163.969L461.686 163.969Z" fill="#DADADA"/>
<path d="M463.431 157.595L463.431 161.072L465.88 161.861L465.88 162.619L457.12 159.664L457.12 158.989L465.88 156.035L465.88 156.793L463.431 157.595ZM462.787 160.861L462.787 157.805L458.089 159.333L462.787 160.861Z" fill="#DADADA"/>
<path d="M457.12 150.762L464.827 147.954L457.12 145.133L457.12 144.172L465.88 144.172L465.88 144.898L462.084 144.898L458.263 144.834L465.88 147.674L465.88 148.234L458.299 151.062L462.059 150.998L465.88 150.998L465.88 151.724L457.12 151.724L457.12 150.762Z" fill="#DADADA"/>
<path d="M463.431 137.639L463.431 141.115L465.88 141.905L465.88 142.663L457.12 139.708L457.12 139.033L465.88 136.079L465.88 136.836L463.431 137.639ZM462.787 140.905L462.787 137.849L458.089 139.377L462.787 140.905Z" fill="#DADADA"/>
<path d="M461.885 132.99L457.12 130.679L457.12 129.845L462.583 132.634L465.88 132.634L465.88 133.36L462.583 133.36L457.12 136.142L457.12 135.289L461.885 132.99Z" fill="#DADADA"/>
<path d="M465.88 128.482L457.12 128.482L457.12 126.132C457.12 125.296 457.315 124.664 457.704 124.235C458.089 123.802 458.658 123.585 459.412 123.585C459.862 123.585 460.253 123.696 460.586 123.917C460.918 124.137 461.159 124.443 461.307 124.833C461.416 124.384 461.664 124.021 462.053 123.745C462.439 123.464 462.892 123.324 463.413 123.324C464.175 123.324 464.777 123.545 465.218 123.987C465.659 124.428 465.88 125.054 465.88 125.865L465.88 128.482ZM461.674 127.756L465.242 127.756L465.242 125.833C465.242 125.281 465.082 124.846 464.761 124.528C464.44 124.209 463.995 124.05 463.425 124.05C462.896 124.05 462.475 124.199 462.162 124.496C461.849 124.789 461.686 125.199 461.674 125.725L461.674 127.756ZM461.043 127.756L461.043 126.069C461.043 125.517 460.904 125.088 460.628 124.783C460.351 124.477 459.94 124.324 459.394 124.324C458.837 124.324 458.428 124.475 458.167 124.776C457.902 125.073 457.77 125.525 457.77 126.132L457.77 127.756L461.043 127.756Z" fill="#DADADA"/>
<path d="M461.686 117.167L461.686 120.765L465.242 120.765L465.242 116.626L465.88 116.626L465.88 121.49L457.12 121.49L457.12 116.657L457.77 116.657L457.77 120.765L461.049 120.765L461.049 117.167L461.686 117.167Z" fill="#DADADA"/>
<path d="M462.451 106.329C463.582 106.329 464.456 106.592 465.074 107.119C465.691 107.641 466 108.375 466 109.322C466 110.26 465.691 110.997 465.074 111.532C464.456 112.062 463.588 112.33 462.469 112.334L460.561 112.334C459.434 112.334 458.56 112.069 457.938 111.538C457.313 111.007 457 110.273 457 109.335C457 108.384 457.313 107.645 457.938 107.119C458.564 106.592 459.445 106.329 460.58 106.329L462.451 106.329ZM460.549 107.061C459.591 107.061 458.871 107.257 458.39 107.647C457.908 108.038 457.668 108.6 457.668 109.335C457.668 110.044 457.904 110.598 458.378 110.997C458.847 111.396 459.551 111.599 460.489 111.608L462.451 111.608C463.413 111.608 464.137 111.406 464.622 111.003C465.104 110.6 465.344 110.039 465.344 109.322C465.344 108.583 465.104 108.023 464.622 107.641C464.141 107.255 463.417 107.061 462.451 107.061L460.549 107.061Z" fill="#DADADA"/>
<path d="M457.12 99.0001L463.335 99.0001C464.181 99.0043 464.837 99.2463 465.302 99.726C465.767 100.201 466 100.879 466 101.757C466 102.649 465.771 103.332 465.314 103.808C464.853 104.279 464.185 104.514 463.311 104.514L457.12 104.514L457.12 103.789L463.287 103.789C464.67 103.789 465.362 103.111 465.362 101.757C465.362 100.424 464.691 99.7493 463.347 99.7324L457.12 99.7324L457.12 99.0001Z" fill="#DADADA"/>
<path d="M457.77 91.6455L457.77 94.2817L465.88 94.2817L465.88 95.014L457.77 95.014L457.77 97.6438L457.12 97.6438L457.12 91.6455L457.77 91.6455Z" fill="#DADADA"/>
<path d="M463.726 85.8955C463.237 85.8955 462.852 86.0441 462.571 86.3413C462.29 86.6342 462.021 87.1839 461.765 87.9905C461.508 88.7971 461.221 89.3892 460.904 89.7671C460.491 90.2637 459.946 90.5121 459.268 90.5121C458.598 90.5121 458.053 90.268 457.632 89.7798C457.211 89.2916 457 88.6612 457 87.8886C457 87.099 457.245 86.4538 457.734 85.9529C458.223 85.4519 458.853 85.2015 459.623 85.2015L459.623 85.9338C459.033 85.9338 458.558 86.1099 458.197 86.4623C457.832 86.8104 457.65 87.2858 457.65 87.8886C457.65 88.4744 457.8 88.9371 458.101 89.2768C458.398 89.6121 458.783 89.7798 459.256 89.7798C459.697 89.7798 460.058 89.6206 460.339 89.3022C460.62 88.9838 460.87 88.4766 461.091 87.7804C461.307 87.0842 461.534 86.5578 461.771 86.2012C462.003 85.8446 462.278 85.5814 462.595 85.4116C462.912 85.2418 463.285 85.1569 463.714 85.1569C464.4 85.1569 464.953 85.4031 465.374 85.8955C465.791 86.3837 466 87.0311 466 87.8377C466 88.381 465.896 88.8777 465.687 89.3277C465.475 89.7734 465.172 90.1236 464.779 90.3783C464.382 90.6288 463.914 90.754 463.377 90.754L463.377 90.0281C463.995 90.0281 464.48 89.8307 464.833 89.4359C465.186 89.0411 465.362 88.5084 465.362 87.8377C465.362 87.2519 465.214 86.7828 464.917 86.4304C464.62 86.0738 464.223 85.8955 463.726 85.8955Z" fill="#DADADA"/>
<path d="M465.88 82.6417L465.88 83.3676L457.12 83.3676L457.12 82.6417L465.88 82.6417Z" fill="#DADADA"/>
<path d="M465.88 80.3175L457.12 80.3175L457.12 78.1334C457.12 77.1273 457.425 76.3314 458.035 75.7456C458.64 75.1598 459.477 74.8584 460.543 74.8414L462.378 74.8414C463.477 74.8414 464.336 75.1385 464.953 75.7328C465.571 76.3229 465.88 77.1528 465.88 78.2226L465.88 80.3175ZM457.77 79.5916L465.242 79.5916L465.242 78.1844C465.242 77.3566 465.001 76.7156 464.52 76.2614C464.035 75.8071 463.343 75.5737 462.445 75.5609L460.61 75.5609C459.711 75.5609 459.013 75.7838 458.516 76.2295C458.019 76.671 457.77 77.312 457.77 78.1525L457.77 79.5916Z" fill="#DADADA"/>
<path d="M461.686 68.5565L461.686 72.1542L465.242 72.1542L465.242 68.0153L465.88 68.0153L465.88 72.8802L457.12 72.8802L457.12 68.0471L457.77 68.0471L457.77 72.1542L461.049 72.1542L461.049 68.5565L461.686 68.5565Z" fill="#DADADA"/>
<path d="M464.785 61.0619L464.881 61.0428L464.785 61.0173L457.12 58.5976L457.12 57.7953L465.88 60.6925L465.88 61.3802L457.12 64.2775L457.12 63.4816L464.785 61.0619Z" fill="#DADADA"/>
<path d="M465.88 55.5539L465.88 56.2798L457.12 56.2798L457.12 55.5539L465.88 55.5539Z" fill="#DADADA"/>
<path d="M461.686 48.9061L461.686 52.5038L465.242 52.5038L465.242 48.3649L465.88 48.3649L465.88 53.2297L457.12 53.2297L457.12 48.3967L457.77 48.3967L457.77 52.5038L461.049 52.5038L461.049 48.9061L461.686 48.9061Z" fill="#DADADA"/>
<path d="M463.497 45.2638L464.797 45.041L463.557 44.7608L457.12 43.0988L457.12 42.4493L463.557 40.8129L464.809 40.5391L463.497 40.2971L457.12 38.9281L457.12 38.1894L465.88 40.1634L465.88 40.8511L459.051 42.5894L458.239 42.7741L459.051 42.9524L465.88 44.7289L465.88 45.423L457.12 47.3906L457.12 46.6456L463.497 45.2638Z" fill="#DADADA"/>
<path d="M462.318 35.9607L465.88 35.9607L465.88 36.6867L457.12 36.6867L457.12 33.9932C457.12 33.1739 457.353 32.5286 457.818 32.0574C458.283 31.5862 458.923 31.3506 459.737 31.3506C460.568 31.3506 461.205 31.5798 461.65 32.0383C462.096 32.4925 462.318 33.1484 462.318 34.0059L462.318 35.9607ZM461.674 35.9607L461.674 33.9932C461.674 33.3819 461.508 32.9107 461.175 32.5795C460.838 32.2442 460.363 32.0765 459.749 32.0765C459.136 32.0765 458.652 32.2463 458.299 32.5859C457.947 32.9213 457.77 33.3882 457.77 33.9868L457.77 35.9607L461.674 35.9607Z" fill="#DADADA"/>
<path d="M462.451 23.9069C463.582 23.9069 464.456 24.1701 465.074 24.6964C465.691 25.2186 466 25.953 466 26.8996C466 27.8378 465.691 28.5743 465.074 29.1092C464.456 29.6398 463.588 29.9073 462.469 29.9115L460.561 29.9115C459.434 29.9115 458.56 29.6462 457.938 29.1156C457.313 28.5849 457 27.8505 457 26.9124C457 25.9615 457.313 25.2228 457.938 24.6964C458.564 24.1701 459.445 23.9069 460.58 23.9069L462.451 23.9069ZM460.549 24.6391C459.591 24.6391 458.871 24.8344 458.39 25.225C457.908 25.6155 457.668 26.178 457.668 26.9124C457.668 27.6213 457.904 28.1753 458.378 28.5743C458.847 28.9734 459.551 29.1771 460.489 29.1856L462.451 29.1856C463.413 29.1856 464.137 28.984 464.622 28.5807C465.104 28.1774 465.344 27.6171 465.344 26.8996C465.344 26.161 465.104 25.6006 464.622 25.2186C464.141 24.8323 463.417 24.6391 462.451 24.6391L460.549 24.6391Z" fill="#DADADA"/>
<path d="M462.234 19.0802L462.234 21.2452L465.88 21.2452L465.88 21.9775L457.12 21.9775L457.12 19.4368C457.12 18.592 457.349 17.9383 457.806 17.4756C458.259 17.0086 458.891 16.7751 459.701 16.7751C460.267 16.7751 460.764 16.9195 461.193 17.2081C461.618 17.4968 461.913 17.8852 462.078 18.3734L465.801 16.444L465.88 16.444L465.88 17.2209L462.234 19.0802ZM461.596 21.2452L461.596 19.3094C461.596 18.7618 461.42 18.3246 461.067 17.9977C460.71 17.6708 460.255 17.5074 459.701 17.5074C459.088 17.5074 458.612 17.6772 458.275 18.0168C457.938 18.3564 457.77 18.8319 457.77 19.4432L457.77 21.2452L461.596 21.2452Z" fill="#DADADA"/>
<path d="M457.77 10L457.77 12.6362L465.88 12.6362L465.88 13.3685L457.77 13.3685L457.77 15.9983L457.12 15.9983L457.12 10L457.77 10Z" fill="#DADADA"/>
<path d="M1639.23 15.9983L1639.23 13.3621L1631.12 13.3621L1631.12 12.6298L1639.23 12.6298L1639.23 10L1639.88 10L1639.88 15.9983L1639.23 15.9983Z" fill="#DADADA"/>
<path d="M1631.12 23.3083L1631.12 22.576L1635.31 22.576L1635.31 18.2206L1631.12 18.2206L1631.12 17.4947L1639.88 17.4947L1639.88 18.2206L1635.95 18.2206L1635.95 22.576L1639.88 22.576L1639.88 23.3083L1631.12 23.3083Z" fill="#DADADA"/>
<path d="M1631.12 26.3775L1631.12 25.6516L1639.88 25.6516L1639.88 26.3775L1631.12 26.3775Z" fill="#DADADA"/>
<path d="M1633.27 33.0571C1633.76 33.0571 1634.15 32.9085 1634.43 32.6114C1634.71 32.3185 1634.98 31.7687 1635.24 30.9622C1635.49 30.1556 1635.78 29.5634 1636.1 29.1856C1636.51 28.6889 1637.05 28.4406 1637.73 28.4406C1638.4 28.4406 1638.95 28.6847 1639.37 29.1729C1639.79 29.6611 1640 30.2915 1640 31.0641C1640 31.8536 1639.76 32.4989 1639.27 32.9998C1638.78 33.5007 1638.15 33.7512 1637.38 33.7512L1637.38 33.0189C1637.97 33.0189 1638.44 32.8427 1638.8 32.4904C1639.17 32.1423 1639.35 31.6669 1639.35 31.0641C1639.35 30.4782 1639.2 30.0155 1638.9 29.6759C1638.6 29.3406 1638.22 29.1729 1637.74 29.1729C1637.3 29.1729 1636.94 29.3321 1636.66 29.6504C1636.38 29.9688 1636.13 30.4761 1635.91 31.1723C1635.69 31.8685 1635.47 32.3949 1635.23 32.7515C1635 33.1081 1634.72 33.3713 1634.41 33.5411C1634.09 33.7109 1633.72 33.7958 1633.29 33.7958C1632.6 33.7958 1632.05 33.5495 1631.63 33.0571C1631.21 32.5689 1631 31.9216 1631 31.115C1631 30.5716 1631.1 30.075 1631.31 29.625C1631.53 29.1792 1631.83 28.829 1632.22 28.5743C1632.62 28.3239 1633.09 28.1986 1633.62 28.1986L1633.62 28.9245C1633.01 28.9245 1632.52 29.1219 1632.17 29.5167C1631.81 29.9115 1631.64 30.4443 1631.64 31.115C1631.64 31.7008 1631.79 32.1699 1632.08 32.5222C1632.38 32.8788 1632.78 33.0571 1633.27 33.0571Z" fill="#DADADA"/>
<path d="M1633.57 42.5958L1633.57 39.1191L1631.12 38.3295L1631.12 37.5718L1639.88 40.5263L1639.88 41.2013L1631.12 44.1559L1631.12 43.3981L1633.57 42.5958ZM1634.21 39.3292L1634.21 42.3857L1638.91 40.8574L1634.21 39.3292Z" fill="#DADADA"/>
<path d="M1634.77 48.4222L1634.77 46.2572L1631.12 46.2572L1631.12 45.5249L1639.88 45.5249L1639.88 48.0656C1639.88 48.9103 1639.65 49.5641 1639.19 50.0268C1638.74 50.4938 1638.11 50.7272 1637.3 50.7272C1636.73 50.7272 1636.24 50.5829 1635.81 50.2942C1635.38 50.0056 1635.09 49.6172 1634.92 49.129L1631.2 51.0584L1631.12 51.0584L1631.12 50.2815L1634.77 48.4222ZM1635.4 46.2572L1635.4 48.1929C1635.4 48.7405 1635.58 49.1778 1635.93 49.5047C1636.29 49.8315 1636.75 49.995 1637.3 49.995C1637.91 49.995 1638.39 49.8252 1638.72 49.4856C1639.06 49.1459 1639.23 48.6705 1639.23 48.0592L1639.23 46.2572L1635.4 46.2572Z" fill="#DADADA"/>
<path d="M1635.31 57.0312L1635.31 53.4335L1631.76 53.4335L1631.76 57.5724L1631.12 57.5724L1631.12 52.7076L1639.88 52.7076L1639.88 57.5406L1639.23 57.5406L1639.23 53.4335L1635.95 53.4335L1635.95 57.0312L1635.31 57.0312Z" fill="#DADADA"/>
<path d="M1633.57 63.4052L1633.57 59.9284L1631.12 59.1389L1631.12 58.3811L1639.88 61.3357L1639.88 62.0106L1631.12 64.9652L1631.12 64.2075L1633.57 63.4052ZM1634.21 60.1386L1634.21 63.195L1638.91 61.6668L1634.21 60.1386Z" fill="#DADADA"/>
<path d="M1639.88 70.2376L1632.17 73.0457L1639.88 75.8666L1639.88 76.8281L1631.12 76.8281L1631.12 76.1022L1634.92 76.1022L1638.74 76.1658L1631.12 73.3259L1631.12 72.7655L1638.7 69.9383L1634.94 70.002L1631.12 70.002L1631.12 69.2761L1639.88 69.2761L1639.88 70.2376Z" fill="#DADADA"/>
<path d="M1633.57 83.3612L1633.57 79.8845L1631.12 79.0949L1631.12 78.3372L1639.88 81.2918L1639.88 81.9667L1631.12 84.9213L1631.12 84.1636L1633.57 83.3612ZM1634.21 80.0947L1634.21 83.1511L1638.91 81.6229L1634.21 80.0947Z" fill="#DADADA"/>
<path d="M1635.11 88.0096L1639.88 90.321L1639.88 91.1552L1634.42 88.3662L1631.12 88.3662L1631.12 87.6403L1634.42 87.6403L1639.88 84.8576L1639.88 85.7109L1635.11 88.0096Z" fill="#DADADA"/>
<path d="M1631.12 92.5179L1639.88 92.5179L1639.88 94.8675C1639.88 95.7038 1639.69 96.3363 1639.3 96.7651C1638.91 97.1981 1638.34 97.4146 1637.59 97.4146C1637.14 97.4146 1636.75 97.3042 1636.41 97.0834C1636.08 96.8627 1635.84 96.5571 1635.69 96.1665C1635.58 96.6165 1635.34 96.9794 1634.95 97.2554C1634.56 97.5355 1634.11 97.6756 1633.59 97.6756C1632.82 97.6756 1632.22 97.4549 1631.78 97.0134C1631.34 96.5719 1631.12 95.9458 1631.12 95.135L1631.12 92.5179ZM1635.33 93.2438L1631.76 93.2438L1631.76 95.1668C1631.76 95.7187 1631.92 96.1538 1632.24 96.4722C1632.56 96.7905 1633.01 96.9497 1633.57 96.9497C1634.1 96.9497 1634.53 96.8011 1634.84 96.504C1635.15 96.2111 1635.31 95.8014 1635.33 95.275L1635.33 93.2438ZM1635.96 93.2438L1635.96 94.9312C1635.96 95.4831 1636.1 95.9118 1636.37 96.2175C1636.65 96.5231 1637.06 96.6759 1637.61 96.6759C1638.16 96.6759 1638.57 96.5252 1638.83 96.2238C1639.1 95.9267 1639.23 95.4746 1639.23 94.8675L1639.23 93.2438L1635.96 93.2438Z" fill="#DADADA"/>
<path d="M1635.31 103.833L1635.31 100.235L1631.76 100.235L1631.76 104.374L1631.12 104.374L1631.12 99.5095L1639.88 99.5095L1639.88 104.343L1639.23 104.343L1639.23 100.235L1635.95 100.235L1635.95 103.833L1635.31 103.833Z" fill="#DADADA"/>
<path d="M1634.55 114.671C1633.42 114.671 1632.54 114.408 1631.93 113.881C1631.31 113.359 1631 112.625 1631 111.678C1631 110.74 1631.31 110.003 1631.93 109.468C1632.54 108.938 1633.41 108.67 1634.53 108.666L1636.44 108.666C1637.57 108.666 1638.44 108.931 1639.06 109.462C1639.69 109.993 1640 110.727 1640 111.665C1640 112.616 1639.69 113.355 1639.06 113.881C1638.44 114.408 1637.56 114.671 1636.42 114.671L1634.55 114.671ZM1636.45 113.939C1637.41 113.939 1638.13 113.743 1638.61 113.353C1639.09 112.962 1639.33 112.4 1639.33 111.665C1639.33 110.956 1639.1 110.402 1638.62 110.003C1638.15 109.604 1637.45 109.401 1636.51 109.392L1634.55 109.392C1633.59 109.392 1632.86 109.594 1632.38 109.997C1631.9 110.4 1631.66 110.961 1631.66 111.678C1631.66 112.417 1631.9 112.977 1632.38 113.359C1632.86 113.745 1633.58 113.939 1634.55 113.939L1636.45 113.939Z" fill="#DADADA"/>
<path d="M1639.88 122L1633.67 122C1632.82 121.996 1632.16 121.754 1631.7 121.274C1631.23 120.799 1631 120.121 1631 119.243C1631 118.351 1631.23 117.668 1631.69 117.192C1632.15 116.721 1632.81 116.486 1633.69 116.486L1639.88 116.486L1639.88 117.211L1633.71 117.211C1632.33 117.211 1631.64 117.889 1631.64 119.243C1631.64 120.576 1632.31 121.251 1633.65 121.268L1639.88 121.268L1639.88 122Z" fill="#DADADA"/>
<path d="M1639.23 129.354L1639.23 126.718L1631.12 126.718L1631.12 125.986L1639.23 125.986L1639.23 123.356L1639.88 123.356L1639.88 129.354L1639.23 129.354Z" fill="#DADADA"/>
<path d="M1633.27 135.104C1633.76 135.104 1634.15 134.956 1634.43 134.659C1634.71 134.366 1634.98 133.816 1635.24 133.01C1635.49 132.203 1635.78 131.611 1636.1 131.233C1636.51 130.736 1637.05 130.488 1637.73 130.488C1638.4 130.488 1638.95 130.732 1639.37 131.22C1639.79 131.708 1640 132.339 1640 133.111C1640 133.901 1639.76 134.546 1639.27 135.047C1638.78 135.548 1638.15 135.799 1637.38 135.799L1637.38 135.066C1637.97 135.066 1638.44 134.89 1638.8 134.538C1639.17 134.19 1639.35 133.714 1639.35 133.111C1639.35 132.526 1639.2 132.063 1638.9 131.723C1638.6 131.388 1638.22 131.22 1637.74 131.22C1637.3 131.22 1636.94 131.379 1636.66 131.698C1636.38 132.016 1636.13 132.523 1635.91 133.22C1635.69 133.916 1635.47 134.442 1635.23 134.799C1635 135.155 1634.72 135.419 1634.41 135.588C1634.09 135.758 1633.72 135.843 1633.29 135.843C1632.6 135.843 1632.05 135.597 1631.63 135.104C1631.21 134.616 1631 133.969 1631 133.162C1631 132.619 1631.1 132.122 1631.31 131.672C1631.53 131.227 1631.83 130.876 1632.22 130.622C1632.62 130.371 1633.09 130.246 1633.62 130.246L1633.62 130.972C1633.01 130.972 1632.52 131.169 1632.17 131.564C1631.81 131.959 1631.64 132.492 1631.64 133.162C1631.64 133.748 1631.79 134.217 1632.08 134.57C1632.38 134.926 1632.78 135.104 1633.27 135.104Z" fill="#DADADA"/>
<path d="M1631.12 138.358L1631.12 137.632L1639.88 137.632L1639.88 138.358L1631.12 138.358Z" fill="#DADADA"/>
<path d="M1631.12 140.682L1639.88 140.682L1639.88 142.867C1639.88 143.873 1639.57 144.669 1638.97 145.254C1638.36 145.84 1637.52 146.142 1636.46 146.159L1634.62 146.159C1633.52 146.159 1632.66 145.861 1632.05 145.267C1631.43 144.677 1631.12 143.847 1631.12 142.777L1631.12 140.682ZM1639.23 141.408L1631.76 141.408L1631.76 142.816C1631.76 143.643 1632 144.284 1632.48 144.739C1632.97 145.193 1633.66 145.426 1634.56 145.439L1636.39 145.439C1637.29 145.439 1637.99 145.216 1638.48 144.77C1638.98 144.329 1639.23 143.688 1639.23 142.847L1639.23 141.408Z" fill="#DADADA"/>
<path d="M1635.31 152.443L1635.31 148.846L1631.76 148.846L1631.76 152.985L1631.12 152.985L1631.12 148.12L1639.88 148.12L1639.88 152.953L1639.23 152.953L1639.23 148.846L1635.95 148.846L1635.95 152.443L1635.31 152.443Z" fill="#DADADA"/>
<path d="M1632.22 159.938L1632.12 159.957L1632.22 159.983L1639.88 162.402L1639.88 163.205L1631.12 160.307L1631.12 159.62L1639.88 156.722L1639.88 157.518L1632.22 159.938Z" fill="#DADADA"/>
<path d="M1631.12 165.446L1631.12 164.72L1639.88 164.72L1639.88 165.446L1631.12 165.446Z" fill="#DADADA"/>
<path d="M1635.31 172.094L1635.31 168.496L1631.76 168.496L1631.76 172.635L1631.12 172.635L1631.12 167.77L1639.88 167.77L1639.88 172.603L1639.23 172.603L1639.23 168.496L1635.95 168.496L1635.95 172.094L1635.31 172.094Z" fill="#DADADA"/>
<path d="M1633.5 175.736L1632.2 175.959L1633.44 176.239L1639.88 177.901L1639.88 178.551L1633.44 180.187L1632.19 180.461L1633.5 180.703L1639.88 182.072L1639.88 182.811L1631.12 180.837L1631.12 180.149L1637.95 178.411L1638.76 178.226L1637.95 178.048L1631.12 176.271L1631.12 175.577L1639.88 173.609L1639.88 174.354L1633.5 175.736Z" fill="#DADADA"/>
<path d="M1634.68 185.039L1631.12 185.039L1631.12 184.313L1639.88 184.313L1639.88 187.007C1639.88 187.826 1639.65 188.471 1639.18 188.943C1638.72 189.414 1638.08 189.649 1637.26 189.649C1636.43 189.649 1635.79 189.42 1635.35 188.962C1634.9 188.507 1634.68 187.852 1634.68 186.994L1634.68 185.039ZM1635.33 185.039L1635.33 187.007C1635.33 187.618 1635.49 188.089 1635.82 188.42C1636.16 188.756 1636.64 188.923 1637.25 188.923C1637.86 188.923 1638.35 188.754 1638.7 188.414C1639.05 188.079 1639.23 187.612 1639.23 187.013L1639.23 185.039L1635.33 185.039Z" fill="#DADADA"/>
<path d="M1634.55 197.093C1633.42 197.093 1632.54 196.83 1631.93 196.304C1631.31 195.781 1631 195.047 1631 194.1C1631 193.162 1631.31 192.426 1631.93 191.891C1632.54 191.36 1633.41 191.093 1634.53 191.088L1636.44 191.088C1637.57 191.088 1638.44 191.354 1639.06 191.884C1639.69 192.415 1640 193.149 1640 194.088C1640 195.039 1639.69 195.777 1639.06 196.304C1638.44 196.83 1637.56 197.093 1636.42 197.093L1634.55 197.093ZM1636.45 196.361C1637.41 196.361 1638.13 196.166 1638.61 195.775C1639.09 195.384 1639.33 194.822 1639.33 194.088C1639.33 193.379 1639.1 192.825 1638.62 192.426C1638.15 192.027 1637.45 191.823 1636.51 191.814L1634.55 191.814C1633.59 191.814 1632.86 192.016 1632.38 192.419C1631.9 192.823 1631.66 193.383 1631.66 194.1C1631.66 194.839 1631.9 195.399 1632.38 195.781C1632.86 196.168 1633.58 196.361 1634.55 196.361L1636.45 196.361Z" fill="#DADADA"/>
<path d="M1634.77 201.92L1634.77 199.755L1631.12 199.755L1631.12 199.023L1639.88 199.023L1639.88 201.563C1639.88 202.408 1639.65 203.062 1639.19 203.524C1638.74 203.991 1638.11 204.225 1637.3 204.225C1636.73 204.225 1636.24 204.081 1635.81 203.792C1635.38 203.503 1635.09 203.115 1634.92 202.627L1631.2 204.556L1631.12 204.556L1631.12 203.779L1634.77 201.92ZM1635.4 199.755L1635.4 201.691C1635.4 202.238 1635.58 202.675 1635.93 203.002C1636.29 203.329 1636.75 203.493 1637.3 203.493C1637.91 203.493 1638.39 203.323 1638.72 202.983C1639.06 202.644 1639.23 202.168 1639.23 201.557L1639.23 199.755L1635.4 199.755Z" fill="#DADADA"/>
<path d="M1639.23 211L1639.23 208.364L1631.12 208.364L1631.12 207.632L1639.23 207.632L1639.23 205.002L1639.88 205.002L1639.88 211L1639.23 211Z" fill="#DADADA"/>
<defs>
<linearGradient id="paint0_linear" x1="480" y1="110" x2="-3.57628e-06" y2="110" gradientUnits="userSpaceOnUse">
<stop stop-color="#6F6F6F"/>
<stop offset="1" stop-color="#DADADA" stop-opacity="0"/>
</linearGradient>
<linearGradient id="paint1_linear" x1="1620" y1="110" x2="2100" y2="110" gradientUnits="userSpaceOnUse">
<stop stop-color="#6F6F6F"/>
<stop offset="1" stop-color="#DADADA" stop-opacity="0"/>
</linearGradient>
</defs>
</svg>
