<svg width="150" height="90" viewBox="0 0 150 90" fill="none" xmlns="http://www.w3.org/2000/svg">
<rect width="150" height="90" fill="#656565"/>
<rect x="6" y="6" width="70" height="43" fill="white"/>
<rect x="6" y="49" width="70" height="8" fill="black"/>
<path d="M35.6836 41.9688C33.0117 41.9688 30.8965 41.0957 29.3379 39.3496C27.7793 37.5918 27 35.0195 27 31.6328V25.9902C27 22.6152 27.7734 20.0488 29.3203 18.291C30.8789 16.5215 32.9883 15.6367 35.6484 15.6367C38.2969 15.6367 40.4004 16.5215 41.959 18.291C43.5293 20.0488 44.3145 22.6152 44.3145 25.9902V31.6328C44.3145 35.0195 43.5352 37.5918 41.9766 39.3496C40.4297 41.0957 38.332 41.9688 35.6836 41.9688ZM35.6836 38.0312C36.832 38.0312 37.7051 37.5625 38.3027 36.625C38.9004 35.6875 39.1992 34.1875 39.1992 32.125V25.4629C39.1992 23.4355 38.8945 21.9531 38.2852 21.0156C37.6758 20.0664 36.7969 19.5918 35.6484 19.5918C34.4883 19.5918 33.6094 20.0605 33.0117 20.998C32.4141 21.9355 32.1152 23.4238 32.1152 25.4629V32.125C32.1152 34.1875 32.4141 35.6875 33.0117 36.625C33.6211 37.5625 34.5117 38.0312 35.6836 38.0312Z" fill="black"/>
<path d="M49.9072 22.3164V18.6777H46.7256V16.4629H49.9072V13H52.3418V16.4629H55.4971V18.6777H52.3418V22.3164H49.9072Z" fill="black"/>
</svg>
