<svg width="315" height="315" viewBox="0 0 315 315" fill="none" xmlns="http://www.w3.org/2000/svg">
<rect width="315" height="315" fill="#C4C4C4"/>
<path d="M104.062 176.031H85.2656L81.6094 190H67.0312L88.3594 121.75H100.969L122.438 190H107.719L104.062 176.031ZM88.2656 164.547H101.016L94.6406 140.219L88.2656 164.547Z" fill="white"/>
<path d="M227.812 176.031H209.016L205.359 190H190.781L212.109 121.75H224.719L246.188 190H231.469L227.812 176.031ZM212.016 164.547H224.766L218.391 140.219L212.016 164.547Z" fill="white"/>
<path fill-rule="evenodd" clip-rule="evenodd" d="M172.866 145.964C173.789 145.041 173.789 143.545 172.866 142.622V142.622C171.943 141.699 170.446 141.699 169.523 142.622L161.072 151.073C159.51 152.635 156.977 152.635 155.415 151.073L146.964 142.622C146.041 141.699 144.545 141.699 143.622 142.622V142.622C142.699 143.545 142.699 145.041 143.622 145.964L152.073 154.415C153.635 155.977 153.635 158.51 152.073 160.072L143.622 168.524C142.699 169.447 142.699 170.943 143.622 171.866V171.866C144.545 172.789 146.041 172.789 146.964 171.866L155.415 163.414C156.977 161.852 159.51 161.852 161.072 163.414L169.523 171.866C170.446 172.789 171.943 172.789 172.866 171.866V171.866C173.789 170.943 173.789 169.446 172.866 168.524L164.414 160.072C162.852 158.51 162.852 155.977 164.414 154.415L172.866 145.964Z" fill="white"/>
</svg>
