<svg width="119" height="61" viewBox="0 0 119 61" fill="none" xmlns="http://www.w3.org/2000/svg">
<path d="M0 0H119V61H0V0Z" fill="#C4C4C4"/>
<path d="M13.4033 24.2031L15.8203 33.458L18.2285 24.2031L21.6035 24.2031V37H19.0107V33.5371L19.248 28.2021L16.6904 37H14.9326L12.375 28.2021L12.6123 33.5371V37H10.0283L10.0283 24.2031H13.4033Z" fill="white"/>
<path d="M26.3848 37H23.8008V24.2031H26.3848L26.3848 37Z" fill="white"/>
<path d="M37.5029 37H34.9189L31.1396 28.6064L31.1396 37H28.5557L28.5557 24.2031H31.1396L34.9277 32.6055V24.2031H37.5029V37Z" fill="white"/>
<path d="M42.2754 37H39.6914V24.2031H42.2754V37Z" fill="white"/>
<path d="M48.5947 37V24.2031H52.5498C53.8857 24.2031 54.8994 24.502 55.5908 25.0996C56.2881 25.6914 56.6367 26.5615 56.6367 27.71C56.6367 28.3604 56.4932 28.9199 56.2061 29.3887C55.9189 29.8574 55.5264 30.2002 55.0283 30.417C55.6025 30.5811 56.0449 30.9121 56.3555 31.4102C56.666 31.9023 56.8213 32.5117 56.8213 33.2383C56.8213 34.4805 56.4785 35.418 55.793 36.0508C55.1133 36.6836 54.126 37 52.8311 37H48.5947ZM51.1787 31.4365V34.8555H52.8311C53.2939 34.8555 53.6455 34.7119 53.8857 34.4248C54.126 34.1377 54.2461 33.7305 54.2461 33.2031C54.2461 32.0547 53.8301 31.4658 52.998 31.4365H51.1787ZM51.1787 29.5557H52.5234C53.5371 29.5557 54.0439 29.0313 54.0439 27.9824C54.0439 27.4023 53.9268 26.9863 53.6924 26.7344C53.458 26.4824 53.0771 26.3564 52.5498 26.3564H51.1787V29.5557Z" fill="white"/>
<path d="M67.0254 24.2031V33.0625C67.0137 34.3926 66.6475 35.4121 65.9268 36.1211C65.2061 36.8242 64.1719 37.1758 62.8242 37.1758C61.4531 37.1758 60.4043 36.8184 59.6777 36.1035C58.957 35.3887 58.5967 34.3545 58.5967 33.001V24.2031H61.1982V33.0098C61.1982 33.7363 61.3154 34.2549 61.5498 34.5654C61.7842 34.876 62.209 35.0313 62.8242 35.0313C63.4395 35.0313 63.8613 34.8789 64.0898 34.5742C64.3184 34.2637 64.4355 33.7568 64.4414 33.0537V24.2031L67.0254 24.2031Z" fill="white"/>
<path d="M77.2734 26.3564H74.1094V37H71.5166V26.3564H68.4053V24.2031H77.2734V26.3564Z" fill="white"/>
<path d="M87.1875 26.3564L84.0234 26.3564V37H81.4307V26.3564H78.3193V24.2031H87.1875V26.3564Z" fill="white"/>
<path d="M97.4355 31.7529C97.4355 33.4697 97.0283 34.8027 96.2139 35.752C95.4053 36.7012 94.2803 37.1758 92.8389 37.1758C91.4033 37.1758 90.2754 36.707 89.4551 35.7695C88.6348 34.8262 88.2188 33.5078 88.207 31.8145V29.626C88.207 27.8682 88.6143 26.4971 89.4287 25.5127C90.2432 24.5225 91.374 24.0273 92.8213 24.0273C94.2451 24.0273 95.3672 24.5137 96.1875 25.4863C97.0078 26.4531 97.4238 27.8125 97.4355 29.5645V31.7529ZM94.8428 29.6084C94.8428 28.4541 94.6787 27.5957 94.3506 27.0332C94.0225 26.4707 93.5127 26.1895 92.8213 26.1895C92.1357 26.1895 91.6289 26.4619 91.3008 27.0068C90.9727 27.5459 90.8027 28.3691 90.791 29.4766V31.7529C90.791 32.8721 90.958 33.6982 91.292 34.2314C91.626 34.7588 92.1416 35.0225 92.8389 35.0225C93.5127 35.0225 94.0137 34.7646 94.3418 34.249C94.6699 33.7275 94.8369 32.9219 94.8428 31.832V29.6084Z" fill="white"/>
<path d="M108.237 37H105.653L101.874 28.6064V37H99.29V24.2031H101.874L105.662 32.6055V24.2031H108.237V37Z" fill="white"/>
</svg>
