<svg width="315" height="315" viewBox="0 0 315 315" fill="none" xmlns="http://www.w3.org/2000/svg">
<rect width="315" height="315" fill="#EEEEEE"/>
<path d="M273.312 103.188C269.067 103.188 265.625 99.7454 265.625 95.5V56.1016C265.625 52.3923 262.608 49.375 258.898 49.375H219.5C215.254 49.375 211.812 45.9329 211.812 41.6875C211.812 37.4421 215.254 34 219.5 34H258.898C271.085 34 281 43.915 281 56.1016V95.5C281 99.7454 277.558 103.188 273.312 103.188Z" fill="#C4C4C4"/>
<path d="M42.6875 103.188C38.4416 103.188 35 99.7454 35 95.5V56.1016C35 43.915 44.915 34 57.1016 34H96.5C100.746 34 104.188 37.4421 104.188 41.6875C104.188 45.9329 100.746 49.375 96.5 49.375H57.1016C53.3923 49.375 50.375 52.3923 50.375 56.1016V95.5C50.375 99.7454 46.9334 103.188 42.6875 103.188Z" fill="#C4C4C4"/>
<path d="M96.5 280H57.1016C44.915 280 35 270.085 35 257.898V218.5C35 214.255 38.4416 210.812 42.6875 210.812C46.9334 210.812 50.375 214.255 50.375 218.5V257.898C50.375 261.608 53.3923 264.625 57.1016 264.625H96.5C100.746 264.625 104.188 268.067 104.188 272.312C104.188 276.558 100.746 280 96.5 280Z" fill="#C4C4C4"/>
<path d="M258.898 280H219.5C215.254 280 211.812 276.558 211.812 272.312C211.812 268.067 215.254 264.625 219.5 264.625H258.898C262.608 264.625 265.625 261.608 265.625 257.898V218.5C265.625 214.255 269.067 210.812 273.312 210.812C277.558 210.812 281 214.255 281 218.5V257.898C281 270.085 271.085 280 258.898 280Z" fill="#C4C4C4"/>
<path d="M128.211 149.312H87.8516C75.665 149.312 65.75 139.398 65.75 127.211V86.8516C65.75 74.665 75.665 64.75 87.8516 64.75H128.211C140.398 64.75 150.312 74.665 150.312 86.8516V127.211C150.312 139.398 140.398 149.312 128.211 149.312ZM87.8516 80.125C84.1423 80.125 81.125 83.1423 81.125 86.8516V127.211C81.125 130.92 84.1423 133.938 87.8516 133.938H128.211C131.92 133.938 134.938 130.92 134.938 127.211V86.8516C134.938 83.1423 131.92 80.125 128.211 80.125H87.8516Z" fill="#C4C4C4"/>
<path d="M128.211 249.25H87.8516C75.665 249.25 65.75 239.335 65.75 227.148V186.789C65.75 174.602 75.665 164.688 87.8516 164.688H128.211C140.398 164.688 150.312 174.602 150.312 186.789V227.148C150.312 239.335 140.398 249.25 128.211 249.25ZM87.8516 180.062C84.1423 180.062 81.125 183.08 81.125 186.789V227.148C81.125 230.858 84.1423 233.875 87.8516 233.875H128.211C131.92 233.875 134.938 230.858 134.938 227.148V186.789C134.938 183.08 131.92 180.062 128.211 180.062H87.8516Z" fill="#C4C4C4"/>
<path d="M228.148 149.312H187.789C175.602 149.312 165.688 139.398 165.688 127.211V86.8516C165.688 74.665 175.602 64.75 187.789 64.75H228.148C240.335 64.75 250.25 74.665 250.25 86.8516V127.211C250.25 139.398 240.335 149.312 228.148 149.312ZM187.789 80.125C184.08 80.125 181.062 83.1423 181.062 86.8516V127.211C181.062 130.92 184.08 133.938 187.789 133.938H228.148C231.858 133.938 234.875 130.92 234.875 127.211V86.8516C234.875 83.1423 231.858 80.125 228.148 80.125H187.789Z" fill="#C4C4C4"/>
<path d="M237.758 203.125H219.5V177.18C219.5 170.292 213.896 164.688 207.008 164.688H178.18C171.291 164.688 165.688 170.292 165.688 177.18V206.008C165.688 212.896 171.291 218.5 178.18 218.5H204.125V236.758C204.125 243.646 209.729 249.25 216.617 249.25H237.758C244.646 249.25 250.25 243.646 250.25 236.758V215.617C250.25 208.729 244.646 203.125 237.758 203.125ZM181.062 180.062H204.125V203.125H181.062V180.062ZM234.875 233.875H219.5V218.5H234.875V233.875Z" fill="#C4C4C4"/>
<path d="M111.875 118.562H104.188C99.9416 118.562 96.5 115.12 96.5 110.875V103.188C96.5 98.9421 99.9416 95.5 104.188 95.5H111.875C116.121 95.5 119.562 98.9421 119.562 103.188V110.875C119.562 115.12 116.121 118.562 111.875 118.562Z" fill="#C4C4C4"/>
<path d="M211.812 118.562H204.125C199.879 118.562 196.438 115.12 196.438 110.875V103.188C196.438 98.9421 199.879 95.5 204.125 95.5H211.812C216.058 95.5 219.5 98.9421 219.5 103.188V110.875C219.5 115.12 216.058 118.562 211.812 118.562Z" fill="#C4C4C4"/>
<path d="M111.875 218.5H104.188C99.9416 218.5 96.5 215.058 96.5 210.812V203.125C96.5 198.88 99.9416 195.438 104.188 195.438H111.875C116.121 195.438 119.562 198.88 119.562 203.125V210.812C119.562 215.058 116.121 218.5 111.875 218.5Z" fill="#C4C4C4"/>
</svg>
